<?xml version="1.0" encoding="UTF-8"?>
<svg version="1.1" xmlns="http://www.w3.org/2000/svg" width="417" height="417">
<path d="M0 0 C137.61 0 275.22 0 417 0 C417 137.61 417 275.22 417 417 C279.39 417 141.78 417 0 417 C0 279.39 0 141.78 0 0 Z " fill="#FEFEFE" transform="translate(0,0)"/>
<path d="M0 0 C0.8461084 -0.01764404 1.6922168 -0.03528809 2.56396484 -0.0534668 C4.97265625 -0.05078125 4.97265625 -0.05078125 8.9375 0.3125 C12.88236958 6.22980438 12.22107403 13.76229813 12.45507812 20.6796875 C12.65689681 25.20347241 13.10045062 29.09847992 14.9375 33.3125 C18.17432509 34.93091254 21.50291998 34.49579444 25.03173828 34.04492188 C27.06526393 33.49109527 27.06526393 33.49109527 27.90966797 31.65039062 C29.7475832 25.43403541 30.99994411 19.20483625 32.0625 12.8125 C32.39495325 10.84315864 32.7307048 8.87437021 33.0703125 6.90625 C33.21355957 6.04708984 33.35680664 5.18792969 33.50439453 4.30273438 C33.9375 2.3125 33.9375 2.3125 34.9375 1.3125 C36.41766394 1.21681424 37.90238273 1.19061732 39.38563538 1.19224548 C40.3462236 1.19087082 41.30681183 1.18949615 42.29650879 1.18807983 C43.35889771 1.19167511 44.42128662 1.19527039 45.51586914 1.19897461 C47.18394875 1.19875557 47.18394875 1.19875557 48.88572693 1.1985321 C52.58138951 1.19923179 56.27700241 1.2070268 59.97265625 1.21484375 C62.52713493 1.21670773 65.08161397 1.21813173 67.63609314 1.21913147 C73.6851171 1.22256656 79.73411955 1.23045736 85.78313488 1.24048096 C92.66815154 1.25164317 99.55316904 1.25715282 106.43819249 1.26217639 C120.6046383 1.27264 134.77106817 1.29023877 148.9375 1.3125 C149.1708606 2.54552856 149.1708606 2.54552856 149.40893555 3.8034668 C149.99933883 6.87248054 150.60700796 9.93743199 151.22631836 13.00073242 C151.61925496 14.97119038 151.99239811 16.94556202 152.36523438 18.91992188 C152.61982422 20.16708984 152.87441406 21.41425781 153.13671875 22.69921875 C153.47449341 24.41951294 153.47449341 24.41951294 153.8190918 26.17456055 C155.16704524 29.9565395 156.85156707 31.78197082 159.9375 34.3125 C163.02309301 34.97971536 163.02309301 34.97971536 165.9375 34.3125 C168.49699546 32.45907225 168.91668798 31.37493607 169.9375 28.3125 C170.08736411 26.3218556 170.18578038 24.32714609 170.25390625 22.33203125 C170.29580078 21.16865234 170.33769531 20.00527344 170.38085938 18.80664062 C170.42017578 17.59169922 170.45949219 16.37675781 170.5 15.125 C170.56477539 13.28518555 170.56477539 13.28518555 170.63085938 11.40820312 C170.7370309 8.37641619 170.83907952 5.34454685 170.9375 2.3125 C175.9362648 2.26282188 180.93488379 2.22664937 185.93383789 2.20263672 C187.63210557 2.19261935 189.33035617 2.17900162 191.02856445 2.16162109 C193.47872142 2.13718421 195.92864905 2.1259741 198.37890625 2.1171875 C199.50589684 2.10170364 199.50589684 2.10170364 200.65565491 2.08590698 C205.454986 2.08490035 209.37955985 2.7940623 213.9375 4.3125 C216.26215187 23.06001835 218.01271707 41.83223886 219.50653458 60.66130829 C219.69046295 62.97476809 219.87606356 65.28808847 220.06210327 67.60137939 C222.33504944 95.8906739 224.44577594 124.19214567 226.51649475 152.49687958 C226.74823754 155.66341769 226.9806029 158.82990971 227.2130127 161.99639893 C227.58258368 167.03733791 227.94926676 172.07847973 228.31374931 177.11978912 C228.44779935 178.97056408 228.58252706 180.82129012 228.71803474 182.67195892 C230.09285789 201.47666257 231.1481514 220.25982058 231.23266602 239.11865234 C231.24440683 240.94327409 231.26518702 242.76785614 231.29418945 244.59228516 C231.33658511 247.2805012 231.35296538 249.96774285 231.36328125 252.65625 C231.38078934 253.46968872 231.39829742 254.28312744 231.41633606 255.12121582 C231.40317924 258.52106389 231.2117376 260.86726409 229.41088867 263.79101562 C212.02230869 274.48745531 171.48278389 267.47736349 151.55660439 267.47975707 C148.18860845 267.48047518 144.82061641 267.4826236 141.45262146 267.48525429 C129.64093778 267.49446386 117.82926527 267.49859471 106.01757812 267.49780273 C95.1068342 267.49720312 84.19613989 267.50774356 73.2854085 267.5235464 C63.83396952 267.53673479 54.38254654 267.54198195 44.93109846 267.54134732 C39.32339693 267.54109563 33.71573962 267.54376061 28.10804749 267.55452538 C-12.01865847 267.62604879 -12.01865847 267.62604879 -31.92382812 266.4230957 C-32.60111938 266.38421183 -33.27841063 266.34532796 -33.97622585 266.30526578 C-44.70922321 265.66577679 -44.70922321 265.66577679 -47.0625 263.3125 C-48.23676006 259.18761609 -48.23182072 255.03789102 -48.25024414 250.78051758 C-48.25599142 250.03807737 -48.2617387 249.29563717 -48.26766014 248.53069878 C-48.28188982 246.06858839 -48.28527236 243.60668153 -48.28515625 241.14453125 C-48.28564531 240.28563608 -48.28613438 239.42674091 -48.28663826 238.54181862 C-48.26677846 218.91174855 -47.09256113 199.4027876 -45.69986343 179.82944489 C-45.42635524 175.95741908 -45.16263764 172.08474601 -44.89845943 168.21207428 C-42.87637626 138.60959568 -40.65864352 109.02083196 -38.375 79.4375 C-38.30253429 78.49558681 -38.23006859 77.55367363 -38.15540695 76.58321762 C-36.74096148 58.20697885 -35.29549219 39.83388159 -33.48046875 21.4921875 C-33.36689529 20.29997589 -33.25332184 19.10776428 -33.13630676 17.87942505 C-32.96865059 16.25664139 -32.96865059 16.25664139 -32.79760742 14.60107422 C-32.70348068 13.66883026 -32.60935394 12.7365863 -32.51237488 11.77609253 C-32.05378132 9.264755 -31.39726401 7.48104934 -30.0625 5.3125 C-27.25398951 3.76936237 -24.15807517 3.10156818 -21.0625 2.3125 C-19.88880859 2.00119141 -19.88880859 2.00119141 -18.69140625 1.68359375 C-12.49040216 0.30021842 -6.32861485 0.07752464 0 0 Z " fill="#FEFEFE" transform="translate(117.0625,127.6875)"/>
<path d="M0 0 C17.44880752 13.57930613 26.24524475 33.67684596 29.43896484 55.16479492 C30.14113147 61.65141542 30.04463779 68.12933225 29.9609375 74.64453125 C29.95087123 76.03059237 29.94175192 77.41666071 29.93359375 78.80273438 C29.91029556 82.14602398 29.87758612 85.48892856 29.8359375 88.83203125 C31.31634521 88.80846558 31.31634521 88.80846558 32.82666016 88.78442383 C36.55785662 88.72930968 40.28901878 88.69539143 44.02050781 88.66723633 C45.62245777 88.65233223 47.2243683 88.63200178 48.82617188 88.60571289 C63.48553776 88.3714937 79.08642132 88.64378095 90.5859375 98.95703125 C102.59824939 111.89968164 100.71761248 135.94835579 102.0234375 152.45703125 C102.12654236 153.74582184 102.22964722 155.03461243 102.33587646 156.36245728 C114.91900358 313.83122192 114.91900358 313.83122192 115.1484375 355.95703125 C115.15415771 356.97804932 115.15987793 357.99906738 115.16577148 359.05102539 C115.07932181 367.34946745 114.20519103 374.57959591 109.4609375 381.58203125 C108.87570312 382.46375 108.29046875 383.34546875 107.6875 384.25390625 C107.07648438 385.1046875 106.46546875 385.95546875 105.8359375 386.83203125 C105.37726854 387.6958608 104.91859959 388.55969034 104.44603157 389.44969654 C100.24051107 393.28823921 95.72379163 392.55193659 90.22286987 392.5275116 C88.42135489 392.54873666 88.42135489 392.54873666 86.58344567 392.57039052 C83.24791932 392.60435769 79.91369205 392.61581138 76.57808352 392.61758602 C72.9813365 392.62478781 69.38485289 392.66049653 65.78825378 392.69218445 C57.92239222 392.75578546 50.05667466 392.7817796 42.19059515 392.80004287 C37.27774384 392.8115893 32.36494174 392.83082438 27.45212173 392.85155678 C13.84672696 392.90770488 0.24137431 392.95500313 -13.36413765 392.96805859 C-14.23492686 392.96890485 -15.10571608 392.96975112 -16.00289284 392.97062303 C-17.76816964 392.97231362 -19.53344644 392.97400339 -21.29872324 392.97569235 C-22.17499808 392.97654347 -23.05127293 392.97739458 -23.95410156 392.97827148 C-24.83144781 392.97911632 -25.70879406 392.97996116 -26.61272655 392.9808316 C-40.8228978 392.99621107 -55.03192591 393.07556658 -69.24167193 393.18284794 C-83.83487835 393.29213627 -98.42751389 393.34882383 -113.02113712 393.35262185 C-121.21344357 393.35595427 -129.40430788 393.38162029 -137.59622574 393.46507835 C-144.57375838 393.53588761 -151.54937568 393.55839075 -158.52718993 393.51861652 C-162.08625317 393.49975194 -165.6414902 393.50320976 -169.20009422 393.56819916 C-191.51501448 393.95169169 -191.51501448 393.95169169 -197.00924301 388.95510292 C-199.90640775 385.54537143 -201.54361595 381.98596857 -203.1640625 377.83203125 C-203.56430696 376.92304675 -203.96455143 376.01406225 -204.37692451 375.07753277 C-206.60038347 369.07603714 -206.55997566 362.9177191 -206.42578125 356.58984375 C-206.41399338 355.5445047 -206.40220551 354.49916565 -206.39006042 353.42214966 C-206.23059062 342.8318574 -205.66280921 332.27424873 -204.9765625 321.70703125 C-204.8433585 319.57740687 -204.71039209 317.44776762 -204.57763672 315.31811523 C-202.7957624 287.09394932 -200.72799085 258.88805798 -198.66378689 230.68341446 C-198.2150823 224.54578113 -197.772947 218.40768668 -197.33215523 212.26948071 C-196.89699406 206.21346988 -196.45744907 200.15778707 -196.01464653 194.10233021 C-195.75444682 190.54325748 -195.49573591 186.98409636 -195.24151611 183.42459106 C-189.72396572 106.29944089 -189.72396572 106.29944089 -178.1640625 93.83203125 C-176.1640625 92.50390625 -176.1640625 92.50390625 -174.1640625 91.58203125 C-173.5040625 91.2675 -172.8440625 90.95296875 -172.1640625 90.62890625 C-168.58907832 89.20449849 -165.42271991 88.70770918 -161.57910156 88.71850586 C-160.22815399 88.71861916 -160.22815399 88.71861916 -158.84991455 88.71873474 C-157.88623962 88.72389603 -156.9225647 88.72905731 -155.9296875 88.734375 C-154.93652527 88.73578995 -153.94336304 88.7372049 -152.92010498 88.73866272 C-149.75139338 88.74425537 -146.58275271 88.75680655 -143.4140625 88.76953125 C-141.26432394 88.7745472 -139.11458427 88.77910994 -136.96484375 88.78320312 C-131.69789251 88.79422239 -126.43098257 88.81095325 -121.1640625 88.83203125 C-121.17453613 88.0320874 -121.18500977 87.23214355 -121.19580078 86.40795898 C-121.52848159 57.15099792 -120.22575823 30.89606504 -99.953125 7.68359375 C-72.92308058 -19.95216595 -31.43226207 -21.53692031 0 0 Z M-168.1640625 114.83203125 C-170.41748333 122.76716099 -170.78288858 131.30096701 -171.4609375 139.484375 C-171.57583704 140.82962313 -171.69107703 142.17484223 -171.80662537 143.52003479 C-172.11830619 147.17053965 -172.42224423 150.82164921 -172.72393417 154.47299194 C-172.91558668 156.7879416 -173.10912732 159.10272675 -173.3031311 161.41748047 C-176.30858818 197.33377589 -178.88745861 233.28077769 -181.36183167 269.23708344 C-181.88291021 276.80772928 -182.41706915 284.3771966 -182.96868896 291.94569397 C-184.37243662 311.26879269 -185.42803117 330.51533745 -185.4765625 349.89453125 C-185.48032898 350.72602692 -185.48409546 351.55752258 -185.48797607 352.41421509 C-185.49340197 354.73215327 -185.48285015 357.04932485 -185.46484375 359.3671875 C-185.45622314 360.67051025 -185.44760254 361.97383301 -185.4387207 363.31665039 C-184.9983283 369.02715558 -184.9983283 369.02715558 -182.1640625 373.83203125 C-177.82674978 374.3871812 -173.45099223 374.60387179 -169.08789062 374.88012695 C-168.39088326 374.92459666 -167.6938759 374.96906636 -166.97574711 375.01488364 C-146.57207061 376.272159 -126.14206313 376.1069757 -105.70856285 376.06775069 C-100.03980015 376.05880085 -94.37103884 376.06073082 -88.70227051 376.06111145 C-79.20189003 376.06018254 -69.701542 376.0516019 -60.20117188 376.0378418 C-49.28557 376.02208833 -38.37000343 376.01684545 -27.454391 376.01757735 C-15.71961686 376.01825733 -3.98485594 376.01129659 7.74991417 376.00213075 C11.08519416 376.00002024 14.42047197 375.99929247 17.75575256 375.99889183 C44.94812919 376.05943742 44.94812919 376.05943742 72.13085938 375.4465332 C73.01372871 375.41632426 73.89659805 375.38611532 74.80622101 375.35499096 C80.47881246 375.08870693 86.44475035 374.70389177 91.8359375 372.83203125 C94.26595178 369.18700983 94.1410894 366.47365755 94.13671875 362.2578125 C94.14240875 361.48570938 94.14809875 360.71360626 94.15396118 359.91810608 C94.16633547 357.32671573 94.15965096 354.73592328 94.1484375 352.14453125 C94.14470627 350.76832611 94.14470627 350.76832611 94.14089966 349.36431885 C94.05242959 327.9177948 92.71838579 306.61293971 91.15612793 285.23065186 C90.78989445 280.2115533 90.43081659 275.19194586 90.07128906 270.17236328 C89.1893025 257.87076451 88.29603487 245.56999997 87.3984375 233.26953125 C87.32543804 232.2675042 87.25243858 231.26547714 87.17722702 230.23308563 C85.47877851 206.93294504 83.69414771 183.64204858 81.72265625 160.36328125 C81.59936038 158.89878697 81.59936038 158.89878697 81.47357368 157.40470695 C80.21565231 142.51032362 78.75071929 127.65835427 76.8359375 112.83203125 C71.48932184 111.05085324 66.89093521 110.55959296 61.27734375 110.63671875 C60.48819077 110.63954865 59.69903778 110.64237854 58.88597107 110.64529419 C56.38996578 110.65640068 53.89433252 110.6814867 51.3984375 110.70703125 C49.69596876 110.7170734 47.99349434 110.72619708 46.29101562 110.734375 C42.13918174 110.75630865 37.98762248 110.79077148 33.8359375 110.83203125 C33.81611816 111.59346436 33.79629883 112.35489746 33.77587891 113.1394043 C33.68043828 116.59978597 33.57083538 120.0595798 33.4609375 123.51953125 C33.43 124.71771484 33.3990625 125.91589844 33.3671875 127.15039062 C33.30917969 128.88579102 33.30917969 128.88579102 33.25 130.65625 C33.2185791 131.71932373 33.1871582 132.78239746 33.15478516 133.87768555 C32.82879044 136.89825373 32.20266101 139.12560298 30.8359375 141.83203125 C27.94732041 143.2763398 26.03946049 143.20891631 22.8359375 142.83203125 C17.8359375 137.83203125 17.8359375 137.83203125 11.8359375 109.83203125 C-25.7840625 109.83203125 -63.4040625 109.83203125 -102.1640625 109.83203125 C-103.41806322 113.59403342 -104.44921952 116.77804541 -105.1640625 120.58203125 C-105.3290625 121.43796875 -105.4940625 122.29390625 -105.6640625 123.17578125 C-105.8290625 124.05234375 -105.9940625 124.92890625 -106.1640625 125.83203125 C-107.19434374 131.30540035 -108.23185925 136.58747957 -110.1640625 141.83203125 C-111.76521826 142.08136695 -113.37026409 142.30581773 -114.9765625 142.51953125 C-115.86988281 142.64714844 -116.76320313 142.77476562 -117.68359375 142.90625 C-120.1640625 142.83203125 -120.1640625 142.83203125 -121.92578125 141.6015625 C-124.03932273 138.58126505 -124.28339577 135.39932384 -124.41015625 131.78515625 C-124.44302734 131.02203125 -124.47589844 130.25890625 -124.50976562 129.47265625 C-124.57035883 127.89465457 -124.6277173 126.31652493 -124.68164062 124.73828125 C-124.79834554 116.19293282 -124.79834554 116.19293282 -128.1640625 108.83203125 C-149.41986827 107.37231295 -149.41986827 107.37231295 -168.1640625 114.83203125 Z " fill="#9B2486" transform="translate(254.1640625,19.16796875)"/>
<path d="M0 0 C3.03168783 2.62266645 5.86791606 5.40219456 8.6875 8.25 C9.40744141 8.94996094 10.12738281 9.64992188 10.86914062 10.37109375 C22.49831005 22.01086406 25.16986429 33.06546122 26.12304688 49.04882812 C26.73750112 58.02207441 28.30583124 65.9644333 30 75 C-8.61 75 -47.22 75 -87 75 C-87 66.97292021 -86.82405544 59.55962298 -85.75 51.6875 C-85.61432617 50.68984619 -85.47865234 49.69219238 -85.33886719 48.66430664 C-82.61653652 29.63718173 -77.59082882 12.87266306 -62.10546875 0.484375 C-45.26526933 -11.28603807 -16.40371114 -12.36226566 0 0 Z " fill="#FEFEFE" transform="translate(238,33)"/>
<path d="M0 0 C4.67248931 2.82522609 7.65996398 5.67760044 11 10 C8 10 8 10 5 8 C2.88719655 7.36707617 2.88719655 7.36707617 1 7 C1.33 6.67 1.66 6.34 2 6 C1.34 5.34 0.68 4.68 0 4 C0 2.68 0 1.36 0 0 Z " fill="#F7F9F7" transform="translate(232,29)"/>
<path d="M0 0 C1.19126781 3.57380342 0.7349445 5.50883302 0.0625 9.1875 C-0.13214844 10.27417969 -0.32679688 11.36085937 -0.52734375 12.48046875 C-0.68332031 13.31191406 -0.83929688 14.14335937 -1 15 C-3.80045623 11.85408067 -4.35261589 9.932936 -4.1875 5.75 C-4.16042969 4.85796875 -4.13335937 3.9659375 -4.10546875 3.046875 C-4.07066406 2.37140625 -4.03585938 1.6959375 -4 1 C-2.68 1.33 -1.36 1.66 0 2 C0 1.34 0 0.68 0 0 Z " fill="#932981" transform="translate(150,132)"/>
<path d="M0 0 C-0.38597015 2.79828356 -0.80136573 3.8205884 -2.9375 5.75 C-5 7 -5 7 -7 7 C-7.33 5.02 -7.66 3.04 -8 1 C-5.10765685 0.17361624 -3.11257569 0 0 0 Z " fill="#F7F8F6" transform="translate(104,129)"/>
<path d="M0 0 C0.33 0 0.66 0 1 0 C1.33 1.65 1.66 3.3 2 5 C2.99 5 3.98 5 5 5 C5 8.19398323 4.48985551 9.26859824 3 12 C2.34 13.32 1.68 14.64 1 16 C0.67 10.72 0.34 5.44 0 0 Z " fill="#8A377D" transform="translate(336,187)"/>
<path d="M0 0 C3.24299151 2.38957269 5.50902342 4.2047869 7 8 C5.35 8.33 3.7 8.66 2 9 C1.01 6.36 0.02 3.72 -1 1 C-0.67 0.67 -0.34 0.34 0 0 Z " fill="#F4F8F7" transform="translate(250,46)"/>
<path d="M0 0 C2.5 0.3125 2.5 0.3125 5 1 C5.33 1.66 5.66 2.32 6 3 C4.02 4.32 2.04 5.64 0 7 C-0.66 6.67 -1.32 6.34 -2 6 C-1.125 1.125 -1.125 1.125 0 0 Z " fill="#932B81" transform="translate(333,112)"/>
<path d="M0 0 C1.60031344 3.20062687 0.03173691 5.72271806 -1 9 C-1.99 9 -2.98 9 -4 9 C-4.33 9.99 -4.66 10.98 -5 12 C-5.66 12 -6.32 12 -7 12 C-5.44298069 7.32894208 -2.91552627 3.91294315 0 0 Z " fill="#90337D" transform="translate(151,31)"/>
<path d="M0 0 C3 1 3 1 5 3 C5.33 2.34 5.66 1.68 6 1 C6.66 1 7.32 1 8 1 C8.33 1.99 8.66 2.98 9 4 C8.01 4.495 8.01 4.495 7 5 C7 6.65 7 8.3 7 10 C4.3513141 6.80331012 2.06007659 3.60513403 0 0 Z " fill="#912D80" transform="translate(253,48)"/>
<path d="M0 0 C0.28875 0.598125 0.5775 1.19625 0.875 1.8125 C2.04742026 4.19327792 2.04742026 4.19327792 4 7 C4 7.99 4 8.98 4 10 C2.68 10.33 1.36 10.66 0 11 C-1.05404945 7.01803543 -0.84098656 4.01804691 0 0 Z " fill="#F4F8F5" transform="translate(129,155)"/>
<path d="M0 0 C0.66 0 1.32 0 2 0 C2.66 0.99 3.32 1.98 4 3 C4.99 3.33 5.98 3.66 7 4 C7.33 4.99 7.66 5.98 8 7 C6.02 7.99 6.02 7.99 4 9 C2.68 6.03 1.36 3.06 0 0 Z " fill="#F3F7F5" transform="translate(272,40)"/>
<path d="M0 0 C0.33 0.66 0.66 1.32 1 2 C1.99 2 2.98 2 4 2 C4.33 1.34 4.66 0.68 5 0 C5 2.31 5 4.62 5 7 C4.01 7 3.02 7 2 7 C0 5 0 5 -0.125 2.375 C-0.08375 1.59125 -0.0425 0.8075 0 0 Z " fill="#953784" transform="translate(146,101)"/>
<path d="M0 0 C0.89130413 2.6739124 1.47731534 5.23723823 2 8 C-0.475 9.485 -0.475 9.485 -3 11 C-2.69078116 9.54096742 -2.37751201 8.08279278 -2.0625 6.625 C-1.88847656 5.81289063 -1.71445313 5.00078125 -1.53515625 4.1640625 C-1 2 -1 2 0 0 Z " fill="#8E3680" transform="translate(140,49)"/>
<path d="M0 0 C2.1755306 2.1755306 2.71879553 3.55973892 3.6875 6.4375 C3.95949219 7.21996094 4.23148437 8.00242187 4.51171875 8.80859375 C5 11 5 11 4 14 C3 13 3 13 2.9375 10.4375 C2.958125 9.633125 2.97875 8.82875 3 8 C2.34 8 1.68 8 1 8 C-0.35439668 5.29120665 -0.06501451 2.99066732 0 0 Z " fill="#88357A" transform="translate(275,47)"/>
<path d="M0 0 C0.33 0.99 0.66 1.98 1 3 C-0.98 3.33 -2.96 3.66 -5 4 C-5.66 2.68 -6.32 1.36 -7 0 C-4.3333581 -1.33332095 -2.83319697 -0.67102033 0 0 Z " fill="#F5F8F7" transform="translate(56,403)"/>
<path d="M0 0 C0.66 0 1.32 0 2 0 C3.23076923 5.41538462 3.23076923 5.41538462 2.0625 8.375 C1.711875 8.91125 1.36125 9.4475 1 10 C0 9 0 9 -0.09765625 6.93359375 C-0.08605469 6.10988281 -0.07445312 5.28617187 -0.0625 4.4375 C-0.05347656 3.61121094 -0.04445313 2.78492188 -0.03515625 1.93359375 C-0.02355469 1.29550781 -0.01195312 0.65742188 0 0 Z " fill="#8C337D" transform="translate(344,291)"/>
<path d="M0 0 C-0.375 1.9375 -0.375 1.9375 -1 4 C-3.70879335 5.35439668 -6.00933268 5.06501451 -9 5 C-7.68 4.67 -6.36 4.34 -5 4 C-5.33 3.01 -5.66 2.02 -6 1 C-3 0 -3 0 0 0 Z " fill="#944087" transform="translate(286,158)"/>
<path d="M0 0 C0.33 0.99 0.66 1.98 1 3 C-0.98 3.66 -2.96 4.32 -5 5 C-5.33 4.34 -5.66 3.68 -6 3 C-3.375 0 -3.375 0 0 0 Z " fill="#F3F4F3" transform="translate(94,131)"/>
<path d="M0 0 C0.33 0 0.66 0 1 0 C1 3.3 1 6.6 1 10 C0.34 10 -0.32 10 -1 10 C-1.9765625 3.9453125 -1.9765625 3.9453125 -2 2 C-1.34 1.34 -0.68 0.68 0 0 Z " fill="#883079" transform="translate(83,145)"/>
<path d="M0 0 C0.66 0.33 1.32 0.66 2 1 C-0.52956528 4.0916909 -3.22454612 4.90931332 -7 6 C-7 4.35 -7 2.7 -7 1 C-6.01 1.495 -6.01 1.495 -5 2 C-4.01 1.67 -3.02 1.34 -2 1 C-1.34 1.33 -0.68 1.66 0 2 C0 1.34 0 0.68 0 0 Z " fill="#8B2A7C" transform="translate(186,26)"/>
<path d="M0 0 C0.66 0.66 1.32 1.32 2 2 C2.66 1.67 3.32 1.34 4 1 C4.6875 2.8125 4.6875 2.8125 5 5 C3.5625 6.75 3.5625 6.75 2 8 C0.74335022 5.09399739 0 3.20395416 0 0 Z " fill="#8C2E7D" transform="translate(49,389)"/>
<path d="M0 0 C1.32 0.33 2.64 0.66 4 1 C4 2.65 4 4.3 4 6 C2.68 6.33 1.36 6.66 0 7 C0 4.69 0 2.38 0 0 Z " fill="#873379" transform="translate(346,321)"/>
<path d="M0 0 C-1.32 1.32 -2.64 2.64 -4 4 C-4 3.34 -4 2.68 -4 2 C-5.32 1.67 -6.64 1.34 -8 1 C-4.93251126 -0.86240388 -3.40254489 -1.2151946 0 0 Z " fill="#F1F4F2" transform="translate(199,27)"/>
<path d="M0 0 C0.99 0.99 1.98 1.98 3 3 C2.67 3.66 2.34 4.32 2 5 C-0.0625 5.625 -0.0625 5.625 -2 6 C-2.33 5.34 -2.66 4.68 -3 4 C-2.67 3.34 -2.34 2.68 -2 2 C-1.34 2 -0.68 2 0 2 C0 1.34 0 0.68 0 0 Z " fill="#F4F7F6" transform="translate(125,128)"/>
<path d="M0 0 C0.33 0 0.66 0 1 0 C1 2.97 1 5.94 1 9 C0.01 9.33 -0.98 9.66 -2 10 C-1.46274105 6.62294375 -0.88935377 3.303314 0 0 Z " fill="#8E4D85" transform="translate(76,235)"/>
<path d="M0 0 C1.10844919 3.32534757 0.84454356 5.62182575 0 9 C-1.5625 7.25 -1.5625 7.25 -3 5 C-2.8125 2.8125 -2.8125 2.8125 -2 1 C-1.34 0.67 -0.68 0.34 0 0 Z " fill="#8B457D" transform="translate(149,138)"/>
<path d="M0 0 C1.98 0.495 1.98 0.495 4 1 C3.34 2.65 2.68 4.3 2 6 C1.01 6 0.02 6 -1 6 C-0.67 4.02 -0.34 2.04 0 0 Z " fill="#913683" transform="translate(356,403)"/>
<path d="M0 0 C0.99 0 1.98 0 3 0 C3.66 1.65 4.32 3.3 5 5 C4.01 5 3.02 5 2 5 C1.34 4.34 0.68 3.68 0 3 C0 2.01 0 1.02 0 0 Z " fill="#8B2176" transform="translate(67,389)"/>
<path d="M0 0 C0.33 0 0.66 0 1 0 C1.66 2.97 2.32 5.94 3 9 C2.01 9 1.02 9 0 9 C0 6.03 0 3.06 0 0 Z " fill="#832B74" transform="translate(59,206)"/>
<path d="M0 0 C0.66 0.33 1.32 0.66 2 1 C1.01 1.99 0.02 2.98 -1 4 C-1.66 3.34 -2.32 2.68 -3 2 C-2.01 1.34 -1.02 0.68 0 0 Z M-5 3 C-4.34 3.33 -3.68 3.66 -3 4 C-3.66 4.66 -4.32 5.32 -5 6 C-5.99 5.67 -6.98 5.34 -8 5 C-7.01 4.34 -6.02 3.68 -5 3 Z " fill="#EFF3F1" transform="translate(182,30)"/>
</svg>
