<?xml version="1.0" encoding="UTF-8"?>
<svg version="1.1" xmlns="http://www.w3.org/2000/svg" width="338" height="338">
<path d="M0 0 C111.54 0 223.08 0 338 0 C338 111.54 338 223.08 338 338 C226.46 338 114.92 338 0 338 C0 226.46 0 114.92 0 0 Z " fill="#FEFEFE" transform="translate(0,0)"/>
<path d="M0 0 C52.37941224 -0.09284517 52.37941224 -0.09284517 75.37109375 0.37231445 C78.75511826 0.44010666 82.13923202 0.49864613 85.5234375 0.55664062 C96.70920498 0.76132817 107.84823585 1.0712561 119 2 C120.82553969 69.65062695 121.19895854 137.32838215 121 205 C120.41863785 205.00808685 119.8372757 205.01617371 119.23829651 205.02450562 C113.15417654 205.11096942 107.07036683 205.21048817 100.98657227 205.31738281 C98.72002396 205.35552223 96.45341823 205.39040057 94.18676758 205.421875 C90.91727254 205.4678534 87.64816775 205.52579266 84.37890625 205.5859375 C82.87367149 205.60326431 82.87367149 205.60326431 81.33802795 205.62094116 C75.5029127 205.74167423 69.52176458 205.91770038 64 208 C61.86055287 210.43254401 61.86055287 210.43254401 60.6875 213.625 C57.5909251 220.15899059 53.79248063 225.57420055 49.3503418 231.26611328 C41.68599797 241.09755481 41.68599797 241.09755481 39 253 C39.78375 253.350625 40.5675 253.70125 41.375 254.0625 C44.16597588 256.12250601 44.97926888 257.42193922 45.71875 260.78515625 C46.77062786 269.0686944 46.27096497 276.28986829 43 284 C42.01 284 41.02 284 40 284 C37.46089145 278.92178289 36.61489936 274.81372013 36.40625 269.13671875 C36.2721875 268.43160156 36.138125 267.72648437 36 267 C29.26390345 262.50926897 19.22689044 263.84063168 11.3671875 263.83203125 C10.29050812 263.82870285 9.21382874 263.82537445 8.10452271 263.82194519 C5.84393741 263.81691393 3.58334479 263.81453568 1.32275391 263.81469727 C-2.12219437 263.81250179 -5.56682657 263.79428086 -9.01171875 263.77539062 C-11.21874892 263.77245763 -13.42578059 263.77047221 -15.6328125 263.76953125 C-17.16435471 263.75875298 -17.16435471 263.75875298 -18.72683716 263.74775696 C-27.9516262 263.45913968 -27.9516262 263.45913968 -36 267 C-36.37257052 269.13936977 -36.69850082 271.28696285 -37 273.4375 C-37.89160305 279.78320611 -37.89160305 279.78320611 -39 282 C-40.8125 281.9375 -40.8125 281.9375 -43 281 C-47.28047621 274.57928569 -46.65286353 266.4358613 -46 259 C-45.04852149 256.5608284 -44.31429865 255.3017267 -42.4375 253.5 C-36.82248059 247.64084931 -38.91763646 233.35351377 -38.7890625 225.6484375 C-38.77470154 224.81693176 -38.76034058 223.98542603 -38.74554443 223.12872314 C-38.68859772 219.68889579 -38.63398329 216.24920713 -38.59863281 212.80908203 C-38.30126321 185.9791662 -34.37562789 164.80327333 -15 145 C-13.04626162 143.19928667 -11.06593531 141.45981573 -9.01953125 139.765625 C-8.35308594 139.18296875 -7.68664062 138.6003125 -7 138 C-5.98428925 137.23754974 -4.96857849 136.47509949 -3.92208862 135.68954468 C-0.14554221 131.85436607 -0.26728792 128.06553076 -0.1900177 122.87658691 C-0.20223862 121.66386108 -0.21445953 120.45113525 -0.22705078 119.20166016 C-0.21642105 117.91331268 -0.20579132 116.62496521 -0.19483948 115.2975769 C-0.16646511 111.77708628 -0.17473402 108.25753345 -0.18970728 104.73699617 C-0.19910138 101.05335571 -0.1746238 97.36994195 -0.15377808 93.68637085 C-0.11946204 86.71662143 -0.1154967 79.74720023 -0.12250316 72.77738321 C-0.12899929 64.84017347 -0.10155764 56.90319376 -0.07130075 48.96605229 C-0.00983849 32.64399404 0.00912007 16.32217468 0 0 Z " fill="#992585" transform="translate(117,25)"/>
<path d="M0 0 C7.9017126 4.88203455 13.47066198 10.9605774 16.6328125 19.74609375 C20.04594701 35.62594454 18.93935394 52.65701257 18.89355469 68.82202148 C18.88217049 72.86717326 18.88894666 76.912062 18.90039825 80.95720482 C18.96964483 109.40637589 18.96964483 109.40637589 17.8671875 121 C17.80646057 121.70108383 17.74573364 122.40216766 17.6831665 123.12449646 C16.68411108 131.56572293 12.67136818 137.64700028 6.19921875 142.9140625 C-5.49779659 151.26398669 -18.40800265 150.94816003 -32.3671875 149.74609375 C-33.0271875 149.41609375 -33.6871875 149.08609375 -34.3671875 148.74609375 C-34.04999186 143.98815922 -32.92016452 140.59930703 -30.8046875 136.30859375 C-27.79299338 129.9185645 -27.37511187 125.3944524 -29.4921875 118.55859375 C-31.25244243 114.530623 -33.18314531 111.41943427 -37.3671875 109.74609375 C-39.97278098 109.44594473 -42.4895041 109.23333026 -45.1015625 109.1171875 C-45.80007324 109.07879761 -46.49858398 109.04040771 -47.21826172 109.00085449 C-48.93414458 108.90772752 -50.65062889 108.82580062 -52.3671875 108.74609375 C-52.41389759 99.26092702 -52.44925042 89.77580096 -52.47081184 80.29054356 C-52.48116956 75.88432767 -52.49517882 71.47819151 -52.51806641 67.07202148 C-52.54008505 62.80555903 -52.55181602 58.53917237 -52.55694199 54.27265739 C-52.56058647 52.65949246 -52.56769976 51.04633083 -52.57864761 49.43319893 C-52.63328938 41.03403466 -52.42301976 32.76541402 -51.46826172 24.41381836 C-51.38897997 23.71238236 -51.30969822 23.01094637 -51.22801399 22.28825474 C-50.21305305 14.29218303 -47.48608944 9.11878813 -41.3671875 3.74609375 C-40.6453125 3.06546875 -39.9234375 2.38484375 -39.1796875 1.68359375 C-27.38357622 -6.44261624 -12.59138243 -6.66969267 0 0 Z " fill="#FCFCFC" transform="translate(194.3671875,54.25390625)"/>
<path d="M0 0 C0.33 0 0.66 0 1 0 C1.88450926 23.9308895 1.88450926 23.9308895 -7 34 C-8.97310836 37.21928206 -9.49216457 40.2758735 -10 44 C0.44610516 37.34544412 8.95686637 28.33439106 17 19 C30.47321429 3.4083558 30.47321429 3.4083558 38 0 C40.375 0.125 40.375 0.125 42 1 C43.90731216 4.81462431 43.57901862 8.8522224 43 13 C40.68136904 19.23546111 37.2258043 24.71081662 33.5 30.1875 C26.31471667 41.29778391 23.41824273 54.34163678 20.82373047 67.16137695 C19.06991349 75.59821702 16.61090758 83.45603826 11.3125 90.375 C9.12013221 93.25747072 7.61610082 95.40197119 7 99 C10.63622446 98.88981138 12.7065474 97.69132829 15.3125 95.3125 C22.58595217 87.56262083 27.26598377 77.66259438 30.11328125 67.5234375 C31.05648423 64.83925635 32.08161153 63.09364865 34 61 C37.55290564 59.81569812 40.80250456 59.81602142 44.5 59.8125 C45.51513672 59.79413086 45.51513672 59.79413086 46.55078125 59.77539062 C50.26357044 59.76440604 51.82983076 59.88655384 55 62 C55 69.54405748 50.69196557 73.4642692 46 79 C36.96743018 90.37301275 36.96743018 90.37301275 30.875 103.4375 C30 106 30 106 27 108 C23.60460324 108.88491103 20.43352603 109.12256725 16.93432617 109.11352539 C15.95368698 109.11344986 14.97304779 109.11337433 13.96269226 109.11329651 C12.9166835 109.10813522 11.87067474 109.10297394 10.79296875 109.09765625 C9.17217155 109.09553383 9.17217155 109.09553383 7.51863098 109.09336853 C4.07489224 109.0877808 0.63121902 109.0752305 -2.8125 109.0625 C-5.15038968 109.05748342 -7.48828039 109.05292079 -9.82617188 109.04882812 C-15.55080353 109.03781538 -21.27539708 109.02108941 -27 109 C-27.06988883 100.21080618 -27.12300682 91.42170983 -27.15543652 82.63229752 C-27.17101078 78.54984892 -27.1920959 74.46759215 -27.22631836 70.38525391 C-27.25920907 66.43651222 -27.27691475 62.48795362 -27.28463173 58.53908539 C-27.29012248 57.04178745 -27.30084251 55.54449812 -27.31719017 54.04727936 C-27.46068948 40.34441517 -26.52482116 29.36879266 -17 19 C-16.10263705 18.00801829 -15.20551624 17.01581749 -14.30859375 16.0234375 C-12.41804734 13.94325395 -10.51300502 11.87766242 -8.59765625 9.8203125 C-6.46449932 7.50431355 -4.39971172 5.16013877 -2.375 2.75 C-1.59125 1.8425 -0.8075 0.935 0 0 Z " fill="#FDFDFD" transform="translate(115,170)"/>
<path d="M0 0 C34.32 0 68.64 0 104 0 C104 61.71 104 123.42 104 187 C28 187 28 187 22 184 C22.33 183.01 22.66 182.02 23 181 C33.15158709 179.0988846 43.1890841 178.64823213 53.49560547 178.42993164 C65.80968232 178.4698596 65.80968232 178.4698596 76.75 173.875 C77.4925 172.92625 78.235 171.9775 79 171 C83.14918975 165.84074497 85.6136161 163.07928778 92 161 C95.90981344 153.36655471 95.18737944 143.04057957 95.3515625 134.65966797 C95.38792313 133.01134727 95.38792313 133.01134727 95.42501831 131.32972717 C95.6356648 121.23933798 95.76271203 111.14766109 95.85931396 101.05558586 C95.92554167 94.2923832 96.0201678 87.53205547 96.18652344 80.77050781 C96.3480347 74.20492204 96.42918961 67.64114956 96.46209717 61.07364273 C96.48712623 58.58482024 96.53809738 56.09610729 96.61651611 53.60839462 C97.31408352 37.63671827 97.31408352 37.63671827 89.91906738 24.09897041 C80.40118758 14.97027624 70.55854917 8.65536022 57.0546875 8.734375 C56.32178497 8.73246155 55.58888245 8.7305481 54.83377075 8.72857666 C53.29591526 8.72722452 51.75804796 8.73085259 50.22021484 8.73925781 C47.87441339 8.75000269 45.52937222 8.73931396 43.18359375 8.7265625 C41.68228999 8.72788366 40.1809867 8.73044517 38.6796875 8.734375 C37.63577347 8.72830231 37.63577347 8.72830231 36.57077026 8.72210693 C32.62549325 8.75992206 29.49738916 9.1178142 26 11 C24.36192458 13.50508025 24.36192458 13.50508025 23.125 16.4375 C20.05350053 22.54866993 20.05350053 22.54866993 16.25 23.9375 C15.1775 24.288125 14.105 24.63875 13 25 C6.15302364 34.02555975 8.85041668 54.23419306 8.77020454 65.41448212 C8.75331009 67.68965976 8.73007393 69.96470217 8.70530701 72.23980713 C8.63581992 78.69593139 8.57485669 85.15210685 8.52319336 91.60839844 C8.15774959 136.12389664 8.15774959 136.12389664 5 147 C4.34 147 3.68 147 3 147 C-1.81768019 114.67944649 -0.1216796 81.24727769 -0.0625 48.6875 C-0.041875 32.620625 -0.02125 16.55375 0 0 Z " fill="#FBFBFB" transform="translate(125,34)"/>
<path d="M0 0 C8.42626029 5.98802327 13.54676653 14.23587755 15.41796875 24.49609375 C15.76854355 30.87981625 14.58559189 35.26464238 10.671875 40.3359375 C3.7888951 47.71683509 -3.47073894 51.35615726 -13.5390625 51.8046875 C-20.91509458 51.60810727 -26.43893458 49.55628221 -32.0078125 44.6953125 C-38.41509252 37.84831719 -39.74364391 30.70605669 -39.51953125 21.49609375 C-38.78210237 14.87544109 -35.87873427 9.01935927 -31.1640625 4.3046875 C-22.02264329 -2.42386784 -10.48323209 -6.20436185 0 0 Z " fill="#942782" transform="translate(189.1640625,102.6953125)"/>
<path d="M0 0 C4.10524693 2.3758382 5.99602824 4.73808472 7.5 9.25 C8.17200675 16.68614031 8.07701087 23.10288184 3.5 29.25 C-1.00466167 33.64204513 -4.67319604 34.39579682 -10.8125 34.5 C-16.44877757 34.4249497 -20.7451733 33.8756942 -25 29.8203125 C-28.76529369 25.52017596 -29.82816049 22.11880228 -29.703125 16.4296875 C-29.02533557 9.15648552 -25.96829532 5.19617736 -20.4375 0.59765625 C-14.70410523 -3.39028971 -6.12437004 -2.89742924 0 0 Z " fill="#FCFDFC" transform="translate(187.5,110.75)"/>
<path d="M0 0 C0.02314185 12.98656493 0.04092453 25.97312498 0.05181217 38.95970631 C0.05703695 44.98950235 0.06412729 51.01928432 0.07543945 57.04907227 C0.08628266 62.86510545 0.0922799 68.68112507 0.09487724 74.49716759 C0.09672889 76.71918641 0.10034456 78.94120447 0.10573006 81.16321754 C0.11295945 84.26874029 0.11399013 87.37420656 0.11352539 90.47973633 C0.11712067 91.40402435 0.12071594 92.32831238 0.12442017 93.28060913 C0.1230455 94.12614853 0.12167084 94.97168793 0.12025452 95.84284973 C0.12117631 96.57751874 0.1220981 97.31218775 0.12304783 98.06911945 C0 100 0 100 -1 103 C-1.66 103 -2.32 103 -3 103 C-3 102.01 -3 101.02 -3 100 C-3.66 100 -4.32 100 -5 100 C-5.33 102.64 -5.66 105.28 -6 108 C-6.66 107.67 -7.32 107.34 -8 107 C-8.15363306 94.12660873 -8.3018149 81.25316751 -8.4429636 68.37963295 C-8.50867165 62.40246765 -8.57628448 56.42533635 -8.64819336 50.44824219 C-8.71747078 44.68412925 -8.78181935 38.91998075 -8.84269524 33.15577316 C-8.8668416 30.95244714 -8.89278876 28.74914012 -8.92053413 26.54585648 C-8.95897893 23.46891504 -8.99112202 20.39196936 -9.02172852 17.31494141 C-9.03467453 16.39640884 -9.04762054 15.47787628 -9.06095886 14.5315094 C-9.11405216 8.22810432 -9.11405216 8.22810432 -8 6 C-8.28112064 3.99199544 -8.61067967 1.98985949 -9 0 C-5.35661658 -2.42892228 -3.85301238 -1.72522943 0 0 Z " fill="#9D2088" transform="translate(221,65)"/>
<path d="M0 0 C0.33 0 0.66 0 1 0 C2.0160634 4.62873326 2.19585292 8.38742445 1 13 C-1.125 14.9375 -1.125 14.9375 -4 17 C-5.74514236 18.85367111 -7.38344051 20.78150791 -9.03515625 22.71875 C-11.20280165 25.23545957 -13.44245419 27.67719964 -15.6875 30.125 C-26.37752905 42.10364036 -27.44744513 53.97563492 -27.51171875 69.484375 C-27.52860487 71.0366555 -27.54676025 72.58892265 -27.56611633 74.14117432 C-27.6131964 78.18517889 -27.64327518 82.22912936 -27.66955566 86.27331543 C-27.69957571 90.41669397 -27.74603109 94.55988669 -27.79101562 98.703125 C-27.87656955 106.8019911 -27.94412511 114.90087496 -28 123 C-28.33 123 -28.66 123 -29 123 C-29.33 103.2 -29.66 83.4 -30 63 C-30.99 63.99 -30.99 63.99 -32 65 C-34.125 65.625 -34.125 65.625 -36 66 C-35.34 65.01 -34.68 64.02 -34 63 C-33.34 63 -32.68 63 -32 63 C-32.33 62.34 -32.66 61.68 -33 61 C-33.99 61 -34.98 61 -36 61 C-35.32398312 40.04347678 -26.52954671 24.96665526 -11.65234375 10.7578125 C-10.36714081 9.64347469 -9.06896001 8.54379183 -7.75390625 7.46484375 C-5.90913211 5.92410811 -4.24152505 4.28121831 -2.5625 2.5625 C-1.716875 1.716875 -0.87125 0.87125 0 0 Z " fill="#922880" transform="translate(116,157)"/>
<path d="M0 0 C4.42504534 -0.0251577 8.85005022 -0.04307066 13.27514648 -0.05493164 C14.77320076 -0.05988838 16.27125039 -0.06665574 17.76928711 -0.07543945 C27.89676176 -0.13323303 37.90263673 0.18049582 48 1 C48.29296875 9.3984375 48.29296875 9.3984375 48 12 C47.01 12.66 46.02 13.32 45 14 C44.01 13.01 43.02 12.02 42 11 C42 71.72 42 132.44 42 195 C41.67 195 41.34 195 41 195 C41 133.29 41 71.58 41 8 C6.68 8 -27.64 8 -63 8 C-63 7.67 -63 7.34 -63 7 C-41.55 6.67 -20.1 6.34 2 6 C1.01 5.34 0.02 4.68 -1 4 C-0.67 2.68 -0.34 1.36 0 0 Z " fill="#905486" transform="translate(188,26)"/>
<path d="M0 0 C0.86625 0.5259375 0.86625 0.5259375 1.75 1.0625 C4.40158116 2.16732548 5.32733014 1.80180096 8 1 C8.66 1.33 9.32 1.66 10 2 C9.78537109 3.7015625 9.78537109 3.7015625 9.56640625 5.4375 C9.00161568 9.95582457 8.46657669 14.47737409 7.9375 19 C7.84662109 19.77472656 7.75574219 20.54945312 7.66210938 21.34765625 C7.44113668 23.23173924 7.22052943 25.11586508 7 27 C6.67 27 6.34 27 6 27 C6 24.03 6 21.06 6 18 C5.34 18 4.68 18 4 18 C4 16.68 4 15.36 4 14 C2.68 14 1.36 14 0 14 C-0.02505615 15.22178955 -0.0501123 16.4435791 -0.07592773 17.70239258 C-0.54635427 40.47542861 -1.02065546 63.24204825 -2 86 C-2.33 86 -2.66 86 -3 86 C-3.02339055 78.19254137 -3.04104893 70.38509128 -3.05181217 62.5776062 C-3.05698352 58.95048771 -3.0639737 55.32339355 -3.07543945 51.69628906 C-3.20284407 10.24910101 -3.20284407 10.24910101 0 0 Z " fill="#934185" transform="translate(136,61)"/>
<path d="M0 0 C2.0625 0.4375 2.0625 0.4375 4 1 C4 2.32 4 3.64 4 5 C4.66 5 5.32 5 6 5 C6.04946866 9.07507572 6.08575189 13.15003497 6.10986328 17.2253418 C6.1199157 18.61144048 6.1335597 19.99751799 6.15087891 21.38354492 C6.17515952 23.3766975 6.18542031 25.37000533 6.1953125 27.36328125 C6.20578613 28.56251221 6.21625977 29.76174316 6.22705078 30.99731445 C6 34 6 34 4 37 C3.01 36.67 2.02 36.34 1 36 C0.01 36.495 0.01 36.495 -1 37 C-1.0246501 31.89136104 -1.04283607 26.78275641 -1.05493164 21.67407227 C-1.05997204 19.93480832 -1.0668043 18.19554864 -1.07543945 16.45629883 C-1.08751792 13.96174063 -1.09323108 11.46723827 -1.09765625 8.97265625 C-1.10281754 8.19036148 -1.10797882 7.40806671 -1.11329651 6.60206604 C-1.11349226 4.73432886 -1.06199694 2.86670796 -1 1 C-0.67 0.67 -0.34 0.34 0 0 Z " fill="#9F2089" transform="translate(136,74)"/>
<path d="M0 0 C0.99 0 1.98 0 3 0 C4.8125 1.9375 4.8125 1.9375 6 5 C5.70303223 6.21421631 5.40606445 7.42843262 5.10009766 8.67944336 C3.39199353 15.7429082 3.64117749 22.96806067 3.5859375 30.19140625 C3.56719739 31.74797052 3.54762192 33.30452493 3.5272522 34.86106873 C3.47622493 38.92976026 3.43644318 42.99848463 3.39910889 47.06732178 C3.35888338 51.23050867 3.30787628 55.39356248 3.2578125 59.55664062 C3.16140207 67.7043357 3.07688733 75.8520974 3 84 C2.67 84 2.34 84 2 84 C1.67 64.2 1.34 44.4 1 24 C0.34 24.66 -0.32 25.32 -1 26 C-3.125 26.625 -3.125 26.625 -5 27 C-4.01 25.515 -4.01 25.515 -3 24 C-2.34 24 -1.68 24 -1 24 C-1.33 23.34 -1.66 22.68 -2 22 C-2.99 22 -3.98 22 -5 22 C-4.88521587 19.93690624 -4.75773802 17.87451646 -4.625 15.8125 C-4.55539063 14.66394531 -4.48578125 13.51539063 -4.4140625 12.33203125 C-3.84190383 7.72777331 -2.11577677 4.08042662 0 0 Z " fill="#75406A" transform="translate(85,196)"/>
<path d="M0 0 C0.33 0 0.66 0 1 0 C1.33 2.64 1.66 5.28 2 8 C2.66 5.69 3.32 3.38 4 1 C4.66 1 5.32 1 6 1 C6 1.99 6 2.98 6 4 C6.66 4 7.32 4 8 4 C8.33 3.01 8.66 2.02 9 1 C9.09579384 9.07861415 9.12513633 16.98340366 8 25 C7.67 23.68 7.34 22.36 7 21 C2.05 22.485 2.05 22.485 -3 24 C-2.86722656 23.27296875 -2.73445312 22.5459375 -2.59765625 21.796875 C-1.32340655 14.54202272 -0.49508139 7.34805008 0 0 Z " fill="#8E2C7E" transform="translate(212,164)"/>
<path d="M0 0 C0.36314325 2.74908445 0.71580841 5.49883451 1.0625 8.25 C1.16626953 9.02730469 1.27003906 9.80460938 1.37695312 10.60546875 C1.47041016 11.35957031 1.56386719 12.11367187 1.66015625 12.890625 C1.74918213 13.58188477 1.83820801 14.27314453 1.92993164 14.98535156 C2.00606235 17.17430848 1.6249336 18.91005813 1 21 C-0.65 20.67 -2.3 20.34 -4 20 C-4 18.68 -4 17.36 -4 16 C-4.99 16 -5.98 16 -7 16 C-7.66 18.97 -8.32 21.94 -9 25 C-9.33 25 -9.66 25 -10 25 C-10.66442953 7.92170022 -10.66442953 7.92170022 -7 1 C-4 0 -4 0 0 0 Z " fill="#9B2988" transform="translate(126,159)"/>
<path d="M0 0 C0.66 0.33 1.32 0.66 2 1 C0.66395666 10.25083171 -5.56768693 18.12073192 -12.0078125 24.57421875 C-14.33098467 26.23688118 -16.19095831 26.63550497 -19 27 C-19.33 26.01 -19.66 25.02 -20 24 C-18.70703125 21.6171875 -18.70703125 21.6171875 -16.8125 18.875 C-13.98058738 14.62713107 -11.71651383 10.51236266 -9.82421875 5.77734375 C-9 4 -9 4 -7 2 C-7.33 3.98 -7.66 5.96 -8 8 C-7.34 8 -6.68 8 -6 8 C-5.67 8.99 -5.34 9.98 -5 11 C-4.34 11 -3.68 11 -3 11 C-3.226875 10.4225 -3.45375 9.845 -3.6875 9.25 C-4 7 -4 7 -2.625 4.9375 C-2.08875 4.298125 -1.5525 3.65875 -1 3 C-0.67 2.01 -0.34 1.02 0 0 Z " fill="#952B84" transform="translate(141,243)"/>
<path d="M0 0 C0.33 0 0.66 0 1 0 C1.33 2.97 1.66 5.94 2 9 C2.33 9 2.66 9 3 9 C3 20.88 3 32.76 3 45 C1.515 45.495 1.515 45.495 0 46 C0.33 47.32 0.66 48.64 1 50 C-0.65 50.66 -2.3 51.32 -4 52 C-3.690625 51.113125 -3.38125 50.22625 -3.0625 49.3125 C-0.0092485 38.52434472 -0.74668446 26.35221379 -0.4375 15.1875 C-0.39416168 13.70506987 -0.35054344 12.2226479 -0.30664062 10.74023438 C-0.2012123 7.16024412 -0.09952889 3.58015971 0 0 Z " fill="#8C317C" transform="translate(79,228)"/>
<path d="M0 0 C1.0160634 4.62873326 1.19585292 8.38742445 0 13 C-2.125 14.9375 -2.125 14.9375 -5 17 C-6.80701855 19.08999684 -8.54108527 21.22289775 -10.25390625 23.390625 C-12 25 -12 25 -16 25 C-15.01 24.67 -14.02 24.34 -13 24 C-13 23.01 -13 22.02 -13 21 C-12.34 21 -11.68 21 -11 21 C-11.0928125 19.63875 -11.0928125 19.63875 -11.1875 18.25 C-10.97718385 14.60452008 -10.20260049 13.75325062 -8 11 C-8 9.68 -8 8.36 -8 7 C-6.50390625 5.078125 -6.50390625 5.078125 -4.5625 3.25 C-3.92441406 2.63640625 -3.28632812 2.0228125 -2.62890625 1.390625 C-1 0 -1 0 0 0 Z " fill="#982283" transform="translate(117,157)"/>
<path d="M0 0 C0 0.99 0 1.98 0 3 C0.33 3.99 0.66 4.98 1 6 C1.66 5.67 2.32 5.34 3 5 C3.33 4.01 3.66 3.02 4 2 C6.31 2 8.62 2 11 2 C10.01 2.99 9.02 3.98 8 5 C7.34 4.67 6.68 4.34 6 4 C5.67 4.66 5.34 5.32 5 6 C5.66 6.33 6.32 6.66 7 7 C5.33333333 7.33333333 3.66666667 7.66666667 2 8 C1.278125 8.20625 0.55625 8.4125 -0.1875 8.625 C-4.50951724 9.20126897 -8.69257081 8.54365611 -13 8 C-14 5 -14 5 -13.375 2.875 C-12 1 -12 1 -9.8125 0.25 C-6.52802399 -0.04195342 -3.2956714 -0.06462101 0 0 Z " fill="#9F1F88" transform="translate(168,221)"/>
<path d="M0 0 C0.99 0.99 1.98 1.98 3 3 C2.2884375 3.556875 2.2884375 3.556875 1.5625 4.125 C-0.52205802 6.62646962 -0.64621491 8.81593418 -1 12 C-1.66 12 -2.32 12 -3 12 C-3 12.99 -3 13.98 -3 15 C-3.99 15.495 -3.99 15.495 -5 16 C-5 16.99 -5 17.98 -5 19 C-5.99 19.33 -6.98 19.66 -8 20 C-8.66 19.67 -9.32 19.34 -10 19 C-10 17.68 -10 16.36 -10 15 C-10.66 14.67 -11.32 14.34 -12 14 C-9.01915194 7.91410189 -5.2724523 4.21028351 0 0 Z " fill="#9F2088" transform="translate(107,166)"/>
<path d="M0 0 C1.640625 2.8359375 1.640625 2.8359375 3.25 6.375 C3.79140625 7.53773437 4.3328125 8.70046875 4.890625 9.8984375 C6 13 6 13 5 16 C4.34 15.67 3.68 15.34 3 15 C3 14.34 3 13.68 3 13 C2.01 13.33 1.02 13.66 0 14 C-0.33 13.67 -0.66 13.34 -1 13 C-1.33 14.98 -1.66 16.96 -2 19 C-2.33 19 -2.66 19 -3 19 C-3.08636719 18.13117188 -3.17273438 17.26234375 -3.26171875 16.3671875 C-4.11449541 9.37285418 -4.73644363 4.84801244 -10 0 C-3.375 -1.125 -3.375 -1.125 0 0 Z " fill="#902A7F" transform="translate(198,111)"/>
<path d="M0 0 C0.66 0.99 1.32 1.98 2 3 C1.67 3.99 1.34 4.98 1 6 C0.34 6 -0.32 6 -1 6 C-1 7.32 -1 8.64 -1 10 C-0.4225 9.71125 0.155 9.4225 0.75 9.125 C2.83333333 8.08333333 4.91666667 7.04166667 7 6 C7 5.34 7 4.68 7 4 C7.99 4.33 8.98 4.66 10 5 C5.0834008 10.15196831 0.08940307 15.22628542 -6 19 C-6.66 19 -7.32 19 -8 19 C-8.75621261 12.95029908 -6.27931331 9.75305232 -3 5 C-1.99490786 3.33639922 -0.99230897 1.67125722 0 0 Z " fill="#932D82" transform="translate(113,195)"/>
<path d="M0 0 C0.33 0 0.66 0 1 0 C1.34855655 7.62951555 1.0017506 13.92444501 -2 21 C-2.99 21 -3.98 21 -5 21 C-7.68219822 15.63560356 -8.3152595 11.98993047 -8 6 C-7.34 5.67 -6.68 5.34 -6 5 C-5.67 5.66 -5.34 6.32 -5 7 C-2.97536745 7.65213292 -2.97536745 7.65213292 -1 8 C-0.67 5.36 -0.34 2.72 0 0 Z " fill="#8F347F" transform="translate(162,288)"/>
<path d="M0 0 C1.0236264 0.00212242 1.0236264 0.00212242 2.06793213 0.00428772 C4.23804184 0.00986541 6.4080467 0.02241371 8.578125 0.03515625 C10.05338392 0.04017414 11.52864447 0.04473654 13.00390625 0.04882812 C16.61201298 0.0598275 20.22005875 0.07707672 23.828125 0.09765625 C24.323125 1.58265625 24.323125 1.58265625 24.828125 3.09765625 C12.948125 3.09765625 1.068125 3.09765625 -11.171875 3.09765625 C-11.171875 2.43765625 -11.171875 1.77765625 -11.171875 1.09765625 C-7.43877067 -0.09052343 -3.89695855 -0.01597114 0 0 Z " fill="#9D2088" transform="translate(208.171875,225.90234375)"/>
<path d="M0 0 C7.48291572 6.15034169 7.48291572 6.15034169 10 10 C9.38125 10.144375 8.7625 10.28875 8.125 10.4375 C5.96741678 10.93152225 5.96741678 10.93152225 4 12 C4.185625 12.9075 4.37125 13.815 4.5625 14.75 C5.18958461 19.40834281 4.07968928 21.90852967 2 26 C1.91363281 25.443125 1.82726562 24.88625 1.73828125 24.3125 C0.62404082 18.26084557 -1.5372459 14.03124899 -5 9 C-5.33 8.34 -5.66 7.68 -6 7 C-5.01 6.67 -4.02 6.34 -3 6 C-2.34 7.32 -1.68 8.64 -1 10 C0.32 9.67 1.64 9.34 3 9 C2.30058404 5.85262818 1.23921302 2.97411124 0 0 Z " fill="#852C76" transform="translate(209,54)"/>
<path d="M0 0 C-1.32 1.32 -2.64 2.64 -4 4 C0.62 4.66 5.24 5.32 10 6 C10 6.33 10 6.66 10 7 C9.154375 7.07476562 8.30875 7.14953125 7.4375 7.2265625 C-0.29681572 8.12304 -5.33761037 9.5600003 -11 15 C-11.33 14.01 -11.66 13.02 -12 12 C-11.319375 11.4225 -10.63875 10.845 -9.9375 10.25 C-7.7334804 8.21734735 -7.7334804 8.21734735 -8.125 5.8125 C-8.86199248 3.81439869 -8.86199248 3.81439869 -11 3 C-9.73581754 2.30034557 -8.46334598 1.61565237 -7.1875 0.9375 C-6.47980469 0.55464844 -5.77210938 0.17179687 -5.04296875 -0.22265625 C-3 -1 -3 -1 0 0 Z " fill="#8C2F7D" transform="translate(172,102)"/>
<path d="M0 0 C0.7425 0.185625 1.485 0.37125 2.25 0.5625 C2.8275 0.706875 3.405 0.85125 4 1 C4 0.34 4 -0.32 4 -1 C4.99 -0.67 5.98 -0.34 7 0 C6.01 0.495 6.01 0.495 5 1 C5 1.66 5 2.32 5 3 C6.65 3 8.3 3 10 3 C9.34 4.65 8.68 6.3 8 8 C7.030625 7.690625 6.06125 7.38125 5.0625 7.0625 C0.76335509 5.82032903 -3.55342634 5.38315147 -8 5 C-8.33 3.68 -8.66 2.36 -9 1 C-5.51943975 -0.6435979 -3.65529044 -1.29703854 0 0 Z " fill="#A02088" transform="translate(176,102)"/>
<path d="M0 0 C0.99 0 1.98 0 3 0 C3.75 2.6875 3.75 2.6875 4 6 C2.125 8.5625 2.125 8.5625 0 11 C-0.78946609 13.68507329 -0.78946609 13.68507329 -1 16 C-1.99 16.33 -2.98 16.66 -4 17 C-4 15.68 -4 14.36 -4 13 C-4.66 13 -5.32 13 -6 13 C-5.38857603 5.54062751 -5.38857603 5.54062751 -3.5625 3 C-2 2 -2 2 0 2 C0 1.34 0 0.68 0 0 Z " fill="#9F1F89" transform="translate(139,238)"/>
<path d="M0 0 C0.99 0 1.98 0 3 0 C3 0.66 3 1.32 3 2 C3.66 2 4.32 2 5 2 C5.33 3.98 5.66 5.96 6 8 C7.32 7.67 8.64 7.34 10 7 C10.33 7.99 10.66 8.98 11 10 C10.34 10 9.68 10 9 10 C9 10.66 9 11.32 9 12 C5.67465243 13.10844919 3.37817425 12.84454356 0 12 C-1.125 7.25 -1.125 7.25 0 5 C-0.66 4.67 -1.32 4.34 -2 4 C-1.34 4 -0.68 4 0 4 C0 2.68 0 1.36 0 0 Z " fill="#9F1E89" transform="translate(151,197)"/>
<path d="M0 0 C4.75 0.75 4.75 0.75 7 3 C6.01 4.485 6.01 4.485 5 6 C4.34 5.67 3.68 5.34 3 5 C3 5.99 3 6.98 3 8 C2.34 8 1.68 8 1 8 C1 8.66 1 9.32 1 10 C0.01 10 -0.98 10 -2 10 C-2.33 10.33 -2.66 10.66 -3 11 C-4.67542976 10.71395102 -6.34385343 10.38218767 -8 10 C-8.33 8.35 -8.66 6.7 -9 5 C-4.545 4.505 -4.545 4.505 0 4 C0 2.68 0 1.36 0 0 Z " fill="#A01F89" transform="translate(198,199)"/>
<path d="M0 0 C1.72046505 2.2939534 3.4094295 4.61414424 5 7 C3.02 9.31 1.04 11.62 -1 14 C-2.50559539 12.03617993 -3.89131683 10.21736634 -5 8 C-5.99 7.67 -6.98 7.34 -8 7 C-5.36 4.69 -2.72 2.38 0 0 Z " fill="#932D81" transform="translate(206,191)"/>
<path d="M0 0 C0.66 1.65 1.32 3.3 2 5 C1.34 5 0.68 5 0 5 C-0.33 5.99 -0.66 6.98 -1 8 C-3.0625 9.1875 -3.0625 9.1875 -5 10 C-4.67 10.99 -4.34 11.98 -4 13 C-4.99 13.33 -5.98 13.66 -7 14 C-7.64674034 10.64463427 -8.13410718 7.42241515 -8 4 C-5.3168483 0.86965635 -4.13290731 0 0 0 Z " fill="#A01E88" transform="translate(163,106)"/>
<path d="M0 0 C0.99 0.33 1.98 0.66 3 1 C2.67 1.99 2.34 2.98 2 4 C2.99 4.33 3.98 4.66 5 5 C4.34 5.66 3.68 6.32 3 7 C0.875 6.625 0.875 6.625 -1 6 C-2.85776765 9.13498292 -3.20140476 11.37471432 -3 15 C-6.49234244 15.09978121 -9.59437148 14.77842938 -13 14 C-12.29875 13.484375 -11.5975 12.96875 -10.875 12.4375 C-6.57939713 8.79557582 -3.12010613 4.68015919 0 0 Z " fill="#F7F8F7" transform="translate(203,137)"/>
<path d="M0 0 C1.65 0.33 3.3 0.66 5 1 C5 1.66 5 2.32 5 3 C5.99 3.33 6.98 3.66 8 4 C7.67 5.32 7.34 6.64 7 8 C6.34 8 5.68 8 5 8 C5 9.32 5 10.64 5 12 C3.68 11.67 2.36 11.34 1 11 C1 10.34 1 9.68 1 9 C0.34 9 -0.32 9 -1 9 C-0.67 6.03 -0.34 3.06 0 0 Z " fill="#A01F88" transform="translate(196,123)"/>
<path d="M0 0 C1.32 0.66 2.64 1.32 4 2 C4 2.66 4 3.32 4 4 C4.99 4.33 5.98 4.66 7 5 C7 4.34 7 3.68 7 3 C7.66 3.33 8.32 3.66 9 4 C8.01 7.3 7.02 10.6 6 14 C4 10 4 10 4 8 C3.01 7.67 2.02 7.34 1 7 C0.67 7.33 0.34 7.66 0 8 C-0.99 8.33 -1.98 8.66 -3 9 C-2.44271087 5.65626525 -1.64826111 2.96687001 0 0 Z " fill="#8D2D7D" transform="translate(149,264)"/>
<path d="M0 0 C1.625 2 1.625 2 3 4 C0 6 0 6 -2.125 5.6875 C-4 5 -4 5 -5 4 C-5.66 5.32 -6.32 6.64 -7 8 C-7.99 8 -8.98 8 -10 8 C-10 8.66 -10 9.32 -10 10 C-11.5 11.625 -11.5 11.625 -13 13 C-13.66 12.67 -14.32 12.34 -15 12 C-13.89847594 10.56047403 -12.7936696 9.12345929 -11.6875 7.6875 C-11.07261719 6.88699219 -10.45773438 6.08648437 -9.82421875 5.26171875 C-6.39168355 1.00596311 -5.53290153 0 0 0 Z " fill="#8F237B" transform="translate(169,245)"/>
<path d="M0 0 C3 1 3 1 4 3 C4.04022391 5.3329866 4.04320247 7.66706666 4 10 C3.34 10 2.68 10 2 10 C1.34 12.97 0.68 15.94 0 19 C-0.33 19 -0.66 19 -1 19 C-1.02714735 16.77090129 -1.04646254 14.54170633 -1.0625 12.3125 C-1.07990234 10.45044922 -1.07990234 10.45044922 -1.09765625 8.55078125 C-1.01478673 5.53764546 -0.70839449 2.91724661 0 0 Z " fill="#A14693" transform="translate(117,165)"/>
<path d="M0 0 C0.33 0.99 0.66 1.98 1 3 C-3.10457614 5.98514628 -5.97745369 6.2954439 -11 6 C-11.33 4.68 -11.66 3.36 -12 2 C-11.401875 1.855625 -10.80375 1.71125 -10.1875 1.5625 C-3.7201087 -0.10054348 -3.7201087 -0.10054348 0 0 Z " fill="#A01F88" transform="translate(174,145)"/>
<path d="M0 0 C0.33 0.66 0.66 1.32 1 2 C1.66 2 2.32 2 3 2 C3 3.98 3 5.96 3 8 C4.65 8.33 6.3 8.66 8 9 C7.67 10.65 7.34 12.3 7 14 C5.1875 13.9375 5.1875 13.9375 3 13 C0.51387936 8.47170884 -0.38279888 5.23158464 0 0 Z " fill="#922A7F" transform="translate(71,293)"/>
<path d="M0 0 C0.66 0.33 1.32 0.66 2 1 C1.01 2.485 1.01 2.485 0 4 C2.97 4.495 2.97 4.495 6 5 C6 4.34 6 3.68 6 3 C6.99 3 7.98 3 9 3 C8.34 5.97 7.68 8.94 7 12 C6.67 11.01 6.34 10.02 6 9 C5.34 8.67 4.68 8.34 4 8 C4.33 7.34 4.66 6.68 5 6 C4.01 6 3.02 6 2 6 C2 6.66 2 7.32 2 8 C-0.5 9.625 -0.5 9.625 -3 11 C-2.69217504 9.35328588 -2.37860766 7.70764424 -2.0625 6.0625 C-1.88847656 5.14597656 -1.71445313 4.22945312 -1.53515625 3.28515625 C-1 1 -1 1 0 0 Z " fill="#903281" transform="translate(137,232)"/>
<path d="M0 0 C2.64 0.33 5.28 0.66 8 1 C8 1.66 8 2.32 8 3 C12.29 3 16.58 3 21 3 C21 3.33 21 3.66 21 4 C19.69675781 4.05607422 19.69675781 4.05607422 18.3671875 4.11328125 C9.71957101 4.52448963 9.71957101 4.52448963 2 8 C1.34 5.36 0.68 2.72 0 0 Z " fill="#833277" transform="translate(144,226)"/>
<path d="M0 0 C0.66 0.33 1.32 0.66 2 1 C1.608125 1.7425 1.21625 2.485 0.8125 3.25 C0.544375 4.1575 0.27625 5.065 0 6 C1.26352052 8.32511472 1.26352052 8.32511472 3 10 C1.125 11.0625 1.125 11.0625 -1 12 C-1.66 11.67 -2.32 11.34 -3 11 C-3 9.68 -3 8.36 -3 7 C-3.66 6.67 -4.32 6.34 -5 6 C-2.25 1.125 -2.25 1.125 0 0 Z " fill="#9E1F87" transform="translate(100,174)"/>
<path d="M0 0 C0.99 0 1.98 0 3 0 C4.75 2.3125 4.75 2.3125 6 5 C5.67 5.99 5.34 6.98 5 8 C2.69 8 0.38 8 -2 8 C-3 5 -3 5 -1.75 2.3125 C-1.1725 1.549375 -0.595 0.78625 0 0 Z " fill="#9E298A" transform="translate(85,196)"/>
<path d="M0 0 C1.05404945 3.98196457 0.84098656 6.98195309 0 11 C-0.33 11 -0.66 11 -1 11 C-1 9.35 -1 7.7 -1 6 C-1.66 6 -2.32 6 -3 6 C-2.67 7.32 -2.34 8.64 -2 10 C-2.99 9.67 -3.98 9.34 -5 9 C-5.33 6.69 -5.66 4.38 -6 2 C-2.25 0 -2.25 0 0 0 Z " fill="#9D2488" transform="translate(88,205)"/>
<path d="M0 0 C2.97 0 5.94 0 9 0 C8.01 0.33 7.02 0.66 6 1 C6.66 1.33 7.32 1.66 8 2 C7.67 3.65 7.34 5.3 7 7 C4.0280615 5.87548273 1.66559313 4.77706209 -1 3 C-0.67 2.01 -0.34 1.02 0 0 Z " fill="#A01E8A" transform="translate(182,144)"/>
<path d="M0 0 C0.33 0 0.66 0 1 0 C2.0161692 4.62921525 1.83796731 8.34462607 1 13 C-0.32 13.33 -1.64 13.66 -3 14 C-3.33 13.01 -3.66 12.02 -4 11 C-3.01 10.67 -2.02 10.34 -1 10 C-0.67 8.02 -0.34 6.04 0 4 C-1.32 4.33 -2.64 4.66 -4 5 C-2.69254251 3.31295807 -1.35827971 1.64639965 0 0 Z " fill="#8E237C" transform="translate(116,157)"/>
<path d="M0 0 C1.32 1.65 2.64 3.3 4 5 C3.01 5.33 2.02 5.66 1 6 C1.33 6.99 1.66 7.98 2 9 C-0.49064888 9.68707555 -2.37886292 10 -5 10 C-5.33 9.01 -5.66 8.02 -6 7 C-5.38125 6.95875 -4.7625 6.9175 -4.125 6.875 C-3.42375 6.58625 -2.7225 6.2975 -2 6 C-0.6954344 3.00384054 -0.6954344 3.00384054 0 0 Z " fill="#F1F4F2" transform="translate(219,189)"/>
<path d="M0 0 C2.70108504 0.090916 5.36930311 0.23740766 8.0625 0.4375 C9.20041992 0.51581055 9.20041992 0.51581055 10.36132812 0.59570312 C12.24121722 0.72575835 14.12065685 0.86228038 16 1 C16 1.33 16 1.66 16 2 C7.42857143 3.28571429 7.42857143 3.28571429 4 2 C3.67 2.99 3.34 3.98 3 5 C2.34 5 1.68 5 1 5 C0.34 3.68 -0.32 2.36 -1 1 C-0.67 0.67 -0.34 0.34 0 0 Z " fill="#8D377D" transform="translate(150,219)"/>
<path d="M0 0 C0.33 0.99 0.66 1.98 1 3 C0.01 4.485 0.01 4.485 -1 6 C-0.6878236 8.64632287 -0.6878236 8.64632287 0 11 C-1.65 11 -3.3 11 -5 11 C-5 10.01 -5 9.02 -5 8 C-4.34 8 -3.68 8 -3 8 C-3.33 7.01 -3.66 6.02 -4 5 C-4.66 4.67 -5.32 4.34 -6 4 C-2.25 0 -2.25 0 0 0 Z " fill="#A1358F" transform="translate(104,170)"/>
<path d="M0 0 C0.99 0.66 1.98 1.32 3 2 C3.33 1.67 3.66 1.34 4 1 C4.66 1.33 5.32 1.66 6 2 C6 2.99 6 3.98 6 5 C4.68 5 3.36 5 2 5 C1.67 5.66 1.34 6.32 1 7 C-0.65 7 -2.3 7 -4 7 C-4 6.34 -4 5.68 -4 5 C-3.01 5 -2.02 5 -1 5 C-0.67 3.35 -0.34 1.7 0 0 Z " fill="#9D248B" transform="translate(163,248)"/>
<path d="M0 0 C0.33 1.65 0.66 3.3 1 5 C-2.11227195 5 -4.94152152 4.54372951 -8 4 C-7.67 3.01 -7.34 2.02 -7 1 C-4 0 -4 0 0 0 Z " fill="#A0288C" transform="translate(199,138)"/>
<path d="M0 0 C1.65 0.33 3.3 0.66 5 1 C3.68 2.65 2.36 4.3 1 6 C1.66 6.33 2.32 6.66 3 7 C1.35 7.33 -0.3 7.66 -2 8 C-2.33 7.01 -2.66 6.02 -3 5 C-1.5625 2.3125 -1.5625 2.3125 0 0 Z " fill="#8F317C" transform="translate(124,262)"/>
<path d="M0 0 C0.99 0 1.98 0 3 0 C5.07375887 4.39148936 5.07375887 4.39148936 4.75 7.0625 C3.95514871 9.11586582 2.99556618 11.03742896 2 13 C1.86722656 12.38511719 1.73445312 11.77023438 1.59765625 11.13671875 C1.42105469 10.32847656 1.24445313 9.52023438 1.0625 8.6875 C0.88847656 7.88699219 0.71445313 7.08648437 0.53515625 6.26171875 C0.00113841 3.854599 0.00113841 3.854599 -1 1 C-0.67 0.67 -0.34 0.34 0 0 Z " fill="#8F357F" transform="translate(209,67)"/>
<path d="M0 0 C1.65 0 3.3 0 5 0 C7.83022097 3.99560608 6.76210446 7.42737323 6 12 C5.67 11.34 5.34 10.68 5 10 C4.34 10 3.68 10 3 10 C3.0928125 8.3603125 3.0928125 8.3603125 3.1875 6.6875 C3.35597914 3.07873917 3.35597914 3.07873917 1.5 1.0625 C1.005 0.711875 0.51 0.36125 0 0 Z " fill="#8D2F79" transform="translate(166,229)"/>
<path d="M0 0 C0.99 0.33 1.98 0.66 3 1 C1.90648447 4.17119503 0.9873012 5.00783543 -1.9375 6.8125 C-5 8 -5 8 -8 7 C-7.34 7 -6.68 7 -6 7 C-6.33 5.68 -6.66 4.36 -7 3 C-6.34 3 -5.68 3 -5 3 C-5 3.66 -5 4.32 -5 5 C-4.01 5 -3.02 5 -2 5 C-2 4.34 -2 3.68 -2 3 C-1.34 3 -0.68 3 0 3 C0 2.01 0 1.02 0 0 Z " fill="#8C377D" transform="translate(201,204)"/>
<path d="M0 0 C1.65 0 3.3 0 5 0 C3.84414715 3.91211733 2.64465038 6.8745041 0 10 C-0.625 7.6875 -0.625 7.6875 -1 5 C-0.34 4.01 0.32 3.02 1 2 C0.67 1.34 0.34 0.68 0 0 Z " fill="#8E327D" transform="translate(159,190)"/>
<path d="M0 0 C6.50306748 -0.36809816 6.50306748 -0.36809816 8.6875 1.25 C9.120625 1.8275 9.55375 2.405 10 3 C10.721875 3.721875 11.44375 4.44375 12.1875 5.1875 C12.785625 5.785625 13.38375 6.38375 14 7 C12.68 7.33 11.36 7.66 10 8 C9.92910156 7.37609375 9.85820312 6.7521875 9.78515625 6.109375 C9.19995468 3.80770679 9.19995468 3.80770679 6.93359375 2.953125 C6.10988281 2.72109375 5.28617188 2.4890625 4.4375 2.25 C3.61121094 2.00765625 2.78492188 1.7653125 1.93359375 1.515625 C1.29550781 1.34546875 0.65742188 1.1753125 0 1 C0 0.67 0 0.34 0 0 Z " fill="#7E2971" transform="translate(174,145)"/>
<path d="M0 0 C0.66 0 1.32 0 2 0 C2.33 1.32 2.66 2.64 3 4 C3.99 4 4.98 4 6 4 C5.67 4.99 5.34 5.98 5 7 C3.02 7 1.04 7 -1 7 C-0.67 4.69 -0.34 2.38 0 0 Z " fill="#A01F8A" transform="translate(190,43)"/>
<path d="M0 0 C0.66 0 1.32 0 2 0 C1.67 1.65 1.34 3.3 1 5 C0.01 5 -0.98 5 -2 5 C-2 5.66 -2 6.32 -2 7 C-3.5 8.625 -3.5 8.625 -5 10 C-5.66 9.67 -6.32 9.34 -7 9 C-5.88266271 7.49428343 -4.75589965 5.99555708 -3.625 4.5 C-2.99851563 3.6646875 -2.37203125 2.829375 -1.7265625 1.96875 C-1.15679687 1.3190625 -0.58703125 0.669375 0 0 Z " fill="#89317A" transform="translate(161,248)"/>
<path d="M0 0 C0.66 0.33 1.32 0.66 2 1 C1.54625 1.391875 1.0925 1.78375 0.625 2.1875 C-1.16706356 3.94036124 -1.16706356 3.94036124 -1.8125 6.5 C-3.44248741 9.93155244 -5.57657813 10.58597792 -9 12 C-7.55575365 8.76138697 -5.74227753 6.38030837 -3.375 3.75 C-2.74335937 3.04359375 -2.11171875 2.3371875 -1.4609375 1.609375 C-0.97882813 1.07828125 -0.49671875 0.5471875 0 0 Z " fill="#F2F1F1" transform="translate(104,182)"/>
<path d="M0 0 C0.66 0.33 1.32 0.66 2 1 C2.59355614 3.64860427 2.74209269 6.29197322 3 9 C1.02 9.99 1.02 9.99 -1 11 C-1 10.01 -1 9.02 -1 8 C-0.34 8 0.32 8 1 8 C0.34 7.01 -0.32 6.02 -1 5 C-0.625 2.3125 -0.625 2.3125 0 0 Z " fill="#A01E88" transform="translate(153,127)"/>
<path d="M0 0 C0.66 1.32 1.32 2.64 2 4 C0.75 5.5625 0.75 5.5625 -1 7 C-3.1875 6.6875 -3.1875 6.6875 -5 6 C-3.63016497 2.83884224 -3.0109362 2.0072908 0 0 Z " fill="#922C81" transform="translate(160,106)"/>
<path d="M0 0 C0.391875 0.66 0.78375 1.32 1.1875 2 C2.85416667 4.29166667 2.85416667 4.29166667 5.6875 4.25 C6.8321875 4.12625 6.8321875 4.12625 8 4 C8 5.65 8 7.3 8 9 C7.67 8.34 7.34 7.68 7 7 C5.68 7.33 4.36 7.66 3 8 C1.35 5.69 -0.3 3.38 -2 1 C-1.34 0.67 -0.68 0.34 0 0 Z " fill="#8D277C" transform="translate(205,60)"/>
<path d="M0 0 C1.43088528 2.86177057 0.59991697 4.93375773 0 8 C-0.66 8 -1.32 8 -2 8 C-2 9.32 -2 10.64 -2 12 C-2.99 12.33 -3.98 12.66 -5 13 C-4.48474397 7.71862571 -2.74522883 4.42778844 0 0 Z " fill="#843776" transform="translate(147,201)"/>
<path d="M0 0 C2.475 0.495 2.475 0.495 5 1 C5 1.66 5 2.32 5 3 C5.99 3.33 6.98 3.66 8 4 C8 4.66 8 5.32 8 6 C5.125 5.8125 5.125 5.8125 2 5 C0.625 2.4375 0.625 2.4375 0 0 Z " fill="#A01F8A" transform="translate(149,48)"/>
<path d="M0 0 C0.66 0.66 1.32 1.32 2 2 C0 5 0 5 -3.125 5.6875 C-4.07375 5.790625 -5.0225 5.89375 -6 6 C-6 5.01 -6 4.02 -6 3 C-4.125 1.9375 -4.125 1.9375 -2 1 C-1.34 1.33 -0.68 1.66 0 2 C0 1.34 0 0.68 0 0 Z " fill="#942980" transform="translate(217,191)"/>
<path d="M0 0 C3 1 3 1 4 3 C4.99 2.67 5.98 2.34 7 2 C7.66 2.66 8.32 3.32 9 4 C6.36 4.66 3.72 5.32 1 6 C1 5.01 1 4.02 1 3 C0.34 2.67 -0.32 2.34 -1 2 C-0.67 1.34 -0.34 0.68 0 0 Z " fill="#8F3080" transform="translate(159,47)"/>
<path d="M0 0 C0.33 0.66 0.66 1.32 1 2 C2.98 2 4.96 2 7 2 C6.67 3.32 6.34 4.64 6 6 C6 5.01 6 4.02 6 3 C4.02 3.66 2.04 4.32 0 5 C0.33 5.99 0.66 6.98 1 8 C0.34 8 -0.32 8 -1 8 C-0.67 5.36 -0.34 2.72 0 0 Z " fill="#843177" transform="translate(82,202)"/>
<path d="M0 0 C0.99 0.33 1.98 0.66 3 1 C1.71451591 2.33929505 0.42141845 3.67128643 -0.875 5 C-1.59429687 5.7425 -2.31359375 6.485 -3.0546875 7.25 C-5 9 -5 9 -7 9 C-7 8.34 -7 7.68 -7 7 C-6.34 7 -5.68 7 -5 7 C-4.731875 6.360625 -4.46375 5.72125 -4.1875 5.0625 C-3 3 -3 3 0 2 C0 1.34 0 0.68 0 0 Z " fill="#89387A" transform="translate(120,199)"/>
<path d="M0 0 C0.66 0.66 1.32 1.32 2 2 C1.67 2.99 1.34 3.98 1 5 C1 6.32 1 7.64 1 9 C0.01 9.33 -0.98 9.66 -2 10 C-2.98120464 6.94736336 -2.98120464 5.05263664 -2 2 C-1.34 2 -0.68 2 0 2 C0 1.34 0 0.68 0 0 Z " fill="#A02086" transform="translate(214,175)"/>
<path d="M0 0 C0.99 0 1.98 0 3 0 C2.67 1.65 2.34 3.3 2 5 C2.66 5.33 3.32 5.66 4 6 C2.35 6.66 0.7 7.32 -1 8 C-0.67 5.36 -0.34 2.72 0 0 Z " fill="#943A86" transform="translate(138,223)"/>
<path d="M0 0 C4.75 1.875 4.75 1.875 7 3 C7 3.66 7 4.32 7 5 C4.69 5 2.38 5 0 5 C0.33 4.01 0.66 3.02 1 2 C0.34 1.67 -0.32 1.34 -1 1 C-0.67 0.67 -0.34 0.34 0 0 Z " fill="#A01F8B" transform="translate(187,106)"/>
<path d="M0 0 C0.66 0 1.32 0 2 0 C2 0.66 2 1.32 2 2 C3.65 2 5.3 2 7 2 C7 1.34 7 0.68 7 0 C7.66 0 8.32 0 9 0 C9 1.32 9 2.64 9 4 C5.71303767 4.79953138 4.28976808 5.09658936 1 4 C0.3125 1.9375 0.3125 1.9375 0 0 Z " fill="#A11F8A" transform="translate(196,50)"/>
<path d="M0 0 C1.485 0.99 1.485 0.99 3 2 C3 2.66 3 3.32 3 4 C5.97 4.495 5.97 4.495 9 5 C8.34 5.66 7.68 6.32 7 7 C3.375 6.625 3.375 6.625 0 6 C-1.125 2.25 -1.125 2.25 0 0 Z " fill="#91287D" transform="translate(148,49)"/>
<path d="M0 0 C0.33 1.32 0.66 2.64 1 4 C1.99 4 2.98 4 4 4 C3.67 5.65 3.34 7.3 3 9 C2.34 9 1.68 9 1 9 C1 8.34 1 7.68 1 7 C1.66 7 2.32 7 3 7 C3 6.34 3 5.68 3 5 C1.68 5.33 0.36 5.66 -1 6 C-1.33 5.01 -1.66 4.02 -2 3 C-1.34 2.01 -0.68 1.02 0 0 Z " fill="#8E2A7A" transform="translate(129,255)"/>
<path d="M0 0 C0.33 0 0.66 0 1 0 C1.33 1.98 1.66 3.96 2 6 C1.34 6 0.68 6 0 6 C-0.33 7.98 -0.66 9.96 -1 12 C-1.33 12 -1.66 12 -2 12 C-2.05395478 10.37536158 -2.09277195 8.75021459 -2.125 7.125 C-2.14820313 6.22007813 -2.17140625 5.31515625 -2.1953125 4.3828125 C-2 2 -2 2 0 0 Z " fill="#803270" transform="translate(197,118)"/>
<path d="M0 0 C3.63 0 7.26 0 11 0 C10.67 0.66 10.34 1.32 10 2 C9.34 1.67 8.68 1.34 8 1 C8 1.66 8 2.32 8 3 C4.62537285 2.45276317 2.91765 1.9451 0 0 Z " fill="#872F79" transform="translate(172,100)"/>
<path d="M0 0 C0.33 0.66 0.66 1.32 1 2 C1.66 2 2.32 2 3 2 C3.125 4.875 3.125 4.875 3 8 C2.34 8.66 1.68 9.32 1 10 C0.67 6.7 0.34 3.4 0 0 Z " fill="#7E3171" transform="translate(71,293)"/>
<path d="M0 0 C-0.99 0.33 -1.98 0.66 -3 1 C-3.33 1.66 -3.66 2.32 -4 3 C-6.0625 3.625 -6.0625 3.625 -8 4 C-5.97675095 -0.48005146 -4.79569304 -1.43870791 0 0 Z " fill="#F8F9F7" transform="translate(88,290)"/>
<path d="M0 0 C2.56695636 0.39491636 4.67123994 0.83561997 7 2 C7 2.99 7 3.98 7 5 C6.01 4.67 5.02 4.34 4 4 C4 3.34 4 2.68 4 2 C2.02 2.99 2.02 2.99 0 4 C-0.33 3.01 -0.66 2.02 -1 1 C-0.67 0.67 -0.34 0.34 0 0 Z " fill="#9C2A8A" transform="translate(165,243)"/>
<path d="M0 0 C0.33 0.99 0.66 1.98 1 3 C0.01 3.66 -0.98 4.32 -2 5 C-2.73343428 8.06556598 -2.73343428 8.06556598 -3 11 C-3.33 11 -3.66 11 -4 11 C-4.125 3.25 -4.125 3.25 -3 1 C-2.01 0.67 -1.02 0.34 0 0 Z " fill="#A15696" transform="translate(83,217)"/>
<path d="M0 0 C1.32 0.33 2.64 0.66 4 1 C4 2.98 4 4.96 4 7 C2.68 6.67 1.36 6.34 0 6 C0 4.02 0 2.04 0 0 Z " fill="#9F308D" transform="translate(156,199)"/>
<path d="M0 0 C1.32 0 2.64 0 4 0 C4 1.65 4 3.3 4 5 C1.525 4.01 1.525 4.01 -1 3 C-0.67 2.01 -0.34 1.02 0 0 Z " fill="#9A2D87" transform="translate(182,144)"/>
<path d="M0 0 C-1.65 1.65 -3.3 3.3 -5 5 C-5.66 4.34 -6.32 3.68 -7 3 C-6.01 2.34 -5.02 1.68 -4 1 C-4.99 0.67 -5.98 0.34 -7 0 C-3.86650268 -1.04449911 -3.01031744 -0.93423645 0 0 Z " fill="#F6F5F5" transform="translate(167,242)"/>
<path d="M0 0 C0.66 0 1.32 0 2 0 C2 0.66 2 1.32 2 2 C2.99 2.33 3.98 2.66 5 3 C4.01 3.99 3.02 4.98 2 6 C1.34 5.34 0.68 4.68 0 4 C-0.99 4.495 -0.99 4.495 -2 5 C-1.34 3.35 -0.68 1.7 0 0 Z " fill="#F8F9F5" transform="translate(147,192)"/>
<path d="M0 0 C0.66 0.33 1.32 0.66 2 1 C2 2.32 2 3.64 2 5 C0.1875 5.6875 0.1875 5.6875 -2 6 C-3.75 4.5625 -3.75 4.5625 -5 3 C-3.35 3 -1.7 3 0 3 C0 2.01 0 1.02 0 0 Z " fill="#8C2379" transform="translate(161,167)"/>
<path d="M0 0 C0.33 0.99 0.66 1.98 1 3 C-5.75 2.25 -5.75 2.25 -8 0 C-4.71023192 -1.09658936 -3.28696233 -0.79953138 0 0 Z " fill="#8A387F" transform="translate(172,151)"/>
<path d="M0 0 C1.65 0 3.3 0 5 0 C5.33 1.65 5.66 3.3 6 5 C5.01 5.33 4.02 5.66 3 6 C2.87625 5.195625 2.7525 4.39125 2.625 3.5625 C2.315625 2.2940625 2.315625 2.2940625 2 1 C1.34 0.67 0.68 0.34 0 0 Z " fill="#8B2E7E" transform="translate(185,42)"/>
<path d="M0 0 C0.66 0.33 1.32 0.66 2 1 C2 3.64 2 6.28 2 9 C1.67 8.01 1.34 7.02 1 6 C0.01 5.67 -0.98 5.34 -2 5 C-1.34 3.35 -0.68 1.7 0 0 Z " fill="#A8639D" transform="translate(78,293)"/>
<path d="M0 0 C2 3 2 3 2 7 C0.5 8.75 0.5 8.75 -1 10 C-1.66 9.67 -2.32 9.34 -3 9 C-2.01 6.03 -1.02 3.06 0 0 Z " fill="#863175" transform="translate(78,270)"/>
<path d="M0 0 C0.66 1.32 1.32 2.64 2 4 C3.98 4 5.96 4 8 4 C8 4.33 8 4.66 8 5 C3.545 5.495 3.545 5.495 -1 6 C-0.67 4.02 -0.34 2.04 0 0 Z " fill="#8D337D" transform="translate(141,214)"/>
<path d="M0 0 C2.475 0.99 2.475 0.99 5 2 C4.67 3.32 4.34 4.64 4 6 C2.68 5.67 1.36 5.34 0 5 C0 3.35 0 1.7 0 0 Z " fill="#F5F7F6" transform="translate(160,198)"/>
<path d="M0 0 C0.33 1.32 0.66 2.64 1 4 C-0.32 4.99 -1.64 5.98 -3 7 C-3.66 6.67 -4.32 6.34 -5 6 C-3.35 4.02 -1.7 2.04 0 0 Z " fill="#EBECE9" transform="translate(115,170)"/>
<path d="M0 0 C0.33 0.99 0.66 1.98 1 3 C-0.32 4.32 -1.64 5.64 -3 7 C-3.99 6.67 -4.98 6.34 -6 6 C-5.01 5.67 -4.02 5.34 -3 5 C-3 4.01 -3 3.02 -3 2 C-2.01 2 -1.02 2 0 2 C0 1.34 0 0.68 0 0 Z " fill="#7E2770" transform="translate(107,176)"/>
<path d="M0 0 C2.64 0 5.28 0 8 0 C6.35 1.32 4.7 2.64 3 4 C2.01 3.34 1.02 2.68 0 2 C0 1.34 0 0.68 0 0 Z " fill="#923681" transform="translate(145,170)"/>
<path d="M0 0 C0.33 0 0.66 0 1 0 C1.625 2.875 1.625 2.875 2 6 C1.34 6.66 0.68 7.32 0 8 C0 6.68 0 5.36 0 4 C-1.32 4.33 -2.64 4.66 -4 5 C-2.69254251 3.31295807 -1.35827971 1.64639965 0 0 Z " fill="#812672" transform="translate(116,157)"/>
<path d="M0 0 C0.33 1.32 0.66 2.64 1 4 C1.99 4.33 2.98 4.66 4 5 C4 5.66 4 6.32 4 7 C3.34 7 2.68 7 2 7 C1.67 7.99 1.34 8.98 1 10 C0.67 6.7 0.34 3.4 0 0 Z " fill="#7E3B72" transform="translate(150,128)"/>
<path d="M0 0 C0.66 0.66 1.32 1.32 2 2 C1.625 4.125 1.625 4.125 1 6 C1 5.34 1 4.68 1 4 C0.34 4 -0.32 4 -1 4 C-1.33 5.32 -1.66 6.64 -2 8 C-2.33 7.34 -2.66 6.68 -3 6 C-2.06553465 3.96855359 -1.06775224 1.96466413 0 0 Z " fill="#7C326F" transform="translate(154,112)"/>
</svg>
