<svg viewBox="0 0 20 20" fill="none" xmlns="http://www.w3.org/2000/svg" iconSize="20" class="sc-pyfCe cmcxGo"><path fill-rule="evenodd" clip-rule="evenodd" d="M3.167 2.717A10 10 0 0 1 10 0c5.523 0 10 4.477 10 10s-4.477 10-10 10S0 15.523 0 10a.833.833 0 1 1 1.667 0 8.333 8.333 0 1 0 2.608-6.042h1.8a.833.833 0 0 1 0 1.667H2.333a.833.833 0 0 1-.833-.833V1.05a.833.833 0 0 1 1.667 0v1.667Zm6 3.95a.833.833 0 1 1 1.667 0v3.591l3.774.742a.838.838 0 0 1-.166 1.667h-.167l-4.441-.892a.833.833 0 0 1-.667-.833V6.667Z" fill="#666"></path></svg>