<?xml version="1.0" encoding="UTF-8"?>
<svg version="1.1" xmlns="http://www.w3.org/2000/svg" width="1000" height="1000">
<path d="M0 0 C330 0 660 0 1000 0 C1000 330 1000 660 1000 1000 C670 1000 340 1000 0 1000 C0 670 0 340 0 0 Z " fill="#9E2088" transform="translate(0,0)"/>
<path d="M0 0 C135.63 0 271.26 0 411 0 C411 241.23 411 482.46 411 731 C408.99493442 727.99240163 408.00859365 725.39641609 406.8125 722 C404.30995179 715.37821313 401.0693418 709.76967711 397 704 C396.29875 702.948125 395.5975 701.89625 394.875 700.8125 C388.08439631 693.04857645 377.28423584 688.49879169 367.27197266 687.44824219 C366.4695816 687.36290222 365.66719055 687.27756226 364.84048462 687.18963623 C364.23312469 687.12705627 363.62576477 687.06447632 363 687 C362.99853344 685.85683476 362.99706688 684.71366953 362.99555588 683.53586292 C362.95968476 656.26568148 362.90320288 628.99560523 362.82207905 601.7255192 C362.8120642 598.35306466 362.80221963 594.98060964 362.79248047 591.6081543 C362.7905391 590.93689175 362.78859772 590.2656292 362.78659752 589.57402536 C362.75576041 578.77188956 362.73864843 567.96977489 362.72680578 557.16760347 C362.71429852 546.04469105 362.68629636 534.92189124 362.64538693 523.79904717 C362.62294209 517.56787661 362.60707899 511.3368607 362.60811615 505.10564613 C362.60761181 466.52673327 362.37748707 429.31177217 345 394 C344.50628906 392.98421875 344.01257813 391.9684375 343.50390625 390.921875 C337.52848757 379.34344333 329.27396122 369.18576076 321.02685547 359.17089844 C317.09145133 354.38326309 313.29892938 349.50655517 309.5625 344.5625 C303.49513393 336.5533202 297.14291472 328.80537014 290.72314453 321.07763672 C282.93028291 311.68159643 275.3256146 302.17278918 267.95605469 292.44116211 C262.3364552 285.05760455 256.41479816 277.93371367 250.48632812 270.79785156 C247.98472276 267.77192812 245.5426588 264.69974257 243.1015625 261.625 C241.44173808 259.55176206 239.7693243 257.4915112 238.0859375 255.4375 C232.35568467 248.43975387 226.72210133 241.38953813 221.25 234.1875 C220.16036085 232.76156238 219.07052286 231.33577668 217.98046875 229.91015625 C216.19552483 227.57504682 214.42856836 225.23072816 212.67578125 222.87109375 C198.86396643 204.92339353 175.42834685 191.05851413 153 188 C145.95855228 187.44030556 138.88314125 187.5106246 131.82421875 187.48828125 C129.80254548 187.47140476 127.78088251 187.45325061 125.75923157 187.43388367 C120.48059307 187.38669987 115.20199636 187.35668698 109.92321777 187.33044434 C104.51969148 187.30047797 99.11630876 187.2540035 93.71289062 187.20898438 C83.14200268 187.12331169 72.5710849 187.05580747 62 187 C61.99413376 185.74371292 61.98826752 184.48742584 61.98222351 183.19306946 C61.92462841 171.26469666 61.85168033 159.33649977 61.76428509 147.40830708 C61.71984846 141.27815924 61.68053595 135.1480738 61.65356445 129.01782227 C61.62726195 123.08486624 61.58667642 117.15215391 61.53681374 111.21935081 C61.52032499 108.97316747 61.50870021 106.72694216 61.50238609 104.48070717 C61.41614797 76.58191307 59.12515715 49.07698047 40.3828125 26.8046875 C39 25 39 25 38 22 C36.68096843 21.30546568 35.34442428 20.64400744 34 20 C32.39638824 18.64870478 30.81546689 17.27030744 29.25 15.875 C24.67758423 12.07079924 20.07312558 9.2067719 14.75 6.5625 C13.7585498 6.0682251 13.7585498 6.0682251 12.74707031 5.56396484 C8.57527337 3.56371668 4.47961921 2.1547205 0 1 C0 0.67 0 0.34 0 0 Z " fill="#FEFEFE" transform="translate(589,0)"/>
<path d="M0 0 C65.34 0 130.68 0 198 0 C198.99 11.55 199.98 23.1 201 35 C201.8231811 41.11505964 202.66372332 47.01002346 204 53 C204.18900879 53.86383301 204.37801758 54.72766602 204.57275391 55.61767578 C214.6483512 100.47308699 240.97013234 142.71994114 280.12109375 167.65234375 C294.99715675 176.81696049 311.5252615 184.04713905 329 186 C329 186.33 329 186.66 329 187 C178.85 187 28.7 187 -126 187 C-126 186.67 -126 186.34 -126 186 C-125.030625 185.79246094 -124.06125 185.58492187 -123.0625 185.37109375 C-102.9902895 180.85130542 -83.49406557 171.66343111 -68 158 C-67.2059375 157.32582031 -66.411875 156.65164063 -65.59375 155.95703125 C-27.49581328 122.8624628 -8.53235573 76.96031222 -1 28 C-0.67 18.76 -0.34 9.52 0 0 Z " fill="#FEFEFE" transform="translate(401,813)"/>
<path d="M0 0 C79 0 79 0 92 11 C95.03601745 14.93557817 97.26545713 18.57056825 99.51953125 22.95703125 C103.74875749 31.14806193 108.61952732 38.04412701 114.45263672 45.12158203 C116.08449525 47.10257281 117.70171583 49.09483951 119.31640625 51.08984375 C121.54339863 53.83986636 123.77513712 56.58589592 126.01171875 59.328125 C128.98301437 62.97400003 131.92099396 66.64555148 134.8515625 70.32421875 C136.56628271 72.45982483 138.29092583 74.58590389 140.0234375 76.70703125 C145.12910159 82.95901874 150.22108743 89.21280029 155.125 95.625 C155.91777344 96.66140625 156.71054687 97.6978125 157.52734375 98.765625 C157.92679199 99.28833984 158.32624023 99.81105469 158.73779297 100.34960938 C167.01544208 111.36793466 167.01544208 111.36793466 176.390625 121.43359375 C178.83776992 123.81540227 181.03697729 126.39386173 183.25 128.9921875 C184.3759653 130.28403161 185.54095528 131.54337026 186.75 132.7578125 C196.20317367 142.50639785 200.18749538 154.9384831 200.125 168.25 C200.12886719 169.05824219 200.13273438 169.86648438 200.13671875 170.69921875 C200.13478516 171.90771484 200.13478516 171.90771484 200.1328125 173.140625 C200.13168457 173.85766602 200.13055664 174.57470703 200.12939453 175.31347656 C199.94111425 179.22260146 199.43219106 183.1102805 199 187 C133.33 187 67.66 187 0 187 C0 125.29 0 63.58 0 0 Z " fill="#FEFEFE" transform="translate(651,313)"/>
<path d="M0 0 C1.63095641 3.26191283 2.85218081 6.39134052 4.00317383 9.8371582 C8.36852583 22.844737 14.43476727 33.23314055 23 44 C23.5878125 44.75539063 24.175625 45.51078125 24.78125 46.2890625 C35.00759829 58.78257291 50.34839979 65.4286147 66 68 C71.75575113 68.54492421 77.53545898 68.5996915 83.3125 68.6875 C84.84312628 68.72077096 86.3737264 68.75526912 87.90429688 68.79101562 C91.60267175 68.8747774 95.30111897 68.94210002 99 69 C99.01458252 69.54599854 99.02916504 70.09199707 99.04418945 70.65454102 C100.71572108 127.49252264 118.2951104 180.92173664 160 221 C178.73723594 237.84500136 202.95280585 251.05138351 228 255 C228 255.33 228 255.66 228 256 C152.76 256 77.52 256 0 256 C0 171.52 0 87.04 0 0 Z " fill="#FEFEFE" transform="translate(0,744)"/>
<path d="M0 0 C0.33 0 0.66 0 1 0 C1 76.23 1 152.46 1 231 C-73.58 231 -148.16 231 -225 231 C-225 230.67 -225 230.34 -225 230 C-223.9584375 229.79246094 -222.916875 229.58492187 -221.84375 229.37109375 C-201.41330162 225.07437594 -181.72948562 215.87103612 -166 202 C-165.2059375 201.32582031 -164.411875 200.65164063 -163.59375 199.95703125 C-124.17655725 165.7164635 -102.77238807 115.63630813 -99.09066772 64.13848877 C-98.64084289 57.43019418 -98.29159808 50.7169994 -98 44 C-97.38771545 44.00444122 -96.77543091 44.00888245 -96.14459229 44.01345825 C-89.71962845 44.05801717 -83.29470917 44.08800034 -76.86962891 44.10986328 C-74.47800918 44.11986466 -72.0864015 44.13347009 -69.69482422 44.15087891 C-66.23922738 44.17538669 -62.78379349 44.18654208 -59.328125 44.1953125 C-57.74768402 44.21079636 -57.74768402 44.21079636 -56.13531494 44.22659302 C-41.28212492 44.22879245 -27.90629885 41.4725488 -16.80078125 30.96484375 C-8.93010779 22.37710243 -2.59169337 11.40345081 0 0 Z " fill="#FEFEFE" transform="translate(999,769)"/>
<path d="M0 0 C10.99984315 8.67679935 18.49350604 18.52364558 24.91796875 30.828125 C25.7378125 32.26671875 25.7378125 32.26671875 26.57421875 33.734375 C39.64939436 58.55052463 38.51424711 89.81088512 30.66796875 116.015625 C24.0410061 136.67719593 11.28183133 155.00170543 -7.62890625 166.0703125 C-23.82722591 174.31606346 -39.61723287 176.10366649 -57.00292969 170.56884766 C-77.1875157 163.37767411 -91.54626212 150.05575382 -101.07714844 130.96777344 C-103.67200843 125.44266338 -105.67909377 119.7529911 -107.44873047 113.91650391 C-107.85696446 112.57030747 -108.27944826 111.2283101 -108.71923828 109.89208984 C-117.77793536 82.0417963 -111.99522174 51.41635833 -99.08056641 25.84521484 C-89.82359644 8.65633744 -75.01475821 -4.53104173 -56.2578125 -10.4296875 C-35.51047058 -16.41047141 -17.38809905 -12.25321048 0 0 Z " fill="#FEFEFE" transform="translate(288.08203125,732.171875)"/>
<path d="M0 0 C20.02422732 16.91589138 29.77282318 40.48689493 32.6875 66.125 C34.96610942 95.17332337 27.65767006 124.62331558 8.6875 147.125 C-2.6775201 160.1786458 -18.27666427 169.75592231 -35.7578125 171.34765625 C-53.54942428 171.95841307 -71.67152217 166.01485028 -85.12109375 154.2265625 C-86.20583984 153.18628906 -86.20583984 153.18628906 -87.3125 152.125 C-88.06660156 151.41085937 -88.82070313 150.69671875 -89.59765625 149.9609375 C-110.17828388 128.85079115 -115.90913514 98.15464504 -115.58984375 69.80078125 C-115.34569304 61.20691934 -113.87529559 53.31023525 -111.3125 45.125 C-111.10351074 44.44824219 -110.89452148 43.77148438 -110.67919922 43.07421875 C-103.96453957 22.02992214 -92.14920735 2.83488383 -72.12792969 -7.76831055 C-46.64962052 -20.6685034 -22.28510176 -16.98895103 0 0 Z " fill="#FEFEFE" transform="translate(791.3125,734.875)"/>
<path d="M0 0 C20.46 0 40.92 0 62 0 C58.71192034 1.64403983 55.92363487 2.6616201 52.4375 3.6875 C32.09485886 10.41070582 18.38938912 27.73456701 8.86816406 46.19140625 C5.24483722 53.73966418 2.79560333 61.83816668 1 70 C0.67 70 0.34 70 0 70 C0 46.9 0 23.8 0 0 Z " fill="#FDFDFD" transform="translate(0,0)"/>
<path d="M0 0 C0.33 0 0.66 0 1 0 C1 6.93 1 13.86 1 21 C0.34 21 -0.32 21 -1 21 C-1 21.66 -1 22.32 -1 23 C-2.98 23 -4.96 23 -7 23 C-7 24.65 -7 26.3 -7 28 C-8.65 27.67 -10.3 27.34 -12 27 C-13.20628008 29.33214148 -14.1654738 31.49642139 -15 34 C-16.87617698 35.84499398 -18.92737609 37.3683599 -21 39 C-21.66 38.01 -22.32 37.02 -23 36 C-22.25556641 35.41605469 -22.25556641 35.41605469 -21.49609375 34.8203125 C-10.90952017 26.10195779 -3.05169347 13.42745128 0 0 Z " fill="#F5F7F3" transform="translate(999,769)"/>
<path d="M0 0 C0.33 0.66 0.66 1.32 1 2 C-0.32 2 -1.64 2 -3 2 C-3 2.66 -3 3.32 -3 4 C-1.68 4 -0.36 4 1 4 C1 5.32 1 6.64 1 8 C1.9590625 8.1546875 1.9590625 8.1546875 2.9375 8.3125 C3.9584375 8.6528125 3.9584375 8.6528125 5 9 C5.33 9.99 5.66 10.98 6 12 C6.99 12.33 7.98 12.66 9 13 C8.34 14.32 7.68 15.64 7 17 C9.89186786 18.33304698 9.89186786 18.33304698 12.1875 17.0625 C12.785625 16.711875 13.38375 16.36125 14 16 C14.57233937 18.20759471 15.06218296 20.37309778 15.4375 22.625 C15.82100329 25.17107484 15.82100329 25.17107484 18 27 C18 27.66 18 28.32 18 29 C17.01 29 16.02 29 15 29 C13.4140625 27.375 13.4140625 27.375 11.625 25 C10.93664062 24.1028125 10.24828125 23.205625 9.5390625 22.28125 C9.14750977 21.76949219 8.75595703 21.25773437 8.35253906 20.73046875 C6.79665555 18.73983656 5.19551823 16.79120966 3.5859375 14.84375 C2.99474121 14.12703125 2.40354492 13.4103125 1.79443359 12.671875 C0.60484188 11.2320644 -0.58751391 9.79453274 -1.78271484 8.359375 C-2.6018335 7.36164063 -2.6018335 7.36164063 -3.4375 6.34375 C-3.93121094 5.74755859 -4.42492187 5.15136719 -4.93359375 4.53710938 C-6 3 -6 3 -6 1 C-4.02 0.67 -2.04 0.34 0 0 Z " fill="#F5F6F2" transform="translate(823,240)"/>
<path d="M0 0 C2.125 0.9375 2.125 0.9375 4 2 C3.67 3.65 3.34 5.3 3 7 C1.01432292 6.93489583 -0.97135417 6.86979167 -2.95703125 6.8046875 C-5.31359719 6.86745538 -5.31359719 6.86745538 -8 9 C-7.01 9.33 -6.02 9.66 -5 10 C-5.33 11.65 -5.66 13.3 -6 15 C-6.66 14.34 -7.32 13.68 -8 13 C-8 12.01 -8 11.02 -8 10 C-8.66 10 -9.32 10 -10 10 C-9.67 11.65 -9.34 13.3 -9 15 C-10.32 14.34 -11.64 13.68 -13 13 C-12.67 14.65 -12.34 16.3 -12 18 C-13.98 17.34 -15.96 16.68 -18 16 C-13.07618273 9.78044134 -7.18612203 3.59306102 0 0 Z M-15 18 C-14.67 18 -14.34 18 -14 18 C-14 19.65 -14 21.3 -14 23 C-14.66 23 -15.32 23 -16 23 C-15.67 21.35 -15.34 19.7 -15 18 Z " fill="#F5F9F4" transform="translate(716,729)"/>
<path d="M0 0 C2 2 2 2 2 6 C-0.87354245 8.17457267 -2.36436591 9 -6 9 C-5.67 10.32 -5.34 11.64 -5 13 C-5.66 13 -6.32 13 -7 13 C-7 14.32 -7 15.64 -7 17 C-8.98 17 -10.96 17 -13 17 C-13 18.32 -13 19.64 -13 21 C-15.66559313 22.77706209 -18.0280615 23.87548273 -21 25 C-20.54269548 20.39486322 -19.09009219 18.76971684 -15.5625 15.875 C-9.84713847 10.98436597 -4.95708309 5.64263713 0 0 Z " fill="#F5F7F3" transform="translate(853,951)"/>
<path d="M0 0 C1.77503906 0.61488281 1.77503906 0.61488281 3.5859375 1.2421875 C11.66998803 4.0098081 19.5386229 6.63526176 28 8 C28 8.33 28 8.66 28 9 C23.89589245 9.05796132 19.79188984 9.09358313 15.6875 9.125 C14.52025391 9.14175781 13.35300781 9.15851562 12.15039062 9.17578125 C10.47299805 9.18544922 10.47299805 9.18544922 8.76171875 9.1953125 C7.2142395 9.21102295 7.2142395 9.21102295 5.63549805 9.22705078 C3 9 3 9 0 7 C0.66 7 1.32 7 2 7 C2 6.01 2 5.02 2 4 C1.34 3.67 0.68 3.34 0 3 C0 2.01 0 1.02 0 0 Z " fill="#F5F8F4" transform="translate(200,991)"/>
<path d="M0 0 C0.391875 0.495 0.78375 0.99 1.1875 1.5 C3.55091715 3.45593143 5.01435003 3.24207973 8 3 C7.6875 6.375 7.6875 6.375 7 10 C6.01 10.66 5.02 11.32 4 12 C4.28875 12.64066406 4.5775 13.28132812 4.875 13.94140625 C7.14884287 19.23914432 8.50141512 23.23372609 8 29 C7.34 29.33 6.68 29.66 6 30 C-0.4375 8.3125 -0.4375 8.3125 0 0 Z " fill="#F3F6F2" transform="translate(176,821)"/>
<path d="M0 0 C3.85955925 3.74666538 7.36619254 7.68521322 10.8125 11.8125 C11.31458984 12.40998047 11.81667969 13.00746094 12.33398438 13.62304688 C13.55806732 15.08028848 14.77932962 16.53989865 16 18 C15.401875 18.144375 14.80375 18.28875 14.1875 18.4375 C12.43849596 18.8872439 10.71322977 19.42892341 9 20 C7.88158632 17.91229447 7.0291824 16.14591199 6.5625 13.8125 C6.376875 13.214375 6.19125 12.61625 6 12 C5.01 11.67 4.02 11.34 3 11 C3.66 10.01 4.32 9.02 5 8 C4.34 8 3.68 8 3 8 C3 8.66 3 9.32 3 10 C2.01 9.67 1.02 9.34 0 9 C-1.125 2.25 -1.125 2.25 0 0 Z " fill="#F3F6F2" transform="translate(137,940)"/>
<path d="M0 0 C0.66 0.66 1.32 1.32 2 2 C4.10820797 1.6814823 4.10820797 1.6814823 6 1 C7.23578845 4.70736536 6.62471794 7.18227929 6 11 C6 13.42797311 6.50085685 15.62907005 7 18 C6.34 18.33 5.68 18.66 5 19 C5.33 19.33 5.66 19.66 6 20 C6.04080783 21.99958364 6.04254356 24.00045254 6 26 C5.34 26.33 4.68 26.66 4 27 C3.88406494 26.38479492 3.76812988 25.76958984 3.64868164 25.13574219 C3.12116829 22.34026415 2.59185297 19.54513024 2.0625 16.75 C1.88009766 15.78191406 1.69769531 14.81382812 1.50976562 13.81640625 C1.33251953 12.88183594 1.15527344 11.94726562 0.97265625 10.984375 C0.81031494 10.12553711 0.64797363 9.26669922 0.48071289 8.38183594 C0.03605288 6.01801413 0.03605288 6.01801413 -0.62329102 3.81347656 C-1 2 -1 2 0 0 Z " fill="#F3F7F2" transform="translate(945,416)"/>
<path d="M0 0 C0 2.31 0 4.62 0 7 C-8.58 7 -17.16 7 -26 7 C-26 6.67 -26 6.34 -26 6 C-24.83082031 5.73445312 -23.66164063 5.46890625 -22.45703125 5.1953125 C-20.90880583 4.83875149 -19.36063141 4.48196898 -17.8125 4.125 C-17.04357422 3.95097656 -16.27464844 3.77695312 -15.48242188 3.59765625 C-12.27072517 2.85331452 -9.26169748 2.10584696 -6.19921875 0.8671875 C-4 0 -4 0 0 0 Z " fill="#F3F6F2" transform="translate(800,993)"/>
<path d="M0 0 C2.03120707 3.04681061 2.24659875 3.60118324 2.1953125 7.01171875 C2.18564453 8.14770508 2.18564453 8.14770508 2.17578125 9.30664062 C2.15902344 10.09232422 2.14226563 10.87800781 2.125 11.6875 C2.11597656 12.48478516 2.10695313 13.28207031 2.09765625 14.10351562 C2.07411585 16.069139 2.03824547 18.03460775 2 20 C0.35 20 -1.3 20 -3 20 C-3.33 19.01 -3.66 18.02 -4 17 C-4.66 16.67 -5.32 16.34 -6 16 C-4.02 10.72 -2.04 5.44 0 0 Z " fill="#F4F7F3" transform="translate(686,764)"/>
<path d="M0 0 C1.35475475 2.58863918 2.43336059 5.09833455 3.2890625 7.890625 C3.50820313 8.59960938 3.72734375 9.30859375 3.953125 10.0390625 C4.17484375 10.76867187 4.3965625 11.49828125 4.625 12.25 C4.85445313 12.99507812 5.08390625 13.74015625 5.3203125 14.5078125 C5.88332007 16.3375871 6.44208228 18.16866703 7 20 C6.34 20.33 5.68 20.66 5 21 C5.33 21.99 5.66 22.98 6 24 C1.125 23.125 1.125 23.125 0 22 C-0.08700342 20.36527118 -0.10701063 18.72685945 -0.09765625 17.08984375 C-0.09443359 16.10048828 -0.09121094 15.11113281 -0.08789062 14.09179688 C-0.07951172 13.05087891 -0.07113281 12.00996094 -0.0625 10.9375 C-0.05798828 9.89271484 -0.05347656 8.84792969 -0.04882812 7.77148438 C-0.03699913 5.1809334 -0.02051689 2.59049441 0 0 Z " fill="#F6F9F7" transform="translate(0,744)"/>
<path d="M0 0 C3.53191322 3.43153914 6.7137505 6.97375062 9.8125 10.8125 C10.60269531 11.78832031 11.39289062 12.76414062 12.20703125 13.76953125 C13.09455078 14.87361328 13.09455078 14.87361328 14 16 C11.39902318 17.30048841 8.86044938 17.56471422 6 18 C6 15.69 6 13.38 6 11 C3.69 10.67 1.38 10.34 -1 10 C-1.125 3.375 -1.125 3.375 0 0 Z " fill="#F3F6F2" transform="translate(770,365)"/>
<path d="M0 0 C6.93 0 13.86 0 21 0 C17.65628667 1.67185666 14.5997158 2.85809931 11.0625 4 C7.31436549 5.21304985 3.64239317 6.49742897 0 8 C0 5.36 0 2.72 0 0 Z " fill="#F4F5F3" transform="translate(41,0)"/>
<path d="M0 0 C1.82724609 0.52400391 1.82724609 0.52400391 3.69140625 1.05859375 C5.31503709 1.51846607 6.93873879 1.97808822 8.5625 2.4375 C9.76229492 2.78264648 9.76229492 2.78264648 10.98632812 3.13476562 C15.65697671 4.45017278 20.17927153 5.43704245 25 6 C25 6.33 25 6.66 25 7 C21.08347368 7.08714316 17.16719689 7.14043985 13.25 7.1875 C12.13882813 7.21263672 11.02765625 7.23777344 9.8828125 7.26367188 C8.81289063 7.27333984 7.74296875 7.28300781 6.640625 7.29296875 C5.65610352 7.3086792 4.67158203 7.32438965 3.65722656 7.34057617 C0.60717591 6.94965182 -0.74113723 6.03157056 -3 4 C-2.34 3.67 -1.68 3.34 -1 3 C-0.67 2.01 -0.34 1.02 0 0 Z " fill="#F1F4F1" transform="translate(705,993)"/>
<path d="M0 0 C0.99 0 1.98 0 3 0 C3.66 0.99 4.32 1.98 5 3 C4.01 3 3.02 3 2 3 C3.32 3.33 4.64 3.66 6 4 C6.33 3.34 6.66 2.68 7 2 C6.67 3.98 6.34 5.96 6 8 C8.31 8 10.62 8 13 8 C13 10.66666667 13 13.33333333 13 16 C12.34 15.67 11.68 15.34 11 15 C11 14.34 11 13.68 11 13 C10.45601562 12.7628125 9.91203125 12.525625 9.3515625 12.28125 C6.38725905 10.66614779 3.97135087 8.6554611 1.375 6.5 C0.41335938 5.7059375 -0.54828125 4.911875 -1.5390625 4.09375 C-4 2 -4 2 -6 0 C-3 -1 -3 -1 0 0 Z " fill="#EFF3EE" transform="translate(616,9)"/>
<path d="M0 0 C1.2065625 0.0309375 1.2065625 0.0309375 2.4375 0.0625 C3.6669968 3.75099039 3.03735863 4.71161744 1.625 8.25 C-0.13395813 12.82694294 -1.48055927 17.28392845 -2.5625 22.0625 C-2.8925 22.0625 -3.2225 22.0625 -3.5625 22.0625 C-3.59137814 18.58335059 -3.60925687 15.10423169 -3.625 11.625 C-3.63337891 10.63177734 -3.64175781 9.63855469 -3.65039062 8.61523438 C-3.65361328 7.67099609 -3.65683594 6.72675781 -3.66015625 5.75390625 C-3.66539307 4.87935791 -3.67062988 4.00480957 -3.67602539 3.10375977 C-3.50444536 0.01864008 -3.10895855 0.07582826 0 0 Z " fill="#F5F8F5" transform="translate(3.5625,47.9375)"/>
<path d="M0 0 C1.84180245 3.47704761 3.22825139 7.07434577 4.625 10.75 C5.07101562 11.92046875 5.51703125 13.0909375 5.9765625 14.296875 C6.31429687 15.18890625 6.65203125 16.0809375 7 17 C6.34 17.66 5.68 18.32 5 19 C2.375 18.625 2.375 18.625 0 18 C-1.0478772 13.28455258 -1.06244608 9.03079168 -0.5 4.25 C-0.4071875 3.45078125 -0.314375 2.6515625 -0.21875 1.828125 C-0.1465625 1.22484375 -0.074375 0.6215625 0 0 Z " fill="#F3F6F3" transform="translate(609,885)"/>
<path d="M0 0 C0.33 0 0.66 0 1 0 C1 6.6 1 13.2 1 20 C0.67 20 0.34 20 0 20 C0 18.02 0 16.04 0 14 C-2.16666667 14.83333333 -2.16666667 14.83333333 -3 17 C-3.33 15.68 -3.66 14.36 -4 13 C-4.66 13 -5.32 13 -6 13 C-6 10.36 -6 7.72 -6 5 C-5.34 5 -4.68 5 -4 5 C-3.34 4.01 -2.68 3.02 -2 2 C-1.67 2.33 -1.34 2.66 -1 3 C-0.67 2.01 -0.34 1.02 0 0 Z " fill="#862B76" transform="translate(175,803)"/>
<path d="M0 0 C0.99 0.33 1.98 0.66 3 1 C3.50354867 3.43681587 4.00296756 5.87435439 4.5 8.3125 C4.64308594 9.00279297 4.78617188 9.69308594 4.93359375 10.40429688 C5.52625044 13.32524773 6 16.01108122 6 19 C4.68 18.34 3.36 17.68 2 17 C2.33 16.34 2.66 15.68 3 15 C1.68 15.99 0.36 16.98 -1 18 C-1.02688151 16.35425434 -1.04634123 14.70838587 -1.0625 13.0625 C-1.07410156 12.14597656 -1.08570313 11.22945312 -1.09765625 10.28515625 C-1 8 -1 8 0 7 C-0.165 6.01 -0.33 5.02 -0.5 4 C-0.665 3.01 -0.83 2.02 -1 1 C-0.67 0.67 -0.34 0.34 0 0 Z " fill="#F4F7F3" transform="translate(817,779)"/>
<path d="M0 0 C1.125 4.75 1.125 4.75 0 7 C1.98 7 3.96 7 6 7 C7.125 13.625 7.125 13.625 6 17 C6.33 17.99 6.66 18.98 7 20 C6.34 20 5.68 20 5 20 C3.68200981 17.58618654 2.37049082 15.16922404 1.0625 12.75 C0.68931641 12.06808594 0.31613281 11.38617187 -0.06835938 10.68359375 C-0.42607422 10.01972656 -0.78378906 9.35585938 -1.15234375 8.671875 C-1.48226318 8.0644043 -1.81218262 7.45693359 -2.15209961 6.83105469 C-3.04197691 4.90935018 -3.55141511 3.06548422 -4 1 C-2 0 -2 0 0 0 Z " fill="#8F2C7C" transform="translate(120,901)"/>
<path d="M0 0 C0.58265625 0.12117187 1.1653125 0.24234375 1.765625 0.3671875 C8.48572816 1.74079349 15.22907805 2.90641467 22 4 C22 4.33 22 4.66 22 5 C18.34542416 5.93254694 14.76939621 6.75051478 11 7 C8.3125 5.125 8.3125 5.125 7 3 C6.67 4.32 6.34 5.64 6 7 C4.35 7 2.7 7 1 7 C1 6.34 1 5.68 1 5 C0.01 5 -0.98 5 -2 5 C-1.67 4.01 -1.34 3.02 -1 2 C-0.67 2.33 -0.34 2.66 0 3 C0 2.01 0 1.02 0 0 Z " fill="#F8F9F4" transform="translate(50,809)"/>
<path d="M0 0 C0.598125 0.165 1.19625 0.33 1.8125 0.5 C4.47290863 1.1080934 6.79367859 1.02063214 9.5 0.75 C12 1 12 1 13.8125 2.875 C15 5 15 5 15 7 C10.92320841 8.6852084 8.16924407 7.16939007 4.25 5.5625 C3.07953125 5.08941406 1.9090625 4.61632812 0.703125 4.12890625 C-0.18890625 3.75636719 -1.0809375 3.38382813 -2 3 C-1.34 2.01 -0.68 1.02 0 0 Z " fill="#F4F7F3" transform="translate(224,896)"/>
<path d="M0 0 C0.84820313 0.00128906 1.69640625 0.00257813 2.5703125 0.00390625 C4.875 0.4375 4.875 0.4375 6.7421875 1.65234375 C7.875 3.4375 7.875 3.4375 6.875 8.4375 C-1.54 6.4575 -1.54 6.4575 -10.125 4.4375 C-4.45052954 -0.10207637 -4.45052954 -0.10207637 0 0 Z M1.875 1.4375 C2.875 4.4375 2.875 4.4375 2.875 4.4375 Z " fill="#F5F8F5" transform="translate(752.125,183.5625)"/>
<path d="M0 0 C0.99 0.99 1.98 1.98 3 3 C3 3.66 3 4.32 3 5 C2.34 5 1.68 5 1 5 C1.7763932 8.0745356 1.7763932 8.0745356 4 10 C3.34 11.98 2.68 13.96 2 16 C-0.31 16.33 -2.62 16.66 -5 17 C-3.35 11.39 -1.7 5.78 0 0 Z " fill="#F4F9F6" transform="translate(892,878)"/>
<path d="M0 0 C0.33 0 0.66 0 1 0 C1.66 5.61 2.32 11.22 3 17 C1.02 17.99 1.02 17.99 -1 19 C-1.66 19.66 -2.32 20.32 -3 21 C-3.22281874 19.08496326 -3.42771076 17.16783494 -3.625 15.25 C-3.74101563 14.18265625 -3.85703125 13.1153125 -3.9765625 12.015625 C-4.00029475 8.96207601 -3.61420985 7.53837579 -2 5 C-1.34 5 -0.68 5 0 5 C0 3.35 0 1.7 0 0 Z " fill="#F4F6F3" transform="translate(100,843)"/>
<path d="M0 0 C1.4540625 0.0309375 1.4540625 0.0309375 2.9375 0.0625 C2.9375 2.0625 2.9375 4.0625 2.9375 6.0625 C3.5975 6.3925 4.2575 6.7225 4.9375 7.0625 C4.9375 8.0525 4.9375 9.0425 4.9375 10.0625 C4.2775 10.0625 3.6175 10.0625 2.9375 10.0625 C3.2675 12.0425 3.5975 14.0225 3.9375 16.0625 C3.2775 16.0625 2.6175 16.0625 1.9375 16.0625 C-0.0425 11.1125 -2.0225 6.1625 -4.0625 1.0625 C-3.0625 0.0625 -3.0625 0.0625 0 0 Z " fill="#F2F7F3" transform="translate(939.0625,393.9375)"/>
<path d="M0 0 C0.33 0.66 0.66 1.32 1 2 C3.12576782 2.46651207 3.12576782 2.46651207 5.5625 2.625 C6.38878906 2.69976562 7.21507812 2.77453125 8.06640625 2.8515625 C8.70449219 2.90054687 9.34257813 2.94953125 10 3 C10 4.32 10 5.64 10 7 C9.01 7.495 9.01 7.495 8 8 C9.3089572 11.12197478 9.3089572 11.12197478 12 13 C11.34 13 10.68 13 10 13 C9.67 13.99 9.34 14.98 9 16 C7.29962669 13.90516399 5.61493394 11.80057275 3.9375 9.6875 C3.45216797 9.09259766 2.96683594 8.49769531 2.46679688 7.88476562 C1.23128751 6.3162821 0.10706635 4.66163416 -1 3 C-0.67 2.01 -0.34 1.02 0 0 Z " fill="#F3F8F3" transform="translate(894,334)"/>
<path d="M0 0 C9.67550265 -0.68837568 9.67550265 -0.68837568 13.625 1.875 C14.40875 2.57625 15.1925 3.2775 16 4 C16 4.66 16 5.32 16 6 C15.34 6 14.68 6 14 6 C13.67 7.32 13.34 8.64 13 10 C10.8304939 8.52485505 8.66436293 7.0451561 6.5 5.5625 C5.87996094 5.14162109 5.25992188 4.72074219 4.62109375 4.28710938 C3.06289602 3.21691863 1.52921949 2.11120482 0 1 C0 0.67 0 0.34 0 0 Z " fill="#F7FBF7" transform="translate(776,200)"/>
<path d="M0 0 C1.1446875 0.2784375 1.1446875 0.2784375 2.3125 0.5625 C5.08967375 1.22819173 5.08967375 1.22819173 8 0 C10 2 10 2 10.1953125 3.9453125 C10.13020833 5.96354167 10.06510417 7.98177083 10 10 C10.66 10.33 11.32 10.66 12 11 C11.01 11.99 10.02 12.98 9 14 C2.66514806 4.58997722 2.66514806 4.58997722 0 0 Z " fill="#F4F7F5" transform="translate(918,368)"/>
<path d="M0 0 C1.0625 1.875 1.0625 1.875 2 4 C1.67 4.66 1.34 5.32 1 6 C-1.97 5.505 -1.97 5.505 -5 5 C-5 7.31 -5 9.62 -5 12 C-6.98 12.99 -6.98 12.99 -9 14 C-9 13.34 -9 12.68 -9 12 C-10.32 11.67 -11.64 11.34 -13 11 C-11.6390377 6.91711311 -9.52046678 6.11314183 -5.9375 3.8125 C-4.83277344 3.09707031 -3.72804688 2.38164063 -2.58984375 1.64453125 C-1.73519531 1.10183594 -0.88054687 0.55914063 0 0 Z " fill="#962583" transform="translate(291,890)"/>
<path d="M0 0 C3.56209707 1.78104853 6.17290369 3.58372797 9.25 6.0625 C10.14203125 6.77535156 11.0340625 7.48820313 11.953125 8.22265625 C12.62859375 8.80917969 13.3040625 9.39570312 14 10 C14 10.33 14 10.66 14 11 C10.49621063 11.10010827 7.42219494 10.72046209 4 10 C3.01 10 2.02 10 1 10 C0.67 6.7 0.34 3.4 0 0 Z " fill="#F5F7F2" transform="translate(160,966)"/>
<path d="M0 0 C1.423125 0.2784375 1.423125 0.2784375 2.875 0.5625 C5.89868793 1.28686632 5.89868793 1.28686632 8 0 C8 6.27 8 12.54 8 19 C5.92475055 15.88712582 4.75592914 12.99482112 3.4375 9.5 C3.00308594 8.3553125 2.56867187 7.210625 2.12109375 6.03125 C1.38184839 4.0324542 0.67391901 2.02175704 0 0 Z " fill="#F5F8F5" transform="translate(992,712)"/>
<path d="M0 0 C0.99 0.66 1.98 1.32 3 2 C3.1875 4.4375 3.1875 4.4375 3 7 C2.84188612 10.05270463 2.84188612 10.05270463 4 13 C3.01 13.495 3.01 13.495 2 14 C0.66081194 12.37982158 -0.6711969 10.75370657 -2 9.125 C-2.7425 8.22007812 -3.485 7.31515625 -4.25 6.3828125 C-6 4 -6 4 -6 2 C-3.1875 0.875 -3.1875 0.875 0 0 Z " fill="#F5F7F4" transform="translate(805,216)"/>
<path d="M0 0 C0.33 1.32 0.66 2.64 1 4 C0.34 4 -0.32 4 -1 4 C-1.77403558 8.06368679 -2.0984702 11.86425173 -2 16 C-4 17 -4 17 -7 17 C-7.99 16.67 -8.98 16.34 -10 16 C-9.44151174 11.81641523 -6.95553698 8.97370431 -4.4375 5.75 C-4.01275391 5.19570313 -3.58800781 4.64140625 -3.15039062 4.0703125 C-2.10601659 2.70910589 -1.05377536 1.35394167 0 0 Z " fill="#F1F5F2" transform="translate(866,934)"/>
<path d="M0 0 C-0.66 1.65 -1.32 3.3 -2 5 C-2.99 4.67 -3.98 4.34 -5 4 C-5.33 4.99 -5.66 5.98 -6 7 C-11.61 7 -17.22 7 -23 7 C-23 6.67 -23 6.34 -23 6 C-21.90300781 5.73445312 -20.80601562 5.46890625 -19.67578125 5.1953125 C-18.22130753 4.83873185 -16.76688302 4.4819504 -15.3125 4.125 C-14.59126953 3.95097656 -13.87003906 3.77695312 -13.12695312 3.59765625 C-8.89122416 2.55322993 -4.25933922 0 0 0 Z " fill="#F1F3F0" transform="translate(298,993)"/>
<path d="M0 0 C0.68707555 2.49064888 1 4.37886292 1 7 C-3.875 8 -3.875 8 -5 8 C-5.309375 8.94875 -5.61875 9.8975 -5.9375 10.875 C-7 14 -7 14 -8 16 C-9.65 16 -11.3 16 -13 16 C-9.24841068 9.93974033 -5.24927977 4.82995861 0 0 Z " fill="#F2F4F1" transform="translate(206,736)"/>
<path d="M0 0 C0.66 1.32 1.32 2.64 2 4 C3.65 3.67 5.3 3.34 7 3 C7.66 4.32 8.32 5.64 9 7 C8.34 7 7.68 7 7 7 C7.66 8.65 8.32 10.3 9 12 C8.34 12.66 7.68 13.32 7 14 C5.68227638 12.40012144 4.37098863 10.79494034 3.0625 9.1875 C2.33160156 8.29417969 1.60070312 7.40085937 0.84765625 6.48046875 C-1 4 -1 4 -2 1 C-1.34 0.67 -0.68 0.34 0 0 Z " fill="#F2F7F3" transform="translate(694,870)"/>
<path d="M0 0 C4.571279 0.54855348 8.67435795 1.41744803 13 3 C13.33 4.65 13.66 6.3 14 8 C12.35 8.66 10.7 9.32 9 10 C8.60167969 9.52949219 8.20335937 9.05898438 7.79296875 8.57421875 C7.26316406 7.95160156 6.73335937 7.32898438 6.1875 6.6875 C5.66542969 6.07261719 5.14335938 5.45773437 4.60546875 4.82421875 C3.12827531 3.14575321 1.59960869 1.56117966 0 0 Z " fill="#F6F8F5" transform="translate(978,695)"/>
<path d="M0 0 C4.25209792 4.12324647 8.13635705 8.51282966 12 13 C10.68 13.99 9.36 14.98 8 16 C7.67386719 15.52949219 7.34773437 15.05898438 7.01171875 14.57421875 C6.57472656 13.95160156 6.13773438 13.32898438 5.6875 12.6875 C5.25824219 12.07261719 4.82898438 11.45773437 4.38671875 10.82421875 C3.04070466 9.05354669 1.60807197 7.53261991 0 6 C0.66 5.67 1.32 5.34 2 5 C1.34 4.67 0.68 4.34 0 4 C0 2.68 0 1.36 0 0 Z " fill="#933080" transform="translate(878,319)"/>
<path d="M0 0 C0.33 0.66 0.66 1.32 1 2 C0.67 2.66 0.34 3.32 0 4 C0.66 4.33 1.32 4.66 2 5 C1.01 5.33 0.02 5.66 -1 6 C-1.66 5.67 -2.32 5.34 -3 5 C-3.33 5.99 -3.66 6.98 -4 8 C-6.64 8 -9.28 8 -12 8 C-12 6.68 -12 5.36 -12 4 C-8.04 2.68 -4.08 1.36 0 0 Z " fill="#F3F6F3" transform="translate(238,720)"/>
<path d="M0 0 C0.66 0 1.32 0 2 0 C2 0.66 2 1.32 2 2 C2.99 2 3.98 2 5 2 C3.53967505 7.31027254 1.01679014 11.46330032 -2 16 C-2.66 15.34 -3.32 14.68 -4 14 C-3.67 13.484375 -3.34 12.96875 -3 12.4375 C-1.77463841 9.88979028 -1.77463841 9.88979028 -2 6.4375 C-2 3 -2 3 0 0 Z " fill="#912E7E" transform="translate(373,912)"/>
<path d="M0 0 C0.66 0 1.32 0 2 0 C2.55561711 2.62275173 3.09492378 5.24707977 3.625 7.875 C3.78484375 8.62136719 3.9446875 9.36773438 4.109375 10.13671875 C4.49370627 12.0758447 4.75531287 14.03835574 5 16 C4.34 16.66 3.68 17.32 3 18 C0.875 17.625 0.875 17.625 -1 17 C-1 16.34 -1 15.68 -1 15 C-0.01 15 0.98 15 2 15 C1.34 14.67 0.68 14.34 0 14 C0 12.02 0 10.04 0 8 C-0.66 7.67 -1.32 7.34 -2 7 C-1.34 7 -0.68 7 0 7 C0 4.69 0 2.38 0 0 Z " fill="#F5FAF5" transform="translate(602,861)"/>
<path d="M0 0 C0.33 0.66 0.66 1.32 1 2 C3.02463255 2.65213292 3.02463255 2.65213292 5 3 C4.34 4.98 3.68 6.96 3 9 C2.34 8.67 1.68 8.34 1 8 C0.67 8.66 0.34 9.32 0 10 C0.66 10.33 1.32 10.66 2 11 C2.33 11.99 2.66 12.98 3 14 C2.01 14 1.02 14 0 14 C-0.66 16.97 -1.32 19.94 -2 23 C-2.33 23 -2.66 23 -3 23 C-3.48350422 15.10276444 -1.67664721 7.66467297 0 0 Z " fill="#EEEDED" transform="translate(179,783)"/>
<path d="M0 0 C1.5 1.125 1.5 1.125 3 3 C3.125 5.875 3.125 5.875 3 9 C3.291224 10.67453799 3.61070799 12.34550895 4 14 C2.68 14.33 1.36 14.66 0 15 C-2.28571429 6.57142857 -2.28571429 6.57142857 -2 2 C-1.34 2 -0.68 2 0 2 C0 1.34 0 0.68 0 0 Z " fill="#932E83" transform="translate(2,737)"/>
<path d="M0 0 C0.66 0 1.32 0 2 0 C2.09278428 3.34023421 1.82810826 5.68756695 1 9 C-2.3 9 -5.6 9 -9 9 C-8 6 -8 6 -6.1875 5.0625 C-5.465625 4.711875 -4.74375 4.36125 -4 4 C-3.29875 3.29875 -2.5975 2.5975 -1.875 1.875 C-1.25625 1.25625 -0.6375 0.6375 0 0 Z " fill="#F8F8F7" transform="translate(301,991)"/>
<path d="M0 0 C3.51098025 4.01254885 5.76537994 8.20983041 8 13 C6.02 13.33 4.04 13.66 2 14 C-0.4008063 10.15870991 -0.64225559 6.43603065 -1 2 C-0.67 1.34 -0.34 0.68 0 0 Z " fill="#F1F2EE" transform="translate(121,914)"/>
<path d="M0 0 C0.66 0.66 1.32 1.32 2 2 C-0.31 4.97 -2.62 7.94 -5 11 C-8.31012244 7.68987756 -8.50351065 6.46840411 -9 2 C-5.94736336 1.01879536 -4.05263664 1.01879536 -1 2 C-0.67 1.34 -0.34 0.68 0 0 Z " fill="#F4F7F3" transform="translate(305,871)"/>
<path d="M0 0 C0.99 0.99 1.98 1.98 3 3 C2.360625 3.433125 1.72125 3.86625 1.0625 4.3125 C-1.26746003 5.91239177 -1.26746003 5.91239177 -2 9 C-3.33333333 9.66666667 -4.66666667 10.33333333 -6 11 C-6.33 11.66 -6.66 12.32 -7 13 C-8.32 12.67 -9.64 12.34 -11 12 C-8.47295673 6.78797325 -4.38226641 3.6119868 0 0 Z " fill="#F5F8F4" transform="translate(342,963)"/>
<path d="M0 0 C2.33333333 2.33333333 4.66666667 4.66666667 7 7 C7 8.32 7 9.64 7 11 C5.02 11.33 3.04 11.66 1 12 C0.855625 10.906875 0.71125 9.81375 0.5625 8.6875 C0.11711896 5.06877013 0.11711896 5.06877013 -1 2 C-0.67 1.34 -0.34 0.68 0 0 Z " fill="#F4F7F5" transform="translate(801,404)"/>
<path d="M0 0 C0.99 0.33 1.98 0.66 3 1 C3.33 2.98 3.66 4.96 4 7 C0.6659053 9.19097652 -2.04179141 10.43454163 -6 11 C-4.54955729 6.89041233 -2.48889248 3.56741255 0 0 Z " fill="#F5F9F6" transform="translate(372,925)"/>
<path d="M0 0 C0.66 0 1.32 0 2 0 C3.09857724 6.1676029 3.11539104 12.18415123 3.0625 18.4375 C3.05798828 19.45521484 3.05347656 20.47292969 3.04882812 21.52148438 C3.03712437 24.01438509 3.02072848 26.50716074 3 29 C1.02831107 25.38409988 0.78497732 22.89104342 0.875 18.75 C0.89304687 17.67234375 0.91109375 16.5946875 0.9296875 15.484375 C0.95289063 14.66453125 0.97609375 13.8446875 1 13 C0.34 13 -0.32 13 -1 13 C-0.67 8.71 -0.34 4.42 0 0 Z " fill="#E8EBE6" transform="translate(321,794)"/>
<path d="M0 0 C2.39073149 2.93189994 3.84107307 5.72143288 5.1875 9.25 C5.53167969 10.14203125 5.87585938 11.0340625 6.23046875 11.953125 C6.48441406 12.62859375 6.73835938 13.3040625 7 14 C6.01 14.495 6.01 14.495 5 15 C2.875 14.0625 2.875 14.0625 1 13 C1.33 12.34 1.66 11.68 2 11 C1.34 11 0.68 11 0 11 C-0.19406478 9.35492782 -0.38007935 7.70890406 -0.5625 6.0625 C-0.66691406 5.14597656 -0.77132812 4.22945312 -0.87890625 3.28515625 C-0.91886719 2.53105469 -0.95882812 1.77695312 -1 1 C-0.67 0.67 -0.34 0.34 0 0 Z " fill="#F2F5F3" transform="translate(113,897)"/>
<path d="M0 0 C2 0 4 0 6 0 C6.144375 0.598125 6.28875 1.19625 6.4375 1.8125 C6.8872439 3.56150404 7.42892341 5.28677023 8 7 C7.67 7.66 7.34 8.32 7 9 C7.99 9.66 8.98 10.32 10 11 C8.35 11.33 6.7 11.66 5 12 C1.04720692 7.67663257 1.04720692 7.67663257 0.8125 4.3125 C0.874375 3.549375 0.93625 2.78625 1 2 C0.67 1.34 0.34 0.68 0 0 Z " fill="#F4F8F4" transform="translate(864,296)"/>
<path d="M0 0 C1.52519276 0.08937803 3.04681929 0.24537146 4.5625 0.4375 C5.80193359 0.59025391 5.80193359 0.59025391 7.06640625 0.74609375 C7.70449219 0.82988281 8.34257813 0.91367187 9 1 C8.67 2.65 8.34 4.3 8 6 C6.68 5.67 5.36 5.34 4 5 C4 5.66 4 6.32 4 7 C5.32 7.33 6.64 7.66 8 8 C8 8.66 8 9.32 8 10 C7.01 10.33 6.02 10.66 5 11 C3.02 7.7 1.04 4.4 -1 1 C-0.67 0.67 -0.34 0.34 0 0 Z " fill="#F0F5F1" transform="translate(631,25)"/>
<path d="M0 0 C1.98 0.66 3.96 1.32 6 2 C5.7452486 3.31571603 5.47065859 4.62760376 5.1875 5.9375 C5.03667969 6.66839844 4.88585937 7.39929688 4.73046875 8.15234375 C4.48941406 8.76207031 4.24835938 9.37179687 4 10 C3.01 10.33 2.02 10.66 1 11 C0.01 10.01 -0.98 9.02 -2 8 C-1.67 7.67 -1.34 7.34 -1 7 C-1 6.34 -1 5.68 -1 5 C-0.34 5 0.32 5 1 5 C1 4.34 1 3.68 1 3 C0.34 3 -0.32 3 -1 3 C-0.67 2.01 -0.34 1.02 0 0 Z " fill="#F2F8F4" transform="translate(314,840)"/>
<path d="M0 0 C1.32 0.33 2.64 0.66 4 1 C4.144375 1.763125 4.28875 2.52625 4.4375 3.3125 C4.9632594 6.08172908 4.9632594 6.08172908 6 9 C6.66 9 7.32 9 8 9 C8.93065133 11.60582371 9.14917407 12.64198224 8.0625 15.25 C7.711875 15.8275 7.36125 16.405 7 17 C3.49642517 14.29953688 2.91732905 10.96513333 1.8125 6.8125 C1.46832031 5.54019531 1.12414062 4.26789062 0.76953125 2.95703125 C0.51558594 1.98121094 0.26164063 1.00539063 0 0 Z " fill="#F0F5F0" transform="translate(679,840)"/>
<path d="M0 0 C0.66 0 1.32 0 2 0 C2.33 0.66 2.66 1.32 3 2 C3.66 1.34 4.32 0.68 5 0 C7.125 0.375 7.125 0.375 9 1 C8.75390625 2.859375 8.75390625 2.859375 8 5 C6.15234375 6.265625 6.15234375 6.265625 3.9375 7.25 C2.83728516 7.75273438 2.83728516 7.75273438 1.71484375 8.265625 C0.86599609 8.62914062 0.86599609 8.62914062 0 9 C0 7.68 0 6.36 0 5 C-0.33 4.01 -0.66 3.02 -1 2 C-0.67 1.34 -0.34 0.68 0 0 Z " fill="#992085" transform="translate(810,978)"/>
<path d="M0 0 C0.99 0 1.98 0 3 0 C4.421875 1.6796875 4.421875 1.6796875 5.75 3.875 C6.19859375 4.59429688 6.6471875 5.31359375 7.109375 6.0546875 C7.40328125 6.69664062 7.6971875 7.33859375 8 8 C7.67 8.66 7.34 9.32 7 10 C4.9375 10.625 4.9375 10.625 3 11 C3 9.68 3 8.36 3 7 C2.67 7.66 2.34 8.32 2 9 C1.34 9 0.68 9 0 9 C0 6.03 0 3.06 0 0 Z " fill="#F2F5F5" transform="translate(802,749)"/>
<path d="M0 0 C0.99 0.33 1.98 0.66 3 1 C4.07637127 4.87493656 3.94566951 6.52452927 2 10 C0.82460004 9.07347299 -0.34010577 8.13336613 -1.5 7.1875 C-2.47453125 6.40439453 -2.47453125 6.40439453 -3.46875 5.60546875 C-5 4 -5 4 -5 1 C-3.68 1 -2.36 1 -1 1 C-0.67 0.67 -0.34 0.34 0 0 Z " fill="#F5FAF5" transform="translate(796,208)"/>
<path d="M0 0 C0.99 0.99 1.98 1.98 3 3 C2.34 3 1.68 3 1 3 C1 3.66 1 4.32 1 5 C1.66 5.33 2.32 5.66 3 6 C2.67 7.32 2.34 8.64 2 10 C1.34 10 0.68 10 0 10 C-0.33 10.66 -0.66 11.32 -1 12 C-2 12 -2 12 -6 10 C-4.02 6.7 -2.04 3.4 0 0 Z " fill="#F2F5F0" transform="translate(877,916)"/>
<path d="M0 0 C3.07305289 0.36583963 4.25819 1.4039447 6.625 3.3125 C4.70987728 3.81838147 2.79283078 4.31698391 0.875 4.8125 C-0.72601563 5.23015625 -0.72601563 5.23015625 -2.359375 5.65625 C-5.375 6.3125 -5.375 6.3125 -9.375 6.3125 C-9.375 5.6525 -9.375 4.9925 -9.375 4.3125 C-8.199375 3.879375 -8.199375 3.879375 -7 3.4375 C-4.15651272 2.2188626 -3.04752789 0.40099051 0 0 Z " fill="#863176" transform="translate(280.375,993.6875)"/>
<path d="M0 0 C3.77001757 0.40978452 5.80106814 0.86737876 9 3 C8.67 3.99 8.34 4.98 8 6 C5.69 6.33 3.38 6.66 1 7 C0.34 5.02 -0.32 3.04 -1 1 C-0.67 0.67 -0.34 0.34 0 0 Z " fill="#F4F7F2" transform="translate(264,721)"/>
<path d="M0 0 C2 3 2 3 1.6875 5.0625 C1 7 1 7 0 9 C0.99 10.485 0.99 10.485 2 12 C1.34 12 0.68 12 0 12 C-0.33 12.99 -0.66 13.98 -1 15 C-2.32 15 -3.64 15 -5 15 C-3.33333333 10 -1.66666667 5 0 0 Z " fill="#F2F7F2" transform="translate(389,888)"/>
<path d="M0 0 C3.27701775 3.58911468 5.2344583 8.22167378 6 13 C5.07421875 15.28125 5.07421875 15.28125 4 17 C3.34 16.67 2.68 16.34 2 16 C2.33 14.35 2.66 12.7 3 11 C2.34 11 1.68 11 1 11 C1.33 9.35 1.66 7.7 2 6 C1.01 6 0.02 6 -1 6 C-1.33 4.68 -1.66 3.36 -2 2 C-1.34 2 -0.68 2 0 2 C0 1.34 0 0.68 0 0 Z " fill="#F0F3F1" transform="translate(314,767)"/>
<path d="M0 0 C0.66 0.66 1.32 1.32 2 2 C3.31747324 2.69748583 4.64914193 3.36959957 6 4 C4.54712339 5.33927721 3.08752741 6.67126847 1.625 8 C0.40683594 9.11375 0.40683594 9.11375 -0.8359375 10.25 C-3 12 -3 12 -5 12 C-5.33 11.01 -5.66 10.02 -6 9 C-5.01 9 -4.02 9 -3 9 C-3 8.34 -3 7.68 -3 7 C-2.34 7 -1.68 7 -1 7 C-0.67 6.01 -0.34 5.02 0 4 C-0.66 3.67 -1.32 3.34 -2 3 C-1.34 3 -0.68 3 0 3 C0 2.01 0 1.02 0 0 Z " fill="#F4F9F4" transform="translate(290,882)"/>
<path d="M0 0 C2.5625 -0.5 2.5625 -0.5 6 0 C8.65876127 2.41995038 10.83803429 5.13443598 13 8 C12.34 9.32 11.68 10.64 11 12 C9.68 11.34 8.36 10.68 7 10 C7.33 9.34 7.66 8.68 8 8 C6.85271902 4.55815706 5.96715346 3.91992283 3 2 C2.01 1.67 1.02 1.34 0 1 C0 0.67 0 0.34 0 0 Z " fill="#F3F8F3" transform="translate(17,788)"/>
<path d="M0 0 C1.98 1.65 3.96 3.3 6 5 C5.01 6.485 5.01 6.485 4 8 C0.375 8.1875 0.375 8.1875 -3 8 C-3.33 6.35 -3.66 4.7 -4 3 C-3.34 2.67 -2.68 2.34 -2 2 C-2 2.66 -2 3.32 -2 4 C-1.34 3.67 -0.68 3.34 0 3 C0 2.01 0 1.02 0 0 Z " fill="#F1F8F3" transform="translate(292,736)"/>
<path d="M0 0 C3.59540555 3.49267968 6.87778552 7.07493037 10 11 C10 11.33 10 11.66 10 12 C5.47932331 12.36654135 5.47932331 12.36654135 3.40625 10.78125 C1.71025491 8.63298955 1.31682108 6.98928112 0.8125 4.3125 C0.65394531 3.50425781 0.49539063 2.69601562 0.33203125 1.86328125 C0.22246094 1.24839844 0.11289062 0.63351562 0 0 Z " fill="#8B357C" transform="translate(842,274)"/>
<path d="M0 0 C-0.33 1.65 -0.66 3.3 -1 5 C-5.23429756 3.68938409 -9.07407404 2.05643741 -13 0 C-4.38961039 -2.87012987 -4.38961039 -2.87012987 0 0 Z " fill="#F7FBF4" transform="translate(776,194)"/>
<path d="M0 0 C-0.33 2.64 -0.66 5.28 -1 8 C-2.98 8.66 -4.96 9.32 -7 10 C-6.67 8.02 -6.34 6.04 -6 4 C-6.66 3.67 -7.32 3.34 -8 3 C-3.375 0 -3.375 0 0 0 Z " fill="#F5F8F4" transform="translate(321,982)"/>
<path d="M0 0 C1.32 1.65 2.64 3.3 4 5 C3.01 6.485 3.01 6.485 2 8 C1.34 8 0.68 8 0 8 C0 8.66 0 9.32 0 10 C-1.32 10 -2.64 10 -4 10 C-4 8.35 -4 6.7 -4 5 C-3.01 5 -2.02 5 -1 5 C-0.67 3.35 -0.34 1.7 0 0 Z " fill="#F5F8F4" transform="translate(12,774)"/>
<path d="M0 0 C1.79379098 0.44994757 3.58498928 0.91024143 5.375 1.375 C6.37273438 1.63023437 7.37046875 1.88546875 8.3984375 2.1484375 C11 3 11 3 13 5 C12.34 5.66 11.68 6.32 11 7 C10.67 6.34 10.34 5.68 10 5 C9.34 5.66 8.68 6.32 8 7 C5.73725212 6.64644564 4.04911148 6.02455574 2 5 C2 4.01 2 3.02 2 2 C1.34 2 0.68 2 0 2 C0 1.34 0 0.68 0 0 Z " fill="#F4F7F2" transform="translate(761,720)"/>
<path d="M0 0 C2.64465038 3.1254959 3.84414715 6.08788267 5 10 C4.01 10.495 4.01 10.495 3 11 C2.34 10.67 1.68 10.34 1 10 C1 10.99 1 11.98 1 13 C0.34 13 -0.32 13 -1 13 C-2.07845067 9.11757759 -1.92461495 7.4883646 0 4 C-0.33 3.34 -0.66 2.68 -1 2 C-0.67 1.34 -0.34 0.68 0 0 Z " fill="#F3F5F2" transform="translate(747,331)"/>
<path d="M0 0 C2.97 0.33 5.94 0.66 9 1 C9 2.8542837 8.98271299 4.70876759 8.9375 6.5625 C8.82781247 9.00907507 8.82781247 9.00907507 10 11 C6.38737754 9.79579251 5.57513335 8.4978706 3.3125 5.5 C2.68988281 4.6853125 2.06726563 3.870625 1.42578125 3.03125 C0 1 0 1 0 0 Z " fill="#F3F6F3" transform="translate(854,288)"/>
<path d="M0 0 C4.95 0 9.9 0 15 0 C14.67 0.99 14.34 1.98 14 3 C14.99 4.485 14.99 4.485 16 6 C15.43152344 5.80664062 14.86304688 5.61328125 14.27734375 5.4140625 C9.54635062 3.81863577 4.81205575 2.33099414 0 1 C0 0.67 0 0.34 0 0 Z " fill="#F3F5F2" transform="translate(589,0)"/>
<path d="M0 0 C1.65 0.33 3.3 0.66 5 1 C5 1.66 5 2.32 5 3 C5.66 3 6.32 3 7 3 C6.67 4.98 6.34 6.96 6 9 C2.66476748 7.61990379 0.81392049 6.15049348 -1 3 C-0.67 2.01 -0.34 1.02 0 0 Z " fill="#952182" transform="translate(783,377)"/>
<path d="M0 0 C0.66 0.33 1.32 0.66 2 1 C2.99 0.67 3.98 0.34 5 0 C7.6875 1.4375 7.6875 1.4375 10 3 C9.67 4.32 9.34 5.64 9 7 C5.37 5.68 1.74 4.36 -2 3 C-1.34 2.67 -0.68 2.34 0 2 C0 1.34 0 0.68 0 0 Z " fill="#F0F3F0" transform="translate(726,897)"/>
<path d="M0 0 C0.99 0.33 1.98 0.66 3 1 C3.79953138 4.28696233 4.09658936 5.71023192 3 9 C1.02 8.01 -0.96 7.02 -3 6 C-1.125 1.125 -1.125 1.125 0 0 Z " fill="#F3F1F0" transform="translate(716,888)"/>
<path d="M0 0 C2.69082872 0.17635452 5.32851446 0.61835921 8 1 C8.33 1.99 8.66 2.98 9 4 C8.34 4 7.68 4 7 4 C7 4.66 7 5.32 7 6 C5.1875 6.6875 5.1875 6.6875 3 7 C0.51384442 5.15840327 -0.00156904 3.99529289 -1 1 C-0.67 0.67 -0.34 0.34 0 0 Z " fill="#F3F6F1" transform="translate(973,688)"/>
<path d="M0 0 C2.40072955 2.88087546 4.47291037 5.56404834 6 9 C4.68 9.33 3.36 9.66 2 10 C2 9.34 2 8.68 2 8 C1.34 8 0.68 8 0 8 C-0.33 8.66 -0.66 9.32 -1 10 C-1 9.01 -1 8.02 -1 7 C-1.66 6.67 -2.32 6.34 -3 6 C-3.33 6.66 -3.66 7.32 -4 8 C-4 7.01 -4 6.02 -4 5 C-3.01 5 -2.02 5 -1 5 C-0.67 3.35 -0.34 1.7 0 0 Z " fill="#F2F7F1" transform="translate(628,926)"/>
<path d="M0 0 C2.52631142 3.12781414 4.42373366 6.29577411 6 10 C5.67 10.99 5.34 11.98 5 13 C3.68 12.67 2.36 12.34 1 12 C0.31292445 9.50935112 0 7.62113708 0 5 C-0.33 4.67 -0.66 4.34 -1 4 C-0.5625 1.9375 -0.5625 1.9375 0 0 Z " fill="#F2F6F3" transform="translate(617,906)"/>
<path d="M0 0 C0.99 0.33 1.98 0.66 3 1 C3 7.27 3 13.54 3 20 C0.61708696 15.23417393 -0.66291692 11.87264 0.5625 6.5625 C1.00708707 3.95849001 0.82487039 2.47461116 0 0 Z " fill="#E4EAE6" transform="translate(848,471)"/>
<path d="M0 0 C0.66 0.66 1.32 1.32 2 2 C1.360625 2.20625 0.72125 2.4125 0.0625 2.625 C-2.34925077 3.89538209 -2.34925077 3.89538209 -2.75 7.125 C-2.8325 8.07375 -2.915 9.0225 -3 10 C-3.99 9.34 -4.98 8.68 -6 8 C-5.34 8 -4.68 8 -4 8 C-4 7.34 -4 6.68 -4 6 C-4.99 6.66 -5.98 7.32 -7 8 C-10.1875 8.125 -10.1875 8.125 -13 8 C-10.20375042 5.81302498 -7.36692128 4.00847187 -4.25 2.3125 C-3.45078125 1.87550781 -2.6515625 1.43851563 -1.828125 0.98828125 C-1.22484375 0.66214844 -0.6215625 0.33601562 0 0 Z " fill="#F0F2ED" transform="translate(818,982)"/>
<path d="M0 0 C4 0 4 0 5.625 1 C7.75609363 4.09977255 8.21868973 7.33385181 9 11 C8.01 11 7.02 11 6 11 C4.02 7.37 2.04 3.74 0 0 Z " fill="#8A3179" transform="translate(126,922)"/>
<path d="M0 0 C0.66 0 1.32 0 2 0 C1.03603575 5.20540698 0.12319499 9.59913433 -3 14 C-3.99 13.67 -4.98 13.34 -6 13 C-4.02 8.71 -2.04 4.42 0 0 Z " fill="#F6F6F4" transform="translate(382,906)"/>
<path d="M0 0 C1.423125 0.2784375 1.423125 0.2784375 2.875 0.5625 C5.89868793 1.28686632 5.89868793 1.28686632 8 0 C8.625 3.375 8.625 3.375 9 7 C8.34 7.66 7.68 8.32 7 9 C5.82737096 7.88121617 4.66204862 6.75476949 3.5 5.625 C2.8503125 4.99851562 2.200625 4.37203125 1.53125 3.7265625 C0 2 0 2 0 0 Z " fill="#F2F7F1" transform="translate(199,880)"/>
<path d="M0 0 C0.66 0.99 1.32 1.98 2 3 C2.66 3 3.32 3 4 3 C4.05395478 4.62463842 4.09277195 6.24978541 4.125 7.875 C4.14820312 8.77992188 4.17140625 9.68484375 4.1953125 10.6171875 C4 13 4 13 2 15 C1.46467177 13.44240657 0.94734622 11.87861955 0.4375 10.3125 C0.14746094 9.44238281 -0.14257812 8.57226562 -0.44140625 7.67578125 C-1.05141961 4.75368926 -0.77703633 2.85599447 0 0 Z " fill="#8C2C7A" transform="translate(107,870)"/>
<path d="M0 0 C-0.185625 0.78375 -0.37125 1.5675 -0.5625 2.375 C-1.25962266 4.97089775 -1.25962266 4.97089775 0 7 C-1.32 7.33 -2.64 7.66 -4 8 C-4.33 7.34 -4.66 6.68 -5 6 C-6.32 6.33 -7.64 6.66 -9 7 C-9 6.01 -9 5.02 -9 4 C-2.25 0 -2.25 0 0 0 Z " fill="#F3F7F2" transform="translate(976,806)"/>
<path d="M0 0 C7.66742597 5.96583144 7.66742597 5.96583144 9 11 C3.25 8.25 3.25 8.25 1 6 C0.67 6.66 0.34 7.32 0 8 C-0.66 6.68 -1.32 5.36 -2 4 C-1.34 4 -0.68 4 0 4 C0 2.68 0 1.36 0 0 Z " fill="#F0F3EF" transform="translate(738,320)"/>
<path d="M0 0 C0.99 0.33 1.98 0.66 3 1 C5.33006911 1.35543427 7.66327016 1.6913753 10 2 C10 2.66 10 3.32 10 4 C5.73383684 5.13764351 2.43513689 6 -2 6 C-1.34 4.02 -0.68 2.04 0 0 Z " fill="#8E2F7C" transform="translate(778,993)"/>
<path d="M0 0 C0.598125 0.185625 1.19625 0.37125 1.8125 0.5625 C4.16408762 1.22093687 4.16408762 1.22093687 7 0 C7 0.99 7 1.98 7 3 C5.5437455 3.67119549 4.08492133 4.33681807 2.625 5 C1.40683594 5.556875 1.40683594 5.556875 0.1640625 6.125 C-2 7 -2 7 -4 7 C-3.67 5.68 -3.34 4.36 -3 3 C-1.68 3 -0.36 3 1 3 C0.67 2.01 0.34 1.02 0 0 Z " fill="#F2F2F0" transform="translate(772,896)"/>
<path d="M0 0 C0.99 0.33 1.98 0.66 3 1 C3 1.99 3 2.98 3 4 C4.32 4.33 5.64 4.66 7 5 C7 6.65 7 8.3 7 10 C4.50638429 8.79618552 2.31856917 7.54571278 0 6 C-0.75 3.4375 -0.75 3.4375 -1 1 C-0.67 0.67 -0.34 0.34 0 0 Z " fill="#932B7E" transform="translate(30,791)"/>
<path d="M0 0 C1.73169596 3.1622274 2.7128976 6.26742722 3.625 9.75 C3.88539062 10.73484375 4.14578125 11.7196875 4.4140625 12.734375 C4.60742188 13.48203125 4.80078125 14.2296875 5 15 C3.68 15.33 2.36 15.66 1 16 C-0.14077657 12.57767028 -0.09815117 9.91326783 -0.0625 6.3125 C-0.05347656 5.13300781 -0.04445312 3.95351563 -0.03515625 2.73828125 C-0.02355469 1.83464844 -0.01195312 0.93101562 0 0 Z " fill="#F1F2EE" transform="translate(0,744)"/>
<path d="M0 0 C4.455 2.97 4.455 2.97 9 6 C8.67 6.99 8.34 7.98 8 9 C8 8.34 8 7.68 8 7 C7.443125 7.185625 6.88625 7.37125 6.3125 7.5625 C3.600867 8.07551165 1.65628961 7.6640724 -1 7 C-0.649375 6.401875 -0.29875 5.80375 0.0625 5.1875 C1.33304698 2.89186786 1.33304698 2.89186786 0 0 Z " fill="#F2F5EF" transform="translate(281,728)"/>
<path d="M0 0 C4.40114397 0.50298788 6.71195019 2.08772731 10 5 C8.02 5 6.04 5 4 5 C4 5.66 4 6.32 4 7 C4.99 7.33 5.98 7.66 7 8 C6.01 8.495 6.01 8.495 5 9 C4.34 8.67 3.68 8.34 3 8 C3 7.34 3 6.68 3 6 C2.34 6 1.68 6 1 6 C0.67 4.02 0.34 2.04 0 0 Z " fill="#F3F7F1" transform="translate(775,726)"/>
<path d="M0 0 C0.99 0.33 1.98 0.66 3 1 C1.68 2.65 0.36 4.3 -1 6 C-0.34 6 0.32 6 1 6 C0.34 7.32 -0.32 8.64 -1 10 C-1.99 10 -2.98 10 -4 10 C-4.66 11.32 -5.32 12.64 -6 14 C-6.33 13.34 -6.66 12.68 -7 12 C-5.56640625 9.1796875 -5.56640625 9.1796875 -3.5625 5.875 C-2.57443359 4.23144531 -2.57443359 4.23144531 -1.56640625 2.5546875 C-1.04949219 1.71164063 -0.53257813 0.86859375 0 0 Z " fill="#8A3578" transform="translate(14,36)"/>
<path d="M0 0 C0.66 0.33 1.32 0.66 2 1 C1.01 2.485 1.01 2.485 0 4 C-0.16713569 6.62531524 -0.16713569 6.62531524 0 9 C-1.65 9 -3.3 9 -5 9 C-5.66 7.68 -6.32 6.36 -7 5 C-4.69 3.35 -2.38 1.7 0 0 Z " fill="#F4F8F2" transform="translate(328,975)"/>
<path d="M0 0 C0.99 0.66 1.98 1.32 3 2 C3.1875 4.625 3.1875 4.625 3 7 C-4.57142857 2.85714286 -4.57142857 2.85714286 -7 0 C-4.28569464 -1.35715268 -2.88661718 -0.77445827 0 0 Z " fill="#F0F4EE" transform="translate(214,889)"/>
<path d="M0 0 C3.3 1.65 6.6 3.3 10 5 C9.01 5.495 9.01 5.495 8 6 C7.67 6.66 7.34 7.32 7 8 C7 7.34 7 6.68 7 6 C4.03 6 1.06 6 -2 6 C-1.34 4.02 -0.68 2.04 0 0 Z " fill="#F3F4F3" transform="translate(34,800)"/>
<path d="M0 0 C2.35953094 2.35953094 2.49141413 3.77895617 3 7 C3.33 7 3.66 7 4 7 C4 8.65 4 10.3 4 12 C2.35 11.67 0.7 11.34 -1 11 C-1.125 3.375 -1.125 3.375 0 0 Z " fill="#952681" transform="translate(1,67)"/>
<path d="M0 0 C1.32 0 2.64 0 4 0 C3.67 3.96 3.34 7.92 3 12 C-1 10 -1 10 -2 8 C-0.68 8 0.64 8 2 8 C2 7.34 2 6.68 2 6 C0.35 6 -1.3 6 -3 6 C-1.68 5.67 -0.36 5.34 1 5 C0.67 3.35 0.34 1.7 0 0 Z " fill="#F4F7F3" transform="translate(819,824)"/>
<path d="M0 0 C0.33 0.66 0.66 1.32 1 2 C1.66 2 2.32 2 3 2 C3.33 3.65 3.66 5.3 4 7 C5.65 7.33 7.3 7.66 9 8 C5.30962722 9.37095624 3.29116165 8.60010967 -0.25 7.0625 C-1.14203125 6.68222656 -2.0340625 6.30195312 -2.953125 5.91015625 C-3.62859375 5.60980469 -4.3040625 5.30945313 -5 5 C-3.68 4.67 -2.36 4.34 -1 4 C-0.67 2.68 -0.34 1.36 0 0 Z " fill="#8A3679" transform="translate(51,802)"/>
<path d="M0 0 C-0.99 0.33 -1.98 0.66 -3 1 C-2.67 2.32 -2.34 3.64 -2 5 C-3.32 5.33 -4.64 5.66 -6 6 C-6.33 5.01 -6.66 4.02 -7 3 C-7.33 3.66 -7.66 4.32 -8 5 C-9.65 4.67 -11.3 4.34 -13 4 C-10.56272708 2.37515139 -8.62713877 1.34310925 -5.9375 0.3125 C-5.24527344 0.04050781 -4.55304687 -0.23148438 -3.83984375 -0.51171875 C-2 -1 -2 -1 0 0 Z " fill="#F0F4F2" transform="translate(736,722)"/>
<path d="M0 0 C2.00720923 0.28674418 4.0085944 0.61866701 6 1 C6 3.97 6 6.94 6 10 C3.03595495 7.19195732 0.55500981 4.81684226 -1 1 C-0.67 0.67 -0.34 0.34 0 0 Z " fill="#F3F7F2" transform="translate(882,320)"/>
<path d="M0 0 C1.32 0 2.64 0 4 0 C4.33 3.3 4.66 6.6 5 10 C2 9 2 9 0.25 5.5625 C-0.1625 4.386875 -0.575 3.21125 -1 2 C-0.67 1.34 -0.34 0.68 0 0 Z " fill="#8C2F7B" transform="translate(644,62)"/>
<path d="M0 0 C2.57672427 3.14511933 4.17392493 6.32163947 5.75 10.0625 C6.19859375 11.10535156 6.6471875 12.14820313 7.109375 13.22265625 C8 16 8 16 7 19 C7 18.34 7 17.68 7 17 C6.34 16.67 5.68 16.34 5 16 C3.60536866 12.39036593 2.67176829 8.80668696 2 5 C1.01 4.67 0.02 4.34 -1 4 C-0.67 2.68 -0.34 1.36 0 0 Z " fill="#873A7A" transform="translate(638,39)"/>
<path d="M0 0 C0.66 0.33 1.32 0.66 2 1 C-1.96 4.465 -1.96 4.465 -6 8 C-6.66 7.67 -7.32 7.34 -8 7 C-8.625 4.9375 -8.625 4.9375 -9 3 C-7.88625 2.814375 -7.88625 2.814375 -6.75 2.625 C-4.01820689 2.12410486 -4.01820689 2.12410486 -1.8125 0.875 C-1.214375 0.58625 -0.61625 0.2975 0 0 Z " fill="#F3F6F1" transform="translate(793,886)"/>
<path d="M0 0 C0.66 0.66 1.32 1.32 2 2 C1.34 2 0.68 2 0 2 C0.309375 3.0209375 0.309375 3.0209375 0.625 4.0625 C1.10063829 7.78833331 0.17669149 10.46992554 -1 14 C-1.66 14 -2.32 14 -3 14 C-3 15.32 -3 16.64 -3 18 C-3.66 17.67 -4.32 17.34 -5 17 C-4.35841048 14.35307023 -3.71195217 11.70750071 -3.0625 9.0625 C-2.88009766 8.30775391 -2.69769531 7.55300781 -2.50976562 6.77539062 C-1.11328125 1.11328125 -1.11328125 1.11328125 0 0 Z " fill="#EFF4EF" transform="translate(398,859)"/>
<path d="M0 0 C2.4375 0.0625 2.4375 0.0625 5 1 C6.8125 3.5625 6.8125 3.5625 8 6 C6.35 6 4.7 6 3 6 C3 5.01 3 4.02 3 3 C1.35 3.66 -0.3 4.32 -2 5 C-2 2 -2 2 0 0 Z " fill="#F5F7F4" transform="translate(298,746)"/>
<path d="M0 0 C2.70438996 0.36405249 3.74406383 0.68142682 5.484375 2.84765625 C5.90203125 3.57855469 6.3196875 4.30945313 6.75 5.0625 C7.39195312 6.16271484 7.39195312 6.16271484 8.046875 7.28515625 C8.36140625 7.85105469 8.6759375 8.41695313 9 9 C6.125 9.125 6.125 9.125 3 9 C2.34 8.34 1.68 7.68 1 7 C1.165 6.360625 1.33 5.72125 1.5 5.0625 C1.665 4.381875 1.83 3.70125 2 3 C1.34 2.01 0.68 1.02 0 0 Z " fill="#F0F7F2" transform="translate(751,343)"/>
<path d="M0 0 C2.475 0.495 2.475 0.495 5 1 C5.6875 3.3125 5.6875 3.3125 6 6 C4.6875 7.625 4.6875 7.625 3 9 C2.34 9.99 1.68 10.98 1 12 C0.67 8.04 0.34 4.08 0 0 Z " fill="#F1F4F0" transform="translate(649,71)"/>
<path d="M0 0 C0.66 0.66 1.32 1.32 2 2 C-0.31 5.96 -2.62 9.92 -5 14 C-6 11 -6 11 -6 7 C-5.34 7 -4.68 7 -4 7 C-3.67 5.02 -3.34 3.04 -3 1 C-2.34 1.33 -1.68 1.66 -1 2 C-0.67 1.34 -0.34 0.68 0 0 Z " fill="#F0F4F0" transform="translate(14,32)"/>
<path d="M0 0 C0.66 0.33 1.32 0.66 2 1 C2.63385922 3.04243528 3.01826504 5.09132519 3.4375 7.1875 C3.623125 7.785625 3.80875 8.38375 4 9 C4.66 9.33 5.32 9.66 6 10 C4.35 10 2.7 10 1 10 C0.01 7.03 -0.98 4.06 -2 1 C-1.34 0.67 -0.68 0.34 0 0 Z " fill="#912D80" transform="translate(616,896)"/>
<path d="M0 0 C4.35522853 0.50642192 7.44239635 1.38411497 11 4 C11 4.66 11 5.32 11 6 C4.08571429 5.05714286 4.08571429 5.05714286 1 3 C0.67 2.01 0.34 1.02 0 0 Z " fill="#853175" transform="translate(962,688)"/>
<path d="M0 0 C2.31 0 4.62 0 7 0 C7.33 0.99 7.66 1.98 8 3 C9.99665314 4.68538601 9.99665314 4.68538601 12 6 C11.67 6.99 11.34 7.98 11 9 C9.54033966 7.87672229 8.08231636 6.75131706 6.625 5.625 C5.81289063 4.99851563 5.00078125 4.37203125 4.1640625 3.7265625 C2 2 2 2 0 0 Z " fill="#F0F2F0" transform="translate(776,200)"/>
<path d="M0 0 C-4.625 4.875 -4.625 4.875 -8 6 C-8.66 5.01 -9.32 4.02 -10 3 C-9.34 3 -8.68 3 -8 3 C-8 2.34 -8 1.68 -8 1 C-3.375 -1.125 -3.375 -1.125 0 0 Z " fill="#8B307B" transform="translate(325,977)"/>
<path d="M0 0 C2.6486859 3.19668988 4.93992341 6.39486597 7 10 C6.01 10 5.02 10 4 10 C4 9.34 4 8.68 4 8 C2.35 7.67 0.7 7.34 -1 7 C-0.67 4.69 -0.34 2.38 0 0 Z " fill="#F2F4F2" transform="translate(129,928)"/>
<path d="M0 0 C0.66 0.33 1.32 0.66 2 1 C2 1.66 2 2.32 2 3 C2.99 3.66 3.98 4.32 5 5 C4.34 5 3.68 5 3 5 C3.66 7.31 4.32 9.62 5 12 C4.01 12.495 4.01 12.495 3 13 C1.35 9.37 -0.3 5.74 -2 2 C-1.34 1.34 -0.68 0.68 0 0 Z " fill="#EFF4ED" transform="translate(187,856)"/>
<path d="M0 0 C2.0625 0.4375 2.0625 0.4375 4 1 C2.95125002 3.62187494 2.35068687 4.79371361 -0.125 6.25 C-0.74375 6.4975 -1.3625 6.745 -2 7 C-2.99 6.34 -3.98 5.68 -5 5 C-4.34 5 -3.68 5 -3 5 C-2.5359375 4.0409375 -2.5359375 4.0409375 -2.0625 3.0625 C-1 1 -1 1 0 0 Z " fill="#92287E" transform="translate(206,731)"/>
<path d="M0 0 C2.31 0.33 4.62 0.66 7 1 C6 4 6 4 3.9375 5.1875 C3.298125 5.455625 2.65875 5.72375 2 6 C2 5.34 2 4.68 2 4 C0.35 3.67 -1.3 3.34 -3 3 C-2.01 2.67 -1.02 2.34 0 2 C0 1.34 0 0.68 0 0 Z " fill="#962980" transform="translate(241,905)"/>
<path d="M0 0 C1.33617352 0.97528737 2.6688751 1.95533319 4 2.9375 C4.7425 3.48277344 5.485 4.02804688 6.25 4.58984375 C6.8275 5.05519531 7.405 5.52054688 8 6 C8 6.33 8 6.66 8 7 C5.69 7 3.38 7 1 7 C1 6.34 1 5.68 1 5 C0.34 5 -0.32 5 -1 5 C-0.67 3.35 -0.34 1.7 0 0 Z " fill="#902E7C" transform="translate(619,16)"/>
<path d="M0 0 C3.25543229 0.34879632 4.01873107 1.02133261 6.25 3.5625 C6.8275 4.366875 7.405 5.17125 8 6 C7.34 6.66 6.68 7.32 6 8 C5.34 7.34 4.68 6.68 4 6 C1.93125966 5.3574765 1.93125966 5.3574765 0 5 C0.99 4.67 1.98 4.34 3 4 C2.01 3.34 1.02 2.68 0 2 C0 1.34 0 0.68 0 0 Z " fill="#F5FAF5" transform="translate(152,960)"/>
<path d="M0 0 C4 0 4 0 5.75 1.6875 C7.18991433 4.35134151 7.24862931 6.01644824 7 9 C4.03595495 6.19195732 1.55500981 3.81684226 0 0 Z " fill="#8E2E7C" transform="translate(136,937)"/>
<path d="M0 0 C3 1 3 1 5 3 C6.31747324 3.69748583 7.64914193 4.36959957 9 5 C8.34 6.32 7.68 7.64 7 9 C4.36 6.69 1.72 4.38 -1 2 C-0.67 1.34 -0.34 0.68 0 0 Z " fill="#F3F4F1" transform="translate(703,883)"/>
<path d="M0 0 C4.51720311 -0.36625971 4.51720311 -0.36625971 6.8125 1.375 C8 3 8 3 8 5 C6.35 5.33 4.7 5.66 3 6 C2.01 4.02 1.02 2.04 0 0 Z " fill="#F4F8F1" transform="translate(688,864)"/>
<path d="M0 0 C2.64 0.66 5.28 1.32 8 2 C7.67 3.65 7.34 5.3 7 7 C3.17053157 5.54744301 1.87949705 3.57104439 0 0 Z " fill="#8D2E7B" transform="translate(799,742)"/>
<path d="M0 0 C3.45925163 1.2491742 6.14693203 2.67527795 9 5 C8.67 5.66 8.34 6.32 8 7 C6.68 7 5.36 7 4 7 C3.67 6.34 3.34 5.68 3 5 C2.34 5 1.68 5 1 5 C0.67 3.35 0.34 1.7 0 0 Z " fill="#F5F7F4" transform="translate(687,985)"/>
<path d="M0 0 C0.66 0 1.32 0 2 0 C2.33 1.65 2.66 3.3 3 5 C-1.455 6.485 -1.455 6.485 -6 8 C-5.04956626 6.66102417 -4.08940853 5.32894573 -3.125 4 C-2.59132813 3.2575 -2.05765625 2.515 -1.5078125 1.75 C-1.01023437 1.1725 -0.51265625 0.595 0 0 Z " fill="#F1F4EF" transform="translate(357,946)"/>
<path d="M0 0 C3 1.6875 3 1.6875 6 4 C6.375 6.75 6.375 6.75 6 9 C2.66476748 7.61990379 0.81392049 6.15049348 -1 3 C-0.67 2.01 -0.34 1.02 0 0 Z " fill="#8B2B7A" transform="translate(638,937)"/>
<path d="M0 0 C2.21399303 3.79541663 3.00980198 7.75629421 4 12 C3.01 11.34 2.02 10.68 1 10 C1 9.01 1 8.02 1 7 C0.34 7 -0.32 7 -1 7 C-1.33 7.66 -1.66 8.32 -2 9 C-2.20140476 5.37471432 -1.85776765 3.13498292 0 0 Z " fill="#E9EEE7" transform="translate(107,878)"/>
<path d="M0 0 C0.66 0.33 1.32 0.66 2 1 C2.73075648 3.3140622 3.40138258 5.64828869 4 8 C3.34 8.66 2.68 9.32 2 10 C1.01 9.67 0.02 9.34 -1 9 C-0.67 6.03 -0.34 3.06 0 0 Z " fill="#F4F9F4" transform="translate(900,837)"/>
<path d="M0 0 C0.99 0.33 1.98 0.66 3 1 C3.625 3.8125 3.625 3.8125 4 7 C3.01 8.485 3.01 8.485 2 10 C1.01 10 0.02 10 -1 10 C-0.7215625 9.1028125 -0.7215625 9.1028125 -0.4375 8.1875 C0.22093687 5.83591238 0.22093687 5.83591238 -1 3 C-0.67 2.01 -0.34 1.02 0 0 Z " fill="#F6FCF5" transform="translate(180,790)"/>
<path d="M0 0 C0.33 0 0.66 0 1 0 C1 3.96 1 7.92 1 12 C-0.32 11.67 -1.64 11.34 -3 11 C-2.01 7.37 -1.02 3.74 0 0 Z " fill="#EFF2EE" transform="translate(999,769)"/>
<path d="M0 0 C0.33 0.99 0.66 1.98 1 3 C1.66 3.33 2.32 3.66 3 4 C1.71034824 5.37562854 0.37310707 6.70766393 -1 8 C-1.66 8 -2.32 8 -3 8 C-3 8.66 -3 9.32 -3 10 C-3.66 10 -4.32 10 -5 10 C-3.66511872 6.40608886 -2.03977277 3.24509304 0 0 Z " fill="#F2F5F1" transform="translate(697,745)"/>
<path d="M0 0 C2.64752004 2.57784846 4.94432065 4.91648098 7 8 C6.01 8.495 6.01 8.495 5 9 C4.01 8.34 3.02 7.68 2 7 C2 6.34 2 5.68 2 5 C1.01 5 0.02 5 -1 5 C-0.67 3.35 -0.34 1.7 0 0 Z " fill="#F0F3F0" transform="translate(809,414)"/>
<path d="M0 0 C1.36421031 2.72842061 0.87807211 4.60953318 0.5625 7.625 C0.40974609 9.12933594 0.40974609 9.12933594 0.25390625 10.6640625 C0.17011719 11.43492188 0.08632813 12.20578125 0 13 C-1.9789756 9.36383344 -2.5251065 6.11574371 -3 2 C-2.01 1.34 -1.02 0.68 0 0 Z " fill="#F2F4F1" transform="translate(647,46)"/>
<path d="M0 0 C0.598125 0.20625 1.19625 0.4125 1.8125 0.625 C2.1425 1.945 2.4725 3.265 2.8125 4.625 C1.4925 4.955 0.1725 5.285 -1.1875 5.625 C-1.1875 4.965 -1.1875 4.305 -1.1875 3.625 C-2.5075 3.955 -3.8275 4.285 -5.1875 4.625 C-5.1875 3.635 -5.1875 2.645 -5.1875 1.625 C-2.1875 -0.375 -2.1875 -0.375 0 0 Z " fill="#F1F6F1" transform="translate(829.1875,976.375)"/>
<path d="M0 0 C1.90401138 1.90401138 2.93520439 3.33425686 3.19921875 6.046875 C3.1886578 8.03233273 3.09915043 10.0169914 3 12 C2.34 12 1.68 12 1 12 C0.63762737 10.37681021 0.28534843 8.7513642 -0.0625 7.125 C-0.25972656 6.22007812 -0.45695312 5.31515625 -0.66015625 4.3828125 C-1 2 -1 2 0 0 Z " fill="#F5F9F5" transform="translate(121,914)"/>
<path d="M0 0 C1.0625 1.875 1.0625 1.875 2 4 C1.67 4.66 1.34 5.32 1 6 C-1.97 5.505 -1.97 5.505 -5 5 C-5.33 6.32 -5.66 7.64 -6 9 C-6.33 7.68 -6.66 6.36 -7 5 C-4.69 3.35 -2.38 1.7 0 0 Z " fill="#8C2B7A" transform="translate(291,890)"/>
<path d="M0 0 C3 0 3 0 5 1 C5.8125 2.875 5.8125 2.875 6 5 C4.5625 6.75 4.5625 6.75 3 8 C0.9375 5.6875 0.9375 5.6875 -1 3 C-0.67 2.01 -0.34 1.02 0 0 Z " fill="#F0F6F1" transform="translate(914,360)"/>
<path d="M0 0 C2.31 0 4.62 0 7 0 C6.01 0.495 6.01 0.495 5 1 C5.33 3.31 5.66 5.62 6 8 C5.34 8 4.68 8 4 8 C2.68 5.36 1.36 2.72 0 0 Z " fill="#8D287C" transform="translate(744,325)"/>
<path d="M0 0 C3.81684226 1.55500981 6.19195732 4.03595495 9 7 C7.35 7 5.7 7 4 7 C3.67 6.34 3.34 5.68 3 5 C2.01 4.67 1.02 4.34 0 4 C0 2.68 0 1.36 0 0 Z " fill="#F1F4ED" transform="translate(728,313)"/>
<path d="M0 0 C0.66 0.33 1.32 0.66 2 1 C2.34541851 3.33157492 2.67794257 5.66508361 3 8 C3.99 9.485 3.99 9.485 5 11 C4.01 11.495 4.01 11.495 3 12 C2.16151196 10.54462432 1.32936066 9.08559627 0.5 7.625 C-0.19609375 6.40683594 -0.19609375 6.40683594 -0.90625 5.1640625 C-2 3 -2 3 -2 1 C-1.34 0.67 -0.68 0.34 0 0 Z " fill="#8A3678" transform="translate(10,764)"/>
<path d="M0 0 C2.0625 2.3125 2.0625 2.3125 4 5 C3.67 5.99 3.34 6.98 3 8 C1.0625 7.3125 1.0625 7.3125 -1 6 C-1.75 3.375 -1.75 3.375 -2 1 C-1.34 0.67 -0.68 0.34 0 0 Z " fill="#F4F6EF" transform="translate(306,752)"/>
<path d="M0 0 C2.9719385 1.12451727 5.33440687 2.22293791 8 4 C8 4.66 8 5.32 8 6 C5.69 5.67 3.38 5.34 1 5 C0.67 3.35 0.34 1.7 0 0 Z " fill="#F3F5EF" transform="translate(189,986)"/>
<path d="M0 0 C2.97 0.495 2.97 0.495 6 1 C5.67 1.99 5.34 2.98 5 4 C3.68 4 2.36 4 1 4 C0.67 4.66 0.34 5.32 0 6 C-0.66 6 -1.32 6 -2 6 C-1.34 4.02 -0.68 2.04 0 0 Z " fill="#F5F7F3" transform="translate(882,906)"/>
<path d="M0 0 C0.66 0 1.32 0 2 0 C2.99 3.96 3.98 7.92 5 12 C3 11 3 11 1.875 7.9375 C1.441875 6.4834375 1.441875 6.4834375 1 5 C0.01 5 -0.98 5 -2 5 C-1.34 3.35 -0.68 1.7 0 0 Z " fill="#893775" transform="translate(678,841)"/>
<path d="M0 0 C1.98 0.99 1.98 0.99 4 2 C4 3.65 4 5.3 4 7 C3.34 7 2.68 7 2 7 C1.67 8.32 1.34 9.64 1 11 C0.67 7.37 0.34 3.74 0 0 Z " fill="#863273" transform="translate(322,790)"/>
<path d="M0 0 C1.32 0 2.64 0 4 0 C6.25 3 6.25 3 8 6 C7.01 7.485 7.01 7.485 6 9 C4.02 6.03 2.04 3.06 0 0 Z " fill="#8F307A" transform="translate(813,418)"/>
<path d="M0 0 C1.65 0 3.3 0 5 0 C5.33 2.64 5.66 5.28 6 8 C1.125 3.375 1.125 3.375 0 0 Z " fill="#8C2D7A" transform="translate(802,403)"/>
<path d="M0 0 C0 0.99 0 1.98 0 3 C-6.75 2.25 -6.75 2.25 -9 0 C-5.93109813 -1.53445094 -3.29905734 -0.54984289 0 0 Z " fill="#882F77" transform="translate(722,995)"/>
<path d="M0 0 C3.79588866 0.54226981 5.47211993 2.20127563 8 5 C6.02 5 4.04 5 2 5 C0 1.125 0 1.125 0 0 Z " fill="#F0F3EF" transform="translate(655,963)"/>
<path d="M0 0 C4.35535069 1.16142685 6.64619703 2.07699505 9 6 C8.67 6.66 8.34 7.32 8 8 C6.66372225 6.85760183 5.33104612 5.71098945 4 4.5625 C3.2575 3.92441406 2.515 3.28632812 1.75 2.62890625 C1.1725 2.09136719 0.595 1.55382812 0 1 C0 0.67 0 0.34 0 0 Z " fill="#964185" transform="translate(154,959)"/>
<path d="M0 0 C1.32 0.66 2.64 1.32 4 2 C2.35 3.65 0.7 5.3 -1 7 C-1 5.68 -1 4.36 -1 3 C-2.32 2.67 -3.64 2.34 -5 2 C-3.35 2 -1.7 2 0 2 C0 1.34 0 0.68 0 0 Z " fill="#923180" transform="translate(357,940)"/>
<path d="M0 0 C0.99 0.33 1.98 0.66 3 1 C3 2.32 3 3.64 3 5 C2.34 5 1.68 5 1 5 C0.67 5.66 0.34 6.32 0 7 C-0.99 6.67 -1.98 6.34 -3 6 C-1.125 1.125 -1.125 1.125 0 0 Z " fill="#F2F8EF" transform="translate(364,937)"/>
<path d="M0 0 C-1.75 2.0625 -1.75 2.0625 -4 4 C-7.07435378 3.81367553 -8.37371096 2.75085936 -11 1 C-9.5437328 0.63743142 -8.08488815 0.28520207 -6.625 -0.0625 C-5.40683594 -0.35833984 -5.40683594 -0.35833984 -4.1640625 -0.66015625 C-2 -1 -2 -1 0 0 Z " fill="#843871" transform="translate(269,904)"/>
<path d="M0 0 C1.32 1.32 2.64 2.64 4 4 C1.8614515 6.1385485 0.86724686 6.42655063 -2 7 C-2 2 -2 2 0 0 Z " fill="#F5F9F6" transform="translate(268,897)"/>
<path d="M0 0 C5.28 0 10.56 0 16 0 C16 0.33 16 0.66 16 1 C14.91332031 1.09087891 14.91332031 1.09087891 13.8046875 1.18359375 C8.82883467 1.61483433 3.91319609 2.07047641 -1 3 C-0.67 2.01 -0.34 1.02 0 0 Z " fill="#DDDADD" transform="translate(923,813)"/>
<path d="M0 0 C1.10844919 3.32534757 0.84454356 5.62182575 0 9 C-1.32 9.33 -2.64 9.66 -4 10 C-3.67 7.69 -3.34 5.38 -3 3 C-2.34 3 -1.68 3 -1 3 C-0.67 2.01 -0.34 1.02 0 0 Z " fill="#852E76" transform="translate(677,789)"/>
<path d="M0 0 C0.66 0.33 1.32 0.66 2 1 C1.01 2.485 1.01 2.485 0 4 C-0.33 4.99 -0.66 5.98 -1 7 C-3.475 6.01 -3.475 6.01 -6 5 C-2.25 1.125 -2.25 1.125 0 0 Z " fill="#F4F5F4" transform="translate(216,729)"/>
<path d="M0 0 C1.9375 0.6875 1.9375 0.6875 4 2 C4.75 4.625 4.75 4.625 5 7 C2.36 5.68 -0.28 4.36 -3 3 C-2.01 2.01 -1.02 1.02 0 0 Z " fill="#8C2C7B" transform="translate(281,724)"/>
<path d="M0 0 C0.99 0 1.98 0 3 0 C3.33 3.63 3.66 7.26 4 11 C3.01 10.34 2.02 9.68 1 9 C0.8125 5.875 0.8125 5.875 1 3 C0.34 2.67 -0.32 2.34 -1 2 C-0.67 1.34 -0.34 0.68 0 0 Z " fill="#833972" transform="translate(946,437)"/>
<path d="M0 0 C-0.33 0.99 -0.66 1.98 -1 3 C-1.66 3 -2.32 3 -3 3 C-3.33 3.66 -3.66 4.32 -4 5 C-4.66 5 -5.32 5 -6 5 C-6.33 3.68 -6.66 2.36 -7 1 C-3.375 -1.125 -3.375 -1.125 0 0 Z " fill="#F2F5EE" transform="translate(314,987)"/>
<path d="M0 0 C3.45925163 1.2491742 6.14693203 2.67527795 9 5 C8.67 5.66 8.34 6.32 8 7 C6.68 7 5.36 7 4 7 C4 6.01 4 5.02 4 4 C3.34 4 2.68 4 2 4 C1.34 2.68 0.68 1.36 0 0 Z " fill="#EAF3EB" transform="translate(174,977)"/>
<path d="M0 0 C3.68754757 0.49831724 5.60490662 1.10067643 8 4 C5.6875 4.6875 5.6875 4.6875 3 5 C1.1875 3.6875 1.1875 3.6875 0 2 C0 1.34 0 0.68 0 0 Z " fill="#EFF4EF" transform="translate(664,971)"/>
<path d="M0 0 C0.66 0 1.32 0 2 0 C2.66 3.63 3.32 7.26 4 11 C2 9.4375 2 9.4375 0 7 C-0.25 3.25 -0.25 3.25 0 0 Z " fill="#E9ECE7" transform="translate(602,861)"/>
<path d="M0 0 C0.66 0.99 1.32 1.98 2 3 C-0.05233685 5.2477975 -1.00667261 6.0022242 -4 7 C-4 5.35 -4 3.7 -4 2 C-2.68 1.34 -1.36 0.68 0 0 Z " fill="#EFF5F0" transform="translate(902,848)"/>
<path d="M0 0 C0.99 0 1.98 0 3 0 C2.67 2.64 2.34 5.28 2 8 C0.68 7.34 -0.64 6.68 -2 6 C-1.34 4.02 -0.68 2.04 0 0 Z " fill="#F2F8F2" transform="translate(818,836)"/>
<path d="M0 0 C0.66 0.66 1.32 1.32 2 2 C-0.6598561 5.44216672 -3.90288286 5.99504674 -8 7 C-5.42215154 4.35247996 -3.08351902 2.05567935 0 0 Z " fill="#EDF1EA" transform="translate(713,731)"/>
<path d="M0 0 C0.33 0.66 0.66 1.32 1 2 C2.98 1.67 4.96 1.34 7 1 C4.51047079 3.66735273 2.36591866 5.55746343 -1 7 C-1.04254356 5.00045254 -1.04080783 2.99958364 -1 1 C-0.67 0.67 -0.34 0.34 0 0 Z " fill="#923080" transform="translate(706,730)"/>
<path d="M0 0 C1.89213369 2.38573379 3.02391783 4.07175348 4 7 C1.03 6.505 1.03 6.505 -2 6 C-2 4.68 -2 3.36 -2 2 C-1.34 2 -0.68 2 0 2 C0 1.34 0 0.68 0 0 Z " fill="#EEF2EC" transform="translate(842,452)"/>
<path d="M0 0 C2.475 0.495 2.475 0.495 5 1 C5 1.99 5 2.98 5 4 C5.66 4.33 6.32 4.66 7 5 C6.01 5.99 5.02 6.98 4 8 C0 2.25 0 2.25 0 0 Z " fill="#F0F1EE" transform="translate(923,374)"/>
<path d="M0 0 C1.875 0.25 1.875 0.25 4 1 C5.25 3.0625 5.25 3.0625 6 5 C5.01 5 4.02 5 3 5 C2.67 5.33 2.34 5.66 2 6 C1.01 5.67 0.02 5.34 -1 5 C-0.67 3.35 -0.34 1.7 0 0 Z " fill="#912B7E" transform="translate(853,290)"/>
<path d="M0 0 C0.66 0 1.32 0 2 0 C1.88541307 1.43836751 1.75790884 2.87570966 1.625 4.3125 C1.55539062 5.11300781 1.48578125 5.91351563 1.4140625 6.73828125 C1 9 1 9 -1 12 C-1.02698189 10.37509046 -1.04638757 8.75005367 -1.0625 7.125 C-1.07410156 6.22007813 -1.08570312 5.31515625 -1.09765625 4.3828125 C-1 2 -1 2 0 0 Z " fill="#F0F1EE" transform="translate(1,58)"/>
<path d="M0 0 C0.99 0 1.98 0 3 0 C3.66 0.99 4.32 1.98 5 3 C-2.50769231 3.36923077 -2.50769231 3.36923077 -5 1.5 C-5.33 1.005 -5.66 0.51 -6 0 C-3 -1 -3 -1 0 0 Z " fill="#F7F9F3" transform="translate(616,9)"/>
<path d="M0 0 C0 0.66 0 1.32 0 2 C-0.99 2.33 -1.98 2.66 -3 3 C-3 3.66 -3 4.32 -3 5 C-2.34 5.66 -1.68 6.32 -1 7 C-2.65 7.33 -4.3 7.66 -6 8 C-5.67 5.69 -5.34 3.38 -5 1 C-2 0 -2 0 0 0 Z " fill="#F5F8F6" transform="translate(286,888)"/>
<path d="M0 0 C2 3 2 3 1.75 4.9375 C0.97936717 7.05674028 0.0643413 9.01322958 -1 11 C-1.66 11 -2.32 11 -3 11 C-2.32829194 7.1936543 -1.27253436 3.64793184 0 0 Z " fill="#ECEFE8" transform="translate(389,888)"/>
<path d="M0 0 C4.875 4.75 4.875 4.75 6 7 C4.68 7 3.36 7 2 7 C2 6.34 2 5.68 2 5 C1.01 4.67 0.02 4.34 -1 4 C-0.67 2.68 -0.34 1.36 0 0 Z " fill="#8D307A" transform="translate(196,878)"/>
<path d="M0 0 C1.65 1.32 3.3 2.64 5 4 C4.67 5.32 4.34 6.64 4 8 C2.35 6.35 0.7 4.7 -1 3 C-0.67 2.01 -0.34 1.02 0 0 Z " fill="#A0468D" transform="translate(25,788)"/>
<path d="M0 0 C0.33 0.66 0.66 1.32 1 2 C3.52733235 2.65555119 3.52733235 2.65555119 6 3 C6 3.33 6 3.66 6 4 C2.37 3.67 -1.26 3.34 -5 3 C-5 2.34 -5 1.68 -5 1 C-3.35 0.67 -1.7 0.34 0 0 Z " fill="#884679" transform="translate(228,996)"/>
<path d="M0 0 C0.598125 0.33 1.19625 0.66 1.8125 1 C4.05386471 2.20787988 4.05386471 2.20787988 7 2 C7.33 3.32 7.66 4.64 8 6 C4.22454612 4.90931332 1.52956528 4.0916909 -1 1 C-0.67 0.67 -0.34 0.34 0 0 Z " fill="#833877" transform="translate(190,984)"/>
<path d="M0 0 C2.475 0.99 2.475 0.99 5 2 C4.01 2.66 3.02 3.32 2 4 C2.66 4.66 3.32 5.32 4 6 C1 6 1 6 -0.6875 4.5 C-1.120625 4.005 -1.55375 3.51 -2 3 C-1.34 2.01 -0.68 1.02 0 0 Z " fill="#902B7B" transform="translate(675,972)"/>
<path d="M0 0 C1.9375 0.375 1.9375 0.375 4 1 C4.33 1.66 4.66 2.32 5 3 C5.66 2.34 6.32 1.68 7 1 C7.33 2.32 7.66 3.64 8 5 C5.69 4.67 3.38 4.34 1 4 C0.67 2.68 0.34 1.36 0 0 Z " fill="#F2F5F0" transform="translate(105,890)"/>
<path d="M0 0 C0.66 0.66 1.32 1.32 2 2 C0.02 4.97 0.02 4.97 -2 8 C-4 4.25 -4 4.25 -4 2 C-2.68 1.34 -1.36 0.68 0 0 Z " fill="#F1F5F0" transform="translate(804,872)"/>
<path d="M0 0 C1.32 0.66 2.64 1.32 4 2 C3.01 2.495 3.01 2.495 2 3 C2.33 3.99 2.66 4.98 3 6 C2.01 6.33 1.02 6.66 0 7 C-0.66 6.67 -1.32 6.34 -2 6 C-1.34 4.02 -0.68 2.04 0 0 Z " fill="#8D327D" transform="translate(315,856)"/>
<path d="M0 0 C1.32 0.66 2.64 1.32 4 2 C3.67 3.98 3.34 5.96 3 8 C1.35 6.35 -0.3 4.7 -2 3 C-1.34 2.67 -0.68 2.34 0 2 C0 1.34 0 0.68 0 0 Z " fill="#F2F3F2" transform="translate(844,271)"/>
<path d="M0 0 C2.97 0 5.94 0 9 0 C9 1.65 9 3.3 9 5 C4.545 3.02 4.545 3.02 0 1 C0 0.67 0 0.34 0 0 Z " fill="#EEEFEB" transform="translate(763,193)"/>
<path d="M0 0 C-1.485 1.98 -1.485 1.98 -3 4 C-5.31 3.67 -7.62 3.34 -10 3 C-10 2.34 -10 1.68 -10 1 C-6.61981469 -0.04005702 -3.5219721 -0.08004482 0 0 Z " fill="#843170" transform="translate(68,0)"/>
<path d="M0 0 C0.33 0.66 0.66 1.32 1 2 C1.99 1.67 2.98 1.34 4 1 C4.99 2.32 5.98 3.64 7 5 C6.01 5.495 6.01 5.495 5 6 C2.5249829 4.88568235 0.32116581 3.41849022 -2 2 C-1.34 1.34 -0.68 0.68 0 0 Z " fill="#893575" transform="translate(182,979)"/>
<path d="M0 0 C0.99 0.33 1.98 0.66 3 1 C3 1.66 3 2.32 3 3 C3.66 3.33 4.32 3.66 5 4 C3.68 4.99 2.36 5.98 1 7 C1 6.01 1 5.02 1 4 C0.34 3.67 -0.32 3.34 -1 3 C-0.67 2.01 -0.34 1.02 0 0 Z " fill="#933081" transform="translate(844,953)"/>
<path d="M0 0 C1.32 0.33 2.64 0.66 4 1 C4.12375 1.804375 4.2475 2.60875 4.375 3.4375 C4.684375 4.7059375 4.684375 4.7059375 5 6 C5.66 6.33 6.32 6.66 7 7 C6.01 7.33 5.02 7.66 4 8 C2.68 5.36 1.36 2.72 0 0 Z " fill="#8B3979" transform="translate(622,915)"/>
<path d="M0 0 C2 4 2 4 1.625 6.25 C1.41875 6.8275 1.2125 7.405 1 8 C-0.32 8.33 -1.64 8.66 -3 9 C-2.01 6.03 -1.02 3.06 0 0 Z " fill="#F0F1EF" transform="translate(886,896)"/>
<path d="M0 0 C2 3.75 2 3.75 2 6 C0.68 6 -0.64 6 -2 6 C-2.33 4.68 -2.66 3.36 -3 2 C-2.01 1.34 -1.02 0.68 0 0 Z " fill="#F3F8F1" transform="translate(307,864)"/>
<path d="M0 0 C0.66 0 1.32 0 2 0 C3.60339848 3.11771927 4.18974141 4.39011689 3.125 7.8125 C2.75375 8.534375 2.3825 9.25625 2 10 C1.67 10 1.34 10 1 10 C0.67 6.7 0.34 3.4 0 0 Z " fill="#F1F8F3" transform="translate(676,821)"/>
<path d="M0 0 C1.8125 0.1875 1.8125 0.1875 4 1 C5.75 3.5625 5.75 3.5625 7 6 C6.01 6 5.02 6 4 6 C3.67 5.01 3.34 4.02 3 3 C2.01 2.67 1.02 2.34 0 2 C0 1.34 0 0.68 0 0 Z " fill="#903381" transform="translate(794,216)"/>
<path d="M0 0 C2.475 0.99 2.475 0.99 5 2 C4.34 3.32 3.68 4.64 3 6 C2.01 5.67 1.02 5.34 0 5 C0 3.35 0 1.7 0 0 Z " fill="#982F85" transform="translate(717,896)"/>
<path d="M0 0 C0.99 0.33 1.98 0.66 3 1 C3.33 1.99 3.66 2.98 4 4 C3.34 4.66 2.68 5.32 2 6 C2 5.01 2 4.02 2 3 C0.02 3.99 0.02 3.99 -2 5 C-1.125 1.125 -1.125 1.125 0 0 Z " fill="#F4FBF6" transform="translate(716,888)"/>
<path d="M0 0 C2.475 0.99 2.475 0.99 5 2 C4.34 3.65 3.68 5.3 3 7 C2.67 6.34 2.34 5.68 2 5 C1.01 4.67 0.02 4.34 -1 4 C-0.67 2.68 -0.34 1.36 0 0 Z " fill="#F6F8F3" transform="translate(810,855)"/>
<path d="M0 0 C0.99 0 1.98 0 3 0 C3 1.98 3 3.96 3 6 C1.68 6.33 0.36 6.66 -1 7 C-0.67 4.69 -0.34 2.38 0 0 Z " fill="#F0F2EE" transform="translate(897,857)"/>
<path d="M0 0 C0.33 0 0.66 0 1 0 C0.67 3.63 0.34 7.26 0 11 C-0.33 9.68 -0.66 8.36 -1 7 C-1.66 6.67 -2.32 6.34 -3 6 C-2.67 4.68 -2.34 3.36 -2 2 C-1.34 2 -0.68 2 0 2 C0 1.34 0 0.68 0 0 Z " fill="#7C3E6F" transform="translate(399,843)"/>
<path d="M0 0 C0.66 0 1.32 0 2 0 C1.67 2.31 1.34 4.62 1 7 C-0.32 7 -1.64 7 -3 7 C-1.125 2.25 -1.125 2.25 0 0 Z " fill="#EEF4F0" transform="translate(191,755)"/>
<path d="M0 0 C-1.39332574 3.36720387 -2.9789286 4.9859524 -6 7 C-6.33 6.01 -6.66 5.02 -7 4 C-2.25 0 -2.25 0 0 0 Z " fill="#802F6D" transform="translate(203,738)"/>
<path d="M0 0 C2.35953094 2.35953094 2.49141413 3.77895617 3 7 C2.01 7.495 2.01 7.495 1 8 C0.34 7.34 -0.32 6.68 -1 6 C-1.66 5.67 -2.32 5.34 -3 5 C-2.01 3.35 -1.02 1.7 0 0 Z " fill="#903483" transform="translate(997,726)"/>
<path d="M0 0 C1.32 0.33 2.64 0.66 4 1 C4 3.97 4 6.94 4 10 C1.81024227 6.71536341 1.00193437 3.79303725 0 0 Z " fill="#EEF4EE" transform="translate(996,721)"/>
<path d="M0 0 C0.99 0 1.98 0 3 0 C5.125 4.625 5.125 4.625 4 8 C1.53721199 5.53721199 1.00228745 3.29323018 0 0 Z " fill="#883376" transform="translate(846,459)"/>
<path d="M0 0 C1.65 1.65 3.3 3.3 5 5 C4.01 5.99 3.02 6.98 2 8 C1.67 7.01 1.34 6.02 1 5 C0.34 4.34 -0.32 3.68 -1 3 C-0.67 2.01 -0.34 1.02 0 0 Z " fill="#F1F8F1" transform="translate(817,424)"/>
<path d="M0 0 C1.65 1.32 3.3 2.64 5 4 C4.01 4.33 3.02 4.66 2 5 C1.67 5.66 1.34 6.32 1 7 C-1 4 -1 4 -0.625 1.8125 C-0.41875 1.214375 -0.2125 0.61625 0 0 Z " fill="#F1F7F0" transform="translate(890,328)"/>
<path d="M0 0 C0.99 0.66 1.98 1.32 3 2 C3.66 1.67 4.32 1.34 5 1 C4.67 2.65 4.34 4.3 4 6 C2.02 4.68 0.04 3.36 -2 2 C-1.34 1.34 -0.68 0.68 0 0 Z " fill="#8C2F76" transform="translate(737,316)"/>
<path d="M0 0 C0.33 1.65 0.66 3.3 1 5 C-1.64 4.67 -4.28 4.34 -7 4 C-2.25 0 -2.25 0 0 0 Z " fill="#EBEFEC" transform="translate(749,184)"/>
<path d="M0 0 C0 0.99 0 1.98 0 3 C-0.99 3.33 -1.98 3.66 -3 4 C-3.33 4.66 -3.66 5.32 -4 6 C-5.32 5.67 -6.64 5.34 -8 5 C-4.04 2.525 -4.04 2.525 0 0 Z " fill="#8E377E" transform="translate(43,7)"/>
<path d="M0 0 C1.32 0.33 2.64 0.66 4 1 C1.31158141 3.25245881 -0.64641875 4.88213958 -4 6 C-4 5.34 -4 4.68 -4 4 C-3.34 4 -2.68 4 -2 4 C-1.34 2.68 -0.68 1.36 0 0 Z " fill="#8E357B" transform="translate(814,981)"/>
<path d="M0 0 C1.32 0.33 2.64 0.66 4 1 C2.02 3.97 2.02 3.97 0 7 C-0.66 6.01 -1.32 5.02 -2 4 C-1.34 4 -0.68 4 0 4 C0 2.68 0 1.36 0 0 Z " fill="#82316F" transform="translate(870,922)"/>
<path d="M0 0 C0.99 0.33 1.98 0.66 3 1 C2.34 1 1.68 1 1 1 C1 1.66 1 2.32 1 3 C2.98 3.495 2.98 3.495 5 4 C4.67 4.99 4.34 5.98 4 7 C3.01 6.67 2.02 6.34 1 6 C0.67 4.02 0.34 2.04 0 0 Z " fill="#8E2679" transform="translate(609,881)"/>
<path d="M0 0 C1.32 0 2.64 0 4 0 C3.34 1.98 2.68 3.96 2 6 C1.01 5.67 0.02 5.34 -1 5 C-0.34 5 0.32 5 1 5 C0.67 3.35 0.34 1.7 0 0 Z " fill="#8F277A" transform="translate(889,876)"/>
<path d="M0 0 C0.33 0.99 0.66 1.98 1 3 C1.99 3 2.98 3 4 3 C3.67 3.66 3.34 4.32 3 5 C0.4375 5.625 0.4375 5.625 -2 6 C-2 5.01 -2 4.02 -2 3 C-1.34 3 -0.68 3 0 3 C0 2.01 0 1.02 0 0 Z " fill="#F6FBF7" transform="translate(395,874)"/>
<path d="M0 0 C0.33 0.66 0.66 1.32 1 2 C-0.25 3.5 -0.25 3.5 -2 5 C-3.32 5 -4.64 5 -6 5 C-6 4.34 -6 3.68 -6 3 C-5.01 3 -4.02 3 -3 3 C-3 2.34 -3 1.68 -3 1 C-2.01 0.67 -1.02 0.34 0 0 Z " fill="#F0F7F4" transform="translate(964,811)"/>
<path d="M0 0 C0.99 0.33 1.98 0.66 3 1 C3 2.32 3 3.64 3 5 C3.66 5.33 4.32 5.66 5 6 C4.34 6 3.68 6 3 6 C2.67 6.99 2.34 7.98 2 9 C1.34 6.03 0.68 3.06 0 0 Z " fill="#853573" transform="translate(817,771)"/>
<path d="M0 0 C1.32 0 2.64 0 4 0 C4 1.65 4 3.3 4 5 C3.01 5.33 2.02 5.66 1 6 C0.67 4.02 0.34 2.04 0 0 Z " fill="#90277E" transform="translate(688,750)"/>
<path d="M0 0 C1.65 1.65 3.3 3.3 5 5 C4.01 5.495 4.01 5.495 3 6 C0 4 0 4 -2 1 C-1.34 0.67 -0.68 0.34 0 0 Z " fill="#EDF6EF" transform="translate(794,738)"/>
<path d="M0 0 C0.99 0.66 1.98 1.32 3 2 C2.67 3.32 2.34 4.64 2 6 C0.68 5.34 -0.64 4.68 -2 4 C-1.34 2.68 -0.68 1.36 0 0 Z " fill="#ECEEEB" transform="translate(826,434)"/>
<path d="M0 0 C1.65 1.65 3.3 3.3 5 5 C3.02 5.99 3.02 5.99 1 7 C1 5.68 1 4.36 1 3 C0.34 3 -0.32 3 -1 3 C-0.67 2.01 -0.34 1.02 0 0 Z " fill="#873376" transform="translate(910,359)"/>
<path d="M0 0 C4.875 4.75 4.875 4.75 6 7 C4.35 6.67 2.7 6.34 1 6 C0.67 4.02 0.34 2.04 0 0 Z " fill="#88347A" transform="translate(865,303)"/>
<path d="M0 0 C2.16874252 0.50603992 3.99967627 0.99983813 6 2 C5.67 2.99 5.34 3.98 5 5 C3.0625 4.1875 3.0625 4.1875 1 3 C0.67 2.01 0.34 1.02 0 0 Z " fill="#F1F7F0" transform="translate(850,282)"/>
<path d="M0 0 C1.65 1.65 3.3 3.3 5 5 C4.67 5.99 4.34 6.98 4 8 C1.10067643 5.60490662 0.49831724 3.68754757 0 0 Z " fill="#8A2C74" transform="translate(813,238)"/>
<path d="M0 0 C4.95 0.99 4.95 0.99 10 2 C9.67 2.66 9.34 3.32 9 4 C4.53159589 3.50351065 3.31012244 3.31012244 0 0 Z " fill="#824077" transform="translate(745,188)"/>
<path d="M0 0 C2 2 2 2 2.125 5.625 C2.08375 6.73875 2.0425 7.8525 2 9 C1.34 9 0.68 9 0 9 C-1.125 3.375 -1.125 3.375 0 0 Z " fill="#983385" transform="translate(1,67)"/>
<path d="M0 0 C2.86724686 0.57344937 3.8614515 0.8614515 6 3 C5.34 3 4.68 3 4 3 C3.67 3.99 3.34 4.98 3 6 C0 2.25 0 2.25 0 0 Z " fill="#F3F2ED" transform="translate(640,41)"/>
<path d="M0 0 C2.91517292 1.07401108 4.77810176 1.77810176 7 4 C5.1875 4.6875 5.1875 4.6875 3 5 C1.25 3.6875 1.25 3.6875 0 2 C0 1.34 0 0.68 0 0 Z " fill="#853477" transform="translate(603,6)"/>
<path d="M0 0 C0.99 0.66 1.98 1.32 3 2 C2.67 2.99 2.34 3.98 2 5 C-0.0625 5.6875 -0.0625 5.6875 -2 6 C-2 4.68 -2 3.36 -2 2 C-1.34 2 -0.68 2 0 2 C0 1.34 0 0.68 0 0 Z " fill="#F3F1F2" transform="translate(186,984)"/>
<path d="M0 0 C2.475 0.99 2.475 0.99 5 2 C5 2.66 5 3.32 5 4 C5.99 4.33 6.98 4.66 8 5 C7.34 5.66 6.68 6.32 6 7 C4.02 4.69 2.04 2.38 0 0 Z " fill="#994E8B" transform="translate(648,953)"/>
<path d="M0 0 C0.66 0.33 1.32 0.66 2 1 C1.34 2.98 0.68 4.96 0 7 C-0.66 6.67 -1.32 6.34 -2 6 C-1.125 1.125 -1.125 1.125 0 0 Z " fill="#843677" transform="translate(881,903)"/>
<path d="M0 0 C1.32 0.66 2.64 1.32 4 2 C0.25 5 0.25 5 -2 5 C-2.33 4.01 -2.66 3.02 -3 2 C-2.01 2 -1.02 2 0 2 C0 1.34 0 0.68 0 0 Z " fill="#F0F2EC" transform="translate(287,889)"/>
<path d="M0 0 C1.5 1.375 1.5 1.375 3 3 C3 5 3 5 1.5 6.625 C1.005 7.07875 0.51 7.5325 0 8 C-0.66 7.67 -1.32 7.34 -2 7 C-1.34 4.69 -0.68 2.38 0 0 Z " fill="#E6E9E4" transform="translate(892,878)"/>
<path d="M0 0 C0.33 0 0.66 0 1 0 C1 1.65 1 3.3 1 5 C1.66 5 2.32 5 3 5 C2.67 6.65 2.34 8.3 2 10 C1.34 9.67 0.68 9.34 0 9 C0 6.03 0 3.06 0 0 Z " fill="#E1E5E1" transform="translate(676,798)"/>
<path d="M0 0 C0.99 0 1.98 0 3 0 C3.33 1.98 3.66 3.96 4 6 C2.68 5.34 1.36 4.68 0 4 C0 2.68 0 1.36 0 0 Z " fill="#922480" transform="translate(676,777)"/>
<path d="M0 0 C2 1.3125 2 1.3125 4 3 C4 3.99 4 4.98 4 6 C2.68 5.34 1.36 4.68 0 4 C0 2.68 0 1.36 0 0 Z " fill="#903478" transform="translate(785,380)"/>
<path d="M0 0 C2 1.375 2 1.375 4 3 C4 3.66 4 4.32 4 5 C2.35 5.33 0.7 5.66 -1 6 C-0.67 4.02 -0.34 2.04 0 0 Z " fill="#8D2E79" transform="translate(922,375)"/>
<path d="M0 0 C0.4125 0.515625 0.825 1.03125 1.25 1.5625 C-1.39 1.8925 -4.03 2.2225 -6.75 2.5625 C-6.42 1.5725 -6.09 0.5825 -5.75 -0.4375 C-3.11357013 -1.66783394 -2.29825603 -1.88785317 0 0 Z " fill="#90297B" transform="translate(895.75,340.4375)"/>
<path d="M0 0 C2.66666667 1.33333333 5.33333333 2.66666667 8 4 C8 4.33 8 4.66 8 5 C3.48279689 5.36625971 3.48279689 5.36625971 1.1875 3.625 C0 2 0 2 0 0 Z " fill="#8F267C" transform="translate(844,281)"/>
<path d="M0 0 C-0.66 1.65 -1.32 3.3 -2 5 C-3.32 3.35 -4.64 1.7 -6 0 C-3 -1 -3 -1 0 0 Z " fill="#F2F2ED" transform="translate(816,233)"/>
</svg>
